<svg version="1.1"
	 id="waves" xmlns:dc="http://purl.org/dc/elements/1.1/" xmlns:svg="http://www.w3.org/2000/svg"
	 xmlns="http://www.w3.org/2000/svg" viewBox="0 0 595.3 841">
<rect id="dark_top{$issue->getVolume()}" x="0.1" y="0" width="595.3" height="220"/>
<rect id="mid_bottom{$issue->getVolume()}" x="0.1" y="255.9" width="595.3" height="414.2"/>
<rect id="dark_bottom{$issue->getVolume()}" y="682.6" width="595.3" height="158.4"/>
<path id="white" d="M-2.6,109c0,0,48.4,22,70.2-5c40.9-50.7,183.8,21.9,201.1,45.6c5,6.9,19.4,24.3,43.7,30
	c26.8,6.3,54.4-4.2,70.6-20c5.6-5.4,215.4-40.3,215.4-40.3V392c0,0-20.5,14.4-35.6,13c-13.2-1.2-15.6,1.6-48.5-29.1
	c-7.3-6.8-52.4-33.8-76-21.8c-40.7,20.7-78.7,63.4-98,62.5c-59.9-2.6-87.4-87.3-129.2-55.2c-59,45.2-85-43.3-113.7-44.9
	c-21-1.2-40.7,31.6-48.3,44.9c-27.7,47.5-51.8,14-51.8,14V109H-2.6z"/>
<path id="dark_bottom_mid{$issue->getVolume()}" d="M63.4,595.1c19.3-28.9,49.5-37.7,60.9-40.2c4-0.9,41.1-8.6,76.1,12
	c33.5,19.6,28.4,43.5,66.3,62c7.4,3.6,23.3,11.1,44.6,12c26,1,34.3-8.9,43.5-4.3c27.1,13.4-27.2,150-27.2,150l-120.7-29.3l-63,30.4
	c0,0-85.4-60.2-93.5-114.1C48,658.1,43.1,625.4,63.4,595.1z"/>
<path id="foregr_bottom{$issue->getVolume()}" d="M0.1,594.3c0,0,35.3-23.2,57.3-11.4c40.2,21.5-1.9,121.2,53.9,171.5
	c3.8,3.4,26.6,24,47.4,18c20.4-6,19.9-32.3,39.2-39.2c26.4-9.4,45.2,33.5,71.9,29.4c36.9-5.7,40.1-94.1,107.8-169.9
	c9.4-10.5,21.9-22.9,35.9-21.2c25.2,2.9,28.1,47.7,55.5,52.3c19.7,3.3,39.3-16.3,49-26.1c8.1-8.1,9.4-12.1,26.1-40.8
	c13.8-23.6,51.2-70.2,51.2-70.2v22.2v209.7c0,0-31.4,9.8-67.6,39.2c-41.6,33.9-65.3,83.3-65.3,83.3H251.8c0,0-29.4-63.2-52.3-65.3
	c-23.5-2.2-70.6,65.3-70.6,65.3H0.1V594.3z"/>
<path id="mid_top{$issue->getVolume()}" d="M0,194.3c0,0,64.1-4.5,80.7-60.4c29.3-98.5,91.8-14.3,154.2,53.1
	c11.2,12.1,72,60.4,177.1-31.5c26.1-22.9,40.3,40.1,74.5,37c26.1-2.4,32.3-24.9,65.4-27c23.9-1.6,43.5,2.9,43.5,2.9l-0.1-82.5
	c0,0-86,24.1-130.3-14.9c-50.5-44.4-144.1,158.8-264.3-0.8C156.8,11.9,138.4,35.3,74.1,78C24.6,110.9,0,72.9,0,72.9V194.3z"/>
</svg>
