<?xml version="1.0" encoding="utf-8"?>
<!-- Generator: Adobe Illustrator 25.3.1, SVG Export Plug-In . SVG Version: 6.00 Build 0)  -->
<svg version="1.2" baseProfile="tiny" id="Ebene_1" xmlns="http://www.w3.org/2000/svg" xmlns:xlink="http://www.w3.org/1999/xlink"
	 x="0px" y="0px" viewBox="0 0 398.4 73.9" overflow="visible" xml:space="preserve">
<g>
	<g>
		<path fill="#333333" d="M185.9,33.7c0,3.6,0.8,4.1,5,4.3v1c-1.7-0.1-4.6-0.1-7.3-0.1c-2.6,0-5,0-6.4,0.1v-1c3.4-0.1,4-0.7,4-4.3
			V9.1c0-3.6-0.7-4.1-4-4.3v-1c1.4,0.1,3.9,0.1,6.1,0.1c3.1,0,6.3-0.1,7.5-0.1c8,0,12,4,12,9.8c0,4.8-2.8,11.1-13.1,11.1h-3.8V33.7z
			 M185.9,9.1v14.7h3.3c7,0,8.6-4.5,8.6-9.6c0-6.3-2.2-9.4-8.2-9.4C186.5,4.8,185.9,5.6,185.9,9.1z"/>
		<path fill="#333333" d="M222.2,14.6c1.6,1.6,2,3.4,2,7v13.8c0,1.6,0.4,2.4,1.5,2.4c0.9,0,1.6-0.5,2.2-1l0.6,0.8
			c-1.4,1-2.4,1.8-4.5,1.8c-3.5,0-4.3-2.1-4.3-4.4c-2.1,3.5-5.3,4.4-7.6,4.4c-3.3,0-6.3-1.7-6.3-5.6c0-3.9,3-5.7,8-7.8
			c3.3-1.4,5.9-2.2,5.9-4.2v-3.1c0-4.2-2-5-4.6-5c-1.7,0-3.8,0.3-4.9,1.8c1.2,0.3,2.3,1.4,2.3,3c0,1.7-1.1,2.7-2.9,2.7
			c-1.7,0-2.7-1.3-2.7-3.1c0-1.5,0.9-2.6,2.3-3.5c1.4-0.9,3.8-1.9,7-1.9C219,12.7,221.1,13.4,222.2,14.6z M213.7,4.9
			c0,1.6-1.3,2.9-2.9,2.9c-1.6,0-2.9-1.3-2.9-2.9c0-1.5,1.3-2.9,2.9-2.9C212.4,2,213.7,3.4,213.7,4.9z M219.7,23.8
			c-0.5,0.8-1.6,1.3-4.8,2.8c-2.2,1-4.8,2.5-4.8,6.3c0,3,1.7,4.4,4,4.4c2,0,3.9-1,5.6-3.8V23.8z M224.2,4.9c0,1.6-1.3,2.9-2.9,2.9
			c-1.6,0-2.9-1.3-2.9-2.9c0-1.5,1.3-2.9,2.9-2.9C222.9,2,224.2,3.4,224.2,4.9z"/>
		<path fill="#333333" d="M251.7,33.6c0,3,0.9,4.4,3.8,4.4v1c-1-0.1-2.1-0.1-3.1-0.1c-1.9,0-3.7,0.2-5.2,0.7v-4.4
			c-1.2,3-3.6,4.6-7.1,4.6c-6.2,0-10.2-4.4-10.1-13.5c0-9,5.3-13.5,11.2-13.5c2.4,0,4.7,0.8,6,2.9V6c0-3-0.9-4.4-3.8-4.4v-1
			c1,0.1,2.1,0.1,3.1,0.1c1.9,0,3.7-0.2,5.2-0.7V33.6z M247.3,32.4V17.7c-1-2.7-3-3.8-5.6-3.8c-3.9,0-6.9,4-6.8,12.4
			c0,8,2.3,12,6.7,12C244.2,38.2,246.5,36.2,247.3,32.4z"/>
		<path fill="#333333" d="M274.4,14.6c1.6,1.6,2,3.4,2,7v13.8c0,1.6,0.4,2.4,1.5,2.4c0.9,0,1.6-0.5,2.2-1l0.6,0.8
			c-1.4,1-2.4,1.8-4.5,1.8c-3.5,0-4.3-2.1-4.3-4.4c-2.1,3.5-5.3,4.4-7.6,4.4c-3.3,0-6.3-1.7-6.3-5.6c0-3.9,3-5.7,8-7.8
			c3.3-1.4,5.9-2.2,5.9-4.2v-3.1c0-4.2-2-5-4.6-5c-1.7,0-3.8,0.3-4.9,1.8c1.2,0.3,2.3,1.4,2.3,3c0,1.7-1.1,2.7-2.9,2.7
			c-1.7,0-2.7-1.3-2.7-3.1c0-1.5,0.9-2.6,2.3-3.5c1.4-0.9,3.8-1.9,7-1.9C271.2,12.7,273.3,13.4,274.4,14.6z M271.9,23.8
			c-0.5,0.8-1.6,1.3-4.8,2.8c-2.2,1-4.8,2.5-4.8,6.3c0,3,1.7,4.4,4,4.4c2,0,3.9-1,5.6-3.8V23.8z"/>
		<path fill="#333333" d="M299,33.5c3.1,0,5.8,1.1,5.8,4.6c0,4.4-4.3,10.2-13.9,10.2c-5,0-10-1.5-10-4.6c0-2.4,3.1-4.6,6.2-6.1h-0.2
			c-1.7,0-5-0.5-5-3.8c0-2.1,1.5-4.1,6.2-6.3c-2.8-1.1-4.6-3.4-4.6-7.1c0-5.5,4-7.8,9.2-7.8c1.3,0,2.5,0.1,3.5,0.4
			c0.3-1.9,1-3.4,1.7-4.4c0.8-1,1.9-1.6,3.4-1.6c1.7,0,2.6,1.1,2.6,2.6c0,1.3-1,2.4-2.4,2.4c-1.8,0-2.3-1.2-2.6-3.1
			c-0.5,0.4-0.9,1.2-1.3,2.4c-0.2,0.6-0.4,1.2-0.5,2.1c2.9,1.1,4.8,3.4,4.8,7.1c0,5.5-4,7.9-9.2,7.9c-1.3,0-2.6-0.1-3.7-0.5
			c-2.2,1.2-4.2,2.4-4.2,3.9c0,1.1,0.7,1.6,2.4,1.6H299z M301.4,40.4c0-1.8-0.8-2.8-3.8-2.8h-9.2c-2.2,1.1-3.4,3.2-3.4,5
			c0,3.4,3.9,4.8,7.3,4.8C296.4,47.5,301.4,45.2,301.4,40.4z M288.2,20.5c0,5.3,1.7,7,4.5,7c2.8,0,4.5-1.6,4.5-7c0-5.3-1.7-7-4.5-7
			C290,13.6,288.2,15.2,288.2,20.5z"/>
		<path fill="#333333" d="M329.6,26.2c0,9.5-5,13.5-11.3,13.5c-6.3,0-11.3-3.9-11.3-13.5c0-9.6,5-13.5,11.3-13.5
			C324.7,12.7,329.6,16.6,329.6,26.2z M311.9,26.2c0,8.9,2.7,12.5,6.5,12.5c3.8,0,6.5-3.6,6.5-12.5c0-8.9-2.7-12.5-6.5-12.5
			C314.6,13.7,311.9,17.3,311.9,26.2z"/>
		<path fill="#333333" d="M348.8,33.5c3.1,0,5.8,1.1,5.8,4.6c0,4.4-4.3,10.2-13.9,10.2c-5,0-10-1.5-10-4.6c0-2.4,3.1-4.6,6.2-6.1
			h-0.2c-1.7,0-5-0.5-5-3.8c0-2.1,1.5-4.1,6.2-6.3c-2.8-1.1-4.6-3.4-4.6-7.1c0-5.5,4-7.8,9.2-7.8c1.3,0,2.5,0.1,3.5,0.4
			c0.3-1.9,1-3.4,1.7-4.4c0.8-1,1.9-1.6,3.4-1.6c1.7,0,2.6,1.1,2.6,2.6c0,1.3-1,2.4-2.4,2.4c-1.8,0-2.3-1.2-2.6-3.1
			c-0.5,0.4-0.9,1.2-1.3,2.4c-0.2,0.6-0.4,1.2-0.5,2.1c2.9,1.1,4.8,3.4,4.8,7.1c0,5.5-4,7.9-9.2,7.9c-1.3,0-2.6-0.1-3.7-0.5
			c-2.2,1.2-4.2,2.4-4.2,3.9c0,1.1,0.7,1.6,2.4,1.6H348.8z M351.2,40.4c0-1.8-0.8-2.8-3.8-2.8h-9.2c-2.2,1.1-3.4,3.2-3.4,5
			c0,3.4,3.9,4.8,7.3,4.8C346.2,47.5,351.2,45.2,351.2,40.4z M338.1,20.5c0,5.3,1.7,7,4.5,7c2.8,0,4.5-1.6,4.5-7c0-5.3-1.7-7-4.5-7
			C339.8,13.6,338.1,15.2,338.1,20.5z"/>
		<path fill="#333333" d="M365.8,34.4c0,2.8,1,3.6,3.8,3.6v1c-1.1,0-3.7-0.2-6-0.2s-4.9,0.1-6,0.2v-1c2.7,0,3.8-0.8,3.8-3.6V18.8
			c0-3-0.9-4.4-3.8-4.4v-1c1,0.1,2.1,0.1,3.1,0.1c1.9,0,3.7-0.2,5.2-0.7V34.4z M366.4,4.1c0,1.7-1.5,3.2-3.2,3.2
			c-1.7,0-3.2-1.4-3.2-3.2c0-1.7,1.4-3.2,3.2-3.2C365,0.9,366.4,2.4,366.4,4.1z"/>
		<path fill="#333333" d="M394.9,35.3c1.1,1.6,2,2.4,3.5,2.6v1c-0.8,0-2.5-0.2-4-0.2c-2.1,0-4.5,0.1-5.5,0.2v-1
			c0.9,0,1.5-0.4,1.5-0.9c0-0.2-0.1-0.5-0.3-0.8l-5.7-8.3c-1.2-1.7-2-2.1-3.7-2.2v8.7c0,2.8,0.9,3.6,3.3,3.6v1c-1,0-3.4-0.2-5.5-0.2
			c-2.3,0-4.9,0.1-6,0.2v-1c2.7,0,3.8-0.8,3.8-3.6V6c0-3-0.9-4.4-3.8-4.4v-1c1,0.1,2.1,0.1,3.1,0.1c1.9,0,3.7-0.2,5.2-0.7v24.7
			c2-0.3,3.1-0.9,4.3-2.1l3.7-3.8c1.1-1.2,1.6-2.1,1.6-2.7c0-1.2-1.6-1.7-3.7-1.7v-1c1.7,0.1,4.2,0.2,5.6,0.2c1.6,0,3.3-0.1,4.3-0.2
			v1c-1.6,0.1-3.1,0.9-4.5,2.3l-6,6.4L394.9,35.3z"/>
	</g>
	<g>
		<rect y="57.5" fill="none" width="400.7" height="13.6"/>
		<path fill="#333333" d="M0.5,70.2v-1.4l7.6-9.8H1v-1.4h9.1v1.5l-7.6,9.8h7.6v1.4H0.5z"/>
		<path fill="#333333" d="M12.7,66c0,2.1,1.2,3.1,2.7,3.1c1.2,0,2-0.5,2.4-1.7h1.5c-0.4,1.8-1.8,3-3.9,3c-2.6,0-4.1-1.8-4.1-4.8
			c0-3,1.6-4.9,4.2-4.9c1.7,0,3.1,0.9,3.7,2.4c0.3,0.7,0.4,1.5,0.4,2.8H12.7z M15.3,62.1c-1.5,0-2.5,1.1-2.6,2.7h5.1
			c0,0,0-0.1,0-0.1C17.8,63.3,16.7,62.1,15.3,62.1z"/>
		<path fill="#333333" d="M21.1,59.7v-1.8h1.8v1.8H21.1z M21.3,70.2V61h1.4v9.1H21.3z"/>
		<path fill="#333333" d="M27.2,70.3c-1.1,0-1.8-0.5-1.8-1.4v-6.6h-1.2V61h1.2v-2.5h1.4V61h1.5v1.2h-1.5v6c0,0.6,0.2,0.8,0.8,0.8
			c0.3,0,0.5,0,0.7-0.1v1.2C27.9,70.2,27.5,70.3,27.2,70.3z"/>
		<path fill="#333333" d="M33.1,70.4c-2.4,0-3.6-0.9-3.6-3H31c0.2,1.4,0.9,1.7,2.2,1.7c1.3,0,2.1-0.5,2.1-1.4c0-0.7-0.4-1-1.4-1.2
			l-1.4-0.3c-2.2-0.5-2.9-1.2-2.9-2.6c0-1.7,1.4-2.8,3.5-2.8c2.1,0,3.3,1,3.3,2.8H35c0-1-0.7-1.5-1.8-1.5c-1.2,0-1.9,0.5-1.9,1.4
			c0,0.6,0.5,1,1.7,1.3l1.4,0.3c1.8,0.4,2.6,1.1,2.6,2.5C36.9,69.4,35.4,70.4,33.1,70.4z"/>
		<path fill="#333333" d="M42.3,70.4c-2.5,0-4-1.8-4-4.7c0-3,1.6-4.9,4.1-4.9c2,0,3.4,1.1,3.6,3.3h-1.5c-0.2-1.3-0.9-2-2.2-2
			c-1.6,0-2.5,1.3-2.5,3.6c0,2.2,1,3.4,2.6,3.4c1.2,0,2-0.6,2.2-2.1H46C45.8,69.1,44.4,70.4,42.3,70.4z"/>
		<path fill="#333333" d="M53.4,70.2v-6.3c0-1.2-0.9-1.8-1.9-1.8c-1.5,0-2.5,1.2-2.5,3.1v5h-1.4V57.5h1.4v4.8
			c0.9-1.1,1.6-1.5,2.9-1.5c1.8,0,2.9,1,2.9,2.5v6.9H53.4z"/>
		<path fill="#333333" d="M58.7,65.4v4.7h-1.4V61h1.3v1.7c0.8-1.4,1.5-1.9,2.5-1.9c0.2,0,0.3,0,0.6,0.1v1.5
			C59.3,62.3,58.7,63.4,58.7,65.4z"/>
		<path fill="#333333" d="M62.9,59.7v-1.8h1.8v1.8H62.9z M63.1,70.2V61h1.4v9.1H63.1z"/>
		<path fill="#333333" d="M68.7,62.2v7.9h-1.4v-7.9H66V61h1.2v-1.5c0-1.3,0.8-2.1,2.1-2.1c0.3,0,0.5,0,0.8,0.1v1.2
			c-0.3,0-0.4,0-0.5,0c-0.7,0-1,0.3-1,0.9V61h1.5v1.2H68.7z"/>
		<path fill="#333333" d="M74.2,70.3c-1.1,0-1.8-0.5-1.8-1.4v-6.6h-1.2V61h1.2v-2.5h1.4V61h1.5v1.2h-1.5v6c0,0.6,0.2,0.8,0.8,0.8
			c0.3,0,0.5,0,0.7-0.1v1.2C74.9,70.2,74.6,70.3,74.2,70.3z"/>
		<path fill="#333333" d="M83.8,62.2v7.9h-1.4v-7.9h-1.2V61h1.2v-1.5c0-1.3,0.8-2.1,2.1-2.1c0.3,0,0.5,0,0.8,0.1v1.2
			c-0.3,0-0.4,0-0.5,0c-0.7,0-1,0.3-1,0.9V61h1.5v1.2H83.8z"/>
		<path fill="#333333" d="M92.8,70.2v-1.4c-0.9,1.2-1.7,1.7-3,1.7c-1.8,0-2.9-1-2.9-2.5V61h1.4v6.3c0,1.1,0.7,1.8,1.9,1.8
			c1.5,0,2.5-1.2,2.5-3.1v-5h1.4v9.1H92.8z M88.3,59.6v-1.8h1.6v1.8H88.3z M91.1,59.6v-1.8h1.6v1.8H91.1z"/>
		<path fill="#333333" d="M97.9,65.4v4.7h-1.4V61h1.3v1.7c0.8-1.4,1.5-1.9,2.5-1.9c0.2,0,0.3,0,0.6,0.1v1.5
			C98.6,62.3,97.9,63.4,97.9,65.4z"/>
		<path fill="#333333" d="M112.2,58.9v11.3h-1.6V58.9h-4.2v-1.4h10v1.4H112.2z"/>
		<path fill="#333333" d="M123.6,70.2v-6.3c0-1.2-0.9-1.8-1.9-1.8c-1.5,0-2.5,1.2-2.5,3.1v5h-1.4V57.5h1.4v4.8
			c0.9-1.1,1.6-1.5,2.9-1.5c1.8,0,2.9,1,2.9,2.5v6.9H123.6z"/>
		<path fill="#333333" d="M128.5,66c0,2.1,1.2,3.1,2.7,3.1c1.2,0,2-0.5,2.4-1.7h1.5c-0.4,1.8-1.8,3-3.9,3c-2.6,0-4.1-1.8-4.1-4.8
			c0-3,1.6-4.9,4.2-4.9c1.7,0,3.1,0.9,3.7,2.4c0.3,0.7,0.4,1.5,0.4,2.8H128.5z M131.1,62.1c-1.5,0-2.5,1.1-2.6,2.7h5.1
			c0,0,0-0.1,0-0.1C133.6,63.3,132.5,62.1,131.1,62.1z"/>
		<path fill="#333333" d="M140.7,70.4c-2.6,0-4.1-1.8-4.1-4.8s1.5-4.8,4.1-4.8c2.6,0,4.1,1.7,4.1,4.9
			C144.9,68.7,143.3,70.4,140.7,70.4z M140.7,62.1c-1.6,0-2.6,1.3-2.6,3.5c0,2.2,1,3.5,2.6,3.5c1.6,0,2.6-1.3,2.6-3.4
			C143.4,63.4,142.4,62.1,140.7,62.1z"/>
		<path fill="#333333" d="M148.3,65.4v4.7h-1.4V61h1.3v1.7c0.8-1.4,1.5-1.9,2.5-1.9c0.2,0,0.3,0,0.6,0.1v1.5
			C148.9,62.3,148.3,63.4,148.3,65.4z"/>
		<path fill="#333333" d="M152.5,59.7v-1.8h1.8v1.8H152.5z M152.7,70.2V61h1.4v9.1H152.7z"/>
		<path fill="#333333" d="M157.4,66c0,2.1,1.2,3.1,2.7,3.1c1.2,0,2-0.5,2.4-1.7h1.5c-0.4,1.8-1.8,3-3.9,3c-2.6,0-4.1-1.8-4.1-4.8
			c0-3,1.6-4.9,4.2-4.9c1.7,0,3.1,0.9,3.7,2.4c0.3,0.7,0.4,1.5,0.4,2.8H157.4z M160.1,62.1c-1.5,0-2.5,1.1-2.6,2.7h5.1
			c0,0,0-0.1,0-0.1C162.6,63.3,161.5,62.1,160.1,62.1z"/>
		<path fill="#333333" d="M177,70.2v-1.4c-0.9,1.2-1.7,1.7-3,1.7c-1.8,0-2.9-1-2.9-2.5V61h1.4v6.3c0,1.1,0.7,1.8,1.9,1.8
			c1.5,0,2.5-1.2,2.5-3.1v-5h1.4v9.1H177z"/>
		<path fill="#333333" d="M186.5,70.2v-6.3c0-1.1-0.7-1.8-1.9-1.8c-1.5,0-2.5,1.2-2.5,3.1v5h-1.4V61h1.3v1.5c0.8-1.3,1.7-1.8,3-1.8
			c1.8,0,2.9,1,2.9,2.5v6.9H186.5z"/>
		<path fill="#333333" d="M196.5,70.2v-1.3c-0.8,1.1-1.7,1.6-2.9,1.6c-2.5,0-4-1.8-4-4.9c0-2.9,1.5-4.7,3.9-4.7
			c1.2,0,2.2,0.5,2.8,1.4v-4.7h1.4v12.7H196.5z M193.8,62.1c-1.6,0-2.6,1.3-2.6,3.5s1.1,3.5,2.7,3.5c1.5,0,2.5-1.3,2.5-3.4
			C196.4,63.5,195.4,62.1,193.8,62.1z"/>
		<path fill="#333333" d="M211.1,64.8h-4v5.4h-1.6V57.5h5.2c2.5,0,3.9,1.3,3.9,3.7C214.6,63.3,213.2,64.8,211.1,64.8z M210.5,58.9
			h-3.4v4.5h3.4c1.5,0,2.5-0.8,2.5-2.2S212,58.9,210.5,58.9z"/>
		<path fill="#333333" d="M217.8,65.4v4.7h-1.4V61h1.3v1.7c0.8-1.4,1.5-1.9,2.5-1.9c0.2,0,0.3,0,0.6,0.1v1.5
			C218.5,62.3,217.8,63.4,217.8,65.4z"/>
		<path fill="#333333" d="M229.3,70.3c-0.7,0-1.3-0.5-1.5-1.2c-0.8,0.9-1.9,1.3-3.1,1.3c-1.8,0-3-1-3-2.6c0-1.1,0.5-1.9,1.6-2.4
			c0.6-0.2,0.9-0.3,2.9-0.6c1.1-0.1,1.5-0.4,1.5-1v-0.4c0-0.9-0.7-1.4-2-1.4c-1.4,0-2,0.5-2.1,1.6h-1.5c0.1-2.1,1.4-3,3.7-3
			c2.2,0,3.4,0.9,3.4,2.5v5.1c0,0.5,0.3,0.7,0.8,0.7c0.1,0,0.2,0,0.3,0v1.1C229.8,70.2,229.6,70.3,229.3,70.3z M227.7,65.6
			c-0.5,0.2-0.8,0.3-2.3,0.5c-1.5,0.2-2.2,0.6-2.2,1.6c0,1,0.7,1.4,1.8,1.4c1.4,0,2.7-0.8,2.7-2.1V65.6z"/>
		<path fill="#333333" d="M237.6,70.2l-2.3-3.5l-2.3,3.5h-1.7l3.2-4.6l-3-4.5h1.7l2.2,3.3l2.2-3.3h1.6l-3.1,4.4l3.1,4.7H237.6z"/>
		<path fill="#333333" d="M240.7,59.7v-1.8h1.8v1.8H240.7z M240.9,70.2V61h1.4v9.1H240.9z"/>
		<path fill="#333333" d="M247.7,70.4c-2.4,0-3.6-0.9-3.6-3h1.5c0.2,1.4,0.9,1.7,2.2,1.7c1.3,0,2.1-0.5,2.1-1.4c0-0.7-0.4-1-1.4-1.2
			l-1.4-0.3c-2.2-0.5-2.9-1.2-2.9-2.6c0-1.7,1.4-2.8,3.5-2.8c2.1,0,3.3,1,3.3,2.8h-1.5c0-1-0.7-1.5-1.8-1.5c-1.2,0-1.9,0.5-1.9,1.4
			c0,0.6,0.5,1,1.7,1.3l1.4,0.3c1.8,0.4,2.6,1.1,2.6,2.5C251.5,69.4,250,70.4,247.7,70.4z"/>
		<path fill="#333333" d="M264.5,70.2v-1.3c-0.8,1.1-1.7,1.6-2.9,1.6c-2.5,0-4-1.8-4-4.9c0-2.9,1.5-4.7,3.9-4.7
			c1.2,0,2.2,0.5,2.8,1.4v-4.7h1.4v12.7H264.5z M261.8,62.1c-1.6,0-2.6,1.3-2.6,3.5s1.1,3.5,2.7,3.5c1.5,0,2.5-1.3,2.5-3.4
			C264.4,63.5,263.4,62.1,261.8,62.1z"/>
		<path fill="#333333" d="M269.1,66c0,2.1,1.2,3.1,2.7,3.1c1.2,0,2-0.5,2.4-1.7h1.5c-0.4,1.8-1.8,3-3.9,3c-2.6,0-4.1-1.8-4.1-4.8
			c0-3,1.6-4.9,4.2-4.9c1.7,0,3.1,0.9,3.7,2.4c0.3,0.7,0.4,1.5,0.4,2.8H269.1z M271.8,62.1c-1.5,0-2.5,1.1-2.6,2.7h5.1
			c0,0,0-0.1,0-0.1C274.3,63.3,273.2,62.1,271.8,62.1z"/>
		<path fill="#333333" d="M279.2,65.4v4.7h-1.4V61h1.3v1.7c0.8-1.4,1.5-1.9,2.5-1.9c0.2,0,0.3,0,0.6,0.1v1.5
			C279.9,62.3,279.2,63.4,279.2,65.4z"/>
		<path fill="#333333" d="M299,70.2V59.5l-3.6,10.6h-1.7l-3.6-10.6v10.6h-1.5V57.5h2.2l3.8,11l3.7-11h2.2v12.7H299z"/>
		<path fill="#333333" d="M304.1,66c0,2.1,1.2,3.1,2.7,3.1c1.2,0,2-0.5,2.4-1.7h1.5c-0.4,1.8-1.8,3-3.9,3c-2.6,0-4.1-1.8-4.1-4.8
			c0-3,1.6-4.9,4.2-4.9c1.7,0,3.1,0.9,3.7,2.4c0.3,0.7,0.4,1.5,0.4,2.8H304.1z M306.7,62.1c-1.5,0-2.5,1.1-2.6,2.7h5.1
			c0,0,0-0.1,0-0.1C309.2,63.3,308.2,62.1,306.7,62.1z"/>
		<path fill="#333333" d="M319,70.2v-1.3c-0.8,1.1-1.7,1.6-2.9,1.6c-2.5,0-4-1.8-4-4.9c0-2.9,1.5-4.7,3.9-4.7c1.2,0,2.2,0.5,2.8,1.4
			v-4.7h1.4v12.7H319z M316.3,62.1c-1.6,0-2.6,1.3-2.6,3.5s1.1,3.5,2.7,3.5c1.5,0,2.5-1.3,2.5-3.4C318.9,63.5,317.9,62.1,316.3,62.1
			z"/>
		<path fill="#333333" d="M322.4,59.7v-1.8h1.8v1.8H322.4z M322.6,70.2V61h1.4v9.1H322.6z"/>
		<path fill="#333333" d="M327.4,66c0,2.1,1.2,3.1,2.7,3.1c1.2,0,2-0.5,2.4-1.7h1.5c-0.4,1.8-1.8,3-3.9,3c-2.6,0-4.1-1.8-4.1-4.8
			c0-3,1.6-4.9,4.2-4.9c1.7,0,3.1,0.9,3.7,2.4c0.3,0.7,0.4,1.5,0.4,2.8H327.4z M330,62.1c-1.5,0-2.5,1.1-2.6,2.7h5.1
			c0,0,0-0.1,0-0.1C332.5,63.3,331.4,62.1,330,62.1z"/>
		<path fill="#333333" d="M341.8,70.2v-6.3c0-1.1-0.7-1.8-1.9-1.8c-1.5,0-2.5,1.2-2.5,3.1v5H336V61h1.3v1.5c0.8-1.3,1.7-1.8,3-1.8
			c1.8,0,2.9,1,2.9,2.5v6.9H341.8z"/>
		<path fill="#333333" d="M349.6,70.4c-1.3,0-2.2-0.5-2.9-1.6v1.3h-1.3V57.5h1.4v4.8c0.7-1,1.6-1.5,2.8-1.5c2.4,0,3.9,1.8,3.9,4.7
			S352,70.4,349.6,70.4z M349.4,62.1c-1.5-0.1-2.5,1.3-2.5,3.5c0,2.1,1,3.5,2.5,3.5c1.6,0,2.7-1.4,2.7-3.5
			C352.1,63.5,351,62.1,349.4,62.1z"/>
		<path fill="#333333" d="M355.2,59.7v-1.8h1.8v1.8H355.2z M355.4,70.2V61h1.4v9.1H355.4z"/>
		<path fill="#333333" d="M359.1,70.2V57.5h1.4v12.7H359.1z"/>
		<path fill="#333333" d="M369.2,70.2v-1.3c-0.8,1.1-1.7,1.6-2.9,1.6c-2.5,0-4-1.8-4-4.9c0-2.9,1.5-4.7,3.9-4.7
			c1.2,0,2.2,0.5,2.8,1.4v-4.7h1.4v12.7H369.2z M366.5,62.1c-1.6,0-2.6,1.3-2.6,3.5s1.1,3.5,2.7,3.5c1.5,0,2.5-1.3,2.5-3.4
			C369,63.5,368,62.1,366.5,62.1z"/>
		<path fill="#333333" d="M378.6,70.2v-1.4c-0.9,1.2-1.7,1.7-3,1.7c-1.8,0-2.9-1-2.9-2.5V61h1.4v6.3c0,1.1,0.7,1.8,1.9,1.8
			c1.5,0,2.5-1.2,2.5-3.1v-5h1.4v9.1H378.6z"/>
		<path fill="#333333" d="M388.1,70.2v-6.3c0-1.1-0.7-1.8-1.9-1.8c-1.5,0-2.5,1.2-2.5,3.1v5h-1.4V61h1.3v1.5c0.8-1.3,1.7-1.8,3-1.8
			c1.8,0,2.9,1,2.9,2.5v6.9H388.1z"/>
		<path fill="#333333" d="M395.3,73.9c-2.1,0-3.5-1-3.6-2.7h1.5c0.2,1.1,1.1,1.5,2.2,1.5c1.7,0,2.7-0.9,2.7-3.3v-0.6
			c-1,1.1-1.8,1.6-2.9,1.6c-2.1,0-3.8-1.9-3.8-4.7c0-3,1.6-4.9,3.9-4.9c1.2,0,2.1,0.5,2.8,1.6V61h1.3v7.6
			C399.3,72.7,398.1,73.9,395.3,73.9z M395.4,62.1c-1.5,0-2.5,1.3-2.5,3.5c0,2.2,1,3.5,2.5,3.5c1.5,0,2.5-1.3,2.5-3.4
			C397.8,63.4,396.9,62.1,395.4,62.1z"/>
	</g>
	<g>
		<path fill="#333333" d="M2,3.9h11.1l8.3,23.7l8.3-23.7h10.7v34.8h-7.8V13.9l-8.9,24.8h-5L9.8,13.9v24.8H2V3.9z"/>
		<path fill="#333333" d="M58.7,34.7c2.8,0,4.2-1.1,4.9-3.7h7c-1.1,5.8-4.6,8.2-11.8,8.2c-9,0-12.8-3.9-12.8-12.9
			c0-9,3.8-12.9,12.8-12.9s12.8,3.9,12.8,13.1v2.2H53.3C53.7,32.8,55.3,34.7,58.7,34.7z M53.2,24.5h11c0-4.6-1.6-6.6-5.5-6.6
			C55.3,18,53.6,20,53.2,24.5z"/>
		<path fill="#333333" d="M74.5,26.3c0-9,3.2-12.9,10.8-12.9c3.3,0,5.7,0.7,7.5,2.2V3.9h7.4v34.8h-5.8l-1-2.3
			c-1.7,1.9-4.4,2.8-8.1,2.8C77.7,39.2,74.5,35.4,74.5,26.3z M92.8,26.3c0-5.3-1.6-7.6-5.5-7.6s-5.5,2.3-5.5,7.6s1.6,7.6,5.5,7.6
			S92.8,31.6,92.8,26.3z"/>
		<path fill="#333333" d="M114.1,6.7c0,2.7-1.3,3.9-4.3,3.9s-4.3-1.1-4.3-3.9s1.3-3.9,4.3-3.9S114.1,4,114.1,6.7z M106.2,38.7V13.9
			h7.4v24.8H106.2z"/>
		<path fill="#333333" d="M130.9,34.7c2.8,0,4.2-1.1,4.9-3.7h7c-1.1,5.8-4.6,8.2-11.8,8.2c-9,0-12.8-3.9-12.8-12.9
			c0-9,3.8-12.9,12.8-12.9c9,0,12.8,3.9,12.8,13.1v2.2h-18.2C125.9,32.8,127.6,34.7,130.9,34.7z M125.5,24.5h11
			c0-4.6-1.6-6.6-5.5-6.6C127.5,18,125.8,20,125.5,24.5z"/>
		<path fill="#333333" d="M153.9,13.9l0.9,1.9c1.6-1.7,4-2.5,7.3-2.5c6.8,0,9.7,3.6,9.7,11.9v13.4h-7.4V25.3c0-4.6-1.3-6.6-4.4-6.6
			c-3.2,0-4.6,1.8-4.6,6v14h-7.4V13.9L153.9,13.9L153.9,13.9z"/>
	</g>
</g>
<g>
</g>
<g>
</g>
<g>
</g>
<g>
</g>
<g>
</g>
<g>
</g>
</svg>
