<?xml version="1.0" encoding="utf-8"?>
<!-- Generator: Adobe Illustrator 22.1.0, SVG Export Plug-In . SVG Version: 6.00 Build 0)  -->
<svg version="1.1" id="Ebene_1" xmlns="http://www.w3.org/2000/svg" xmlns:xlink="http://www.w3.org/1999/xlink" x="0px" y="0px"
	 viewBox="0 0 314.1 67.1" style="enable-background:new 0 0 314.1 67.1;" xml:space="preserve">
<style type="text/css">
	.st0{fill:#3D383A;}
	.st1{fill:#7D7D7D;}
	.st2{fill:#9E9E9E;}
	.st3{fill:#C5C5C5;}
	.st4{fill:#514F4F;}
	.st5{fill:#66CACC;}
</style>
<path class="st0" d="M113.9,32.7h1.2v-7.8h2v-1.1h-2v-0.6c0-1.1-0.3-2.6,1.2-2.6c0.3,0,0.5,0.1,1,0.3l0.1-1.2
	c-0.3-0.1-0.8-0.2-1.2-0.2c-2.3,0-2.5,2-2.5,3.8v0.5H112v1.1h1.8v7.8H113.9z M113.9,32.7"/>
<path class="st0" d="M123.4,22.4h1.4v-1.6h-1.6v1.6H123.4z M120.5,22.4h1.4v-1.6h-1.6v1.6H120.5z M126,23.7h-1.2v5
	c0,1.5-0.5,3.1-2.4,3.1c-1.5,0-2-1-2-2.6v-5.4H119v5.7c0,1.9,1,3.5,3.2,3.5c1.8,0,2.6-1.1,2.9-1.8h-0.2v1.6h1.3
	c-0.1-0.8-0.1-1.5-0.1-2.2v-6.8H126z M126,23.7"/>
<path class="st0" d="M128.9,32.7h1.2v-4.4c0-1.6,0.3-3.4,2-3.4c0.3,0,0.6,0,0.9,0.2v-1.3c-0.3-0.1-0.6-0.1-0.9-0.1
	c-1.1,0-2,1-2.4,1.9h0.2v-1.7h-1.4c0.1,0.8,0.1,1.1,0.1,2.1v6.9H128.9z M128.9,32.7"/>
<path class="st0" d="M140,32.7h6.2v-1.2h-4.9V27h4.5v-1.2h-4.5v-4.1h4.7v-1.2h-6.2v12.2H140z M140,32.7"/>
<path class="st0" d="M148.6,32.7h1.2v-4.4c0-1.6,0.3-3.4,2-3.4c0.3,0,0.6,0,0.9,0.2v-1.3c-0.3-0.1-0.6-0.1-0.9-0.1
	c-1.1,0-2,1-2.4,1.9h0.2v-1.7h-1.4c0.1,0.8,0.1,1.1,0.1,2.1v6.9H148.6z M148.6,32.7"/>
<path class="st0" d="M153.8,32.7h6.7v-1.1h-5.2l5.2-6.8v-1.1h-6.6v1.1h5l-5.2,6.8v1H153.8z M153.8,32.7"/>
<path class="st0" d="M162.4,32.7h1.2v-9h-1.4v9H162.4z M163.5,19.9h-1.2v1.6h1.4v-1.6H163.5z M163.5,19.9"/>
<path class="st0" d="M172.2,31.1c-0.5,0.3-1.6,0.6-2.4,0.6c-1.9,0-2.8-1.4-2.8-3.2h6V28c0-2.4-1.2-4.5-3.6-4.5c-2.2,0-3.9,2-3.9,4.7
	c0,2.6,1.3,4.7,4.2,4.7c0.8,0,1.8-0.2,2.7-0.5V31L172.2,31.1z M167.1,27.6c0-1.4,0.8-3,2.4-3c1.6,0,2.1,1.4,2.1,2.8h-4.5V27.6z
	 M167.1,27.6"/>
<path class="st0" d="M175.3,32.7h1.2v-4.8c0-1.5,0.5-3.3,2.5-3.3c1.8,0,1.9,1.2,1.9,2.7v5.3h1.4v-5.3c0-2.2-0.8-3.8-3.1-3.8
	c-1.3,0-2.4,0.8-2.9,1.7h0.2v-5.6h-1.4v13.1H175.3z M175.3,32.7"/>
<path class="st0" d="M191.7,23.7h-1.2v5c0,1.5-0.5,3.1-2.4,3.1c-1.5,0-2-1-2-2.6v-5.4h-1.4v5.7c0,1.9,1,3.5,3.2,3.5
	c1.8,0,2.6-1.1,2.9-1.8h-0.2v1.6h1.3c-0.1-0.8-0.1-1.5-0.1-2.2v-6.8H191.7z M191.7,23.7"/>
<path class="st0" d="M194.6,32.7h1.2v-4.9c0-1.5,0.5-3.1,2.5-3.1c1.5,0,1.9,1,1.9,2.6v5.4h1.4V27c0-1.9-1-3.5-3.1-3.5
	c-1.8,0-2.6,1-3,1.8h0.2v-1.6h-1.3c0.1,0.8,0.1,1.5,0.1,2.2v6.8H194.6z M194.6,32.7"/>
<path class="st0" d="M205.2,28.2c0-1.7,0.4-3.6,2.5-3.6c2,0,2.5,1.5,2.5,3.6c0,1.6-0.6,3.3-2.5,3.3
	C205.8,31.6,205.2,29.9,205.2,28.2L205.2,28.2z M211.4,23.7h-1.2v1h0.2c-0.8-1-1.6-1.2-2.8-1.2c-2.6,0-3.8,2-3.8,4.7
	c0,1.9,1,4.5,3.9,4.5c1.1,0,2.2-0.5,2.8-1.7h-0.2c0,2.4-0.1,4.3-2.9,4.3c-1,0-1.8-0.2-2.7-0.7l-0.1,1.3c0.6,0.2,1.7,0.5,2.8,0.5
	c3,0,4.3-2.1,4.3-4.5v-8.2H211.4z M211.4,23.7"/>
<path class="st0" d="M213.4,32.5c0.8,0.3,1.6,0.4,2.5,0.4c1.3,0,3.2-0.7,3.2-2.6c0-2.9-4.3-2.7-4.3-4.3c0-1.1,0.6-1.4,1.8-1.4
	c0.6,0,1.4,0.2,2.1,0.5l0.1-1.2c-0.9-0.3-1.8-0.5-2.3-0.5c-1.5,0-3,0.8-3,2.5c0,2.5,4.2,2.2,4.2,4.3c0,1-0.8,1.5-1.8,1.5
	c-0.8,0-1.5-0.2-2.4-0.6l-0.1,1.3L213.4,32.5z M213.4,32.5"/>
<path class="st0" d="M233,23.7h-1.2l-2.4,7.6h0.2l-2.3-7.6h-1.5l-2.4,7.6h0.2l-2.3-7.6h-1.5l2.9,9h1.5l2.4-7.6h-0.2l2.4,7.6h1.5
	l2.9-9H233z M233,23.7"/>
<path class="st0" d="M234.7,32.7h1.2v-9h-1.4v9H234.7z M235.7,19.9h-1.2v1.6h1.4v-1.6H235.7z M235.7,19.9"/>
<path class="st0" d="M237.9,32.5c0.8,0.3,1.6,0.4,2.5,0.4c1.3,0,3.2-0.7,3.2-2.6c0-2.9-4.3-2.7-4.3-4.3c0-1.1,0.6-1.4,1.8-1.4
	c0.6,0,1.4,0.2,2.1,0.5l0.1-1.2c-0.9-0.3-1.8-0.5-2.3-0.5c-1.5,0-3,0.8-3,2.5c0,2.5,4.2,2.2,4.2,4.3c0,1-0.8,1.5-1.8,1.5
	c-0.8,0-1.5-0.2-2.4-0.6l-0.1,1.3L237.9,32.5z M237.9,32.5"/>
<path class="st0" d="M244.8,32.5c0.8,0.3,1.6,0.4,2.5,0.4c1.3,0,3.2-0.7,3.2-2.6c0-2.9-4.3-2.7-4.3-4.3c0-1.1,0.6-1.4,1.8-1.4
	c0.6,0,1.4,0.2,2.1,0.5l0.1-1.2c-0.9-0.3-1.8-0.5-2.3-0.5c-1.5,0-3,0.8-3,2.5c0,2.5,4.2,2.2,4.2,4.3c0,1-0.8,1.5-1.8,1.5
	c-0.8,0-1.5-0.2-2.4-0.6l-0.1,1.3L244.8,32.5z M244.8,32.5"/>
<path class="st0" d="M258.4,31.1c-0.5,0.3-1.6,0.6-2.4,0.6c-1.9,0-2.8-1.4-2.8-3.2h6V28c0-2.4-1.2-4.5-3.6-4.5c-2.2,0-3.9,2-3.9,4.7
	c0,2.6,1.2,4.7,4.2,4.7c0.8,0,1.8-0.2,2.7-0.5V31L258.4,31.1z M253.3,27.6c0-1.4,0.8-3,2.4-3c1.6,0,2.1,1.4,2.1,2.8h-4.5V27.6z
	 M253.3,27.6"/>
<path class="st0" d="M261.5,32.7h1.2v-4.9c0-1.5,0.5-3.1,2.5-3.1c1.5,0,1.9,1,1.9,2.6v5.4h1.4V27c0-1.9-1-3.5-3.1-3.5
	c-1.8,0-2.6,1-3,1.8h0.2v-1.6h-1.3c0.1,0.8,0.1,1.5,0.1,2.2v6.8H261.5z M261.5,32.7"/>
<path class="st0" d="M270.5,32.5c0.8,0.3,1.6,0.4,2.5,0.4c1.3,0,3.2-0.7,3.2-2.6c0-2.9-4.3-2.7-4.3-4.3c0-1.1,0.6-1.4,1.8-1.4
	c0.6,0,1.4,0.2,2.1,0.5l0.1-1.2c-0.9-0.3-1.8-0.5-2.3-0.5c-1.5,0-3,0.8-3,2.5c0,2.5,4.2,2.2,4.2,4.3c0,1-0.8,1.5-1.8,1.5
	c-0.8,0-1.5-0.2-2.4-0.6l-0.1,1.3L270.5,32.5z M270.5,32.5"/>
<path class="st0" d="M283.7,23.9c-0.3-0.1-1.1-0.3-2.1-0.3c-2.6,0-4.5,2-4.5,4.7c0,2.4,1.5,4.7,4.4,4.7c0.8,0,1.5,0,2.4-0.3
	l-0.1-1.2c-0.8,0.3-1.4,0.4-2.1,0.4c-2,0-3-1.6-3-3.6c0-2.1,1-3.6,3.2-3.6c0.6,0,1.3,0.2,2,0.5l0.1-1.3L283.7,23.9z M283.7,23.9"/>
<path class="st0" d="M285.7,32.7h1.2v-4.8c0-1.5,0.5-3.3,2.5-3.3c1.8,0,1.9,1.2,1.9,2.7v5.3h1.4v-5.3c0-2.2-0.8-3.8-3.1-3.8
	c-1.3,0-2.4,0.8-2.9,1.7h0.2v-5.6h-1.4v13.1H285.7z M285.7,32.7"/>
<path class="st0" d="M300.2,32.7h1.2c-0.1-0.7-0.1-1.2-0.1-1.9v-3.9c0-2.3-1-3.4-3.2-3.4c-0.8,0-1.9,0.3-2.7,0.7v1.3
	c1-0.7,1.8-0.9,2.7-0.9c1.5,0,1.8,0.7,1.8,2.2v0.3h0c-2.3,0-5.6,0.2-5.6,3.2c0,0.8,0.5,2.6,3,2.6c1.1,0,2.4-0.7,2.9-1.6h-0.2v1.4
	H300.2z M300,28.7c0,0.9,0.1,3.1-2.4,3.1c-1,0-1.7-0.3-1.7-1.5c0-1.9,2.1-2,4-2h0.2V28.7z M300,28.7"/>
<path class="st0" d="M304.7,32.7h1.2v-7.8h2v-1.1h-2v-0.6c0-1.1-0.3-2.6,1.2-2.6c0.3,0,0.5,0.1,1,0.3l0.1-1.2
	c-0.3-0.1-0.8-0.2-1.2-0.2c-2.3,0-2.5,2-2.5,3.8v0.5h-1.8v1.1h1.8v7.8H304.7z M304.7,32.7"/>
<path class="st0" d="M313.7,23.7h-1.9v-2.5l-1.4,0.5v2.1h-1.7v1.1h1.7v5c0,1.6,0.2,3,2.2,3c0.5,0,1.1-0.1,1.5-0.3l-0.1-1.1
	c-0.4,0.2-0.7,0.3-1.1,0.3c-0.9,0-1-0.6-1-1.3v-5.6h2v-1.1H313.7z M313.7,23.7"/>
<path class="st0" d="M114,2.3h1.7c2.7,0,4.7,1.1,4.7,4.8c0,3.7-2.1,5-5.5,5h-0.8V2.3H114z M112.8,13.3h2.1c4,0,7-1.8,7-6.1
	c0-3.5-1.8-6.1-6.1-6.1h-3.1v12.2H112.8z M112.8,13.3"/>
<path class="st0" d="M130,11.8c-0.5,0.3-1.6,0.6-2.4,0.6c-1.9,0-2.8-1.4-2.8-3.2h6V8.6c0-2.4-1.2-4.5-3.6-4.5c-2.2,0-3.9,2-3.9,4.7
	c0,2.6,1.2,4.7,4.2,4.7c0.8,0,1.8-0.2,2.7-0.5v-1.4L130,11.8z M124.9,8.2c0-1.4,0.8-3,2.4-3c1.6,0,2.1,1.4,2.1,2.8h-4.5V8.2z
	 M124.9,8.2"/>
<path class="st0" d="M139.7,4.3h-1.2v5c0,1.5-0.5,3.1-2.4,3.1c-1.5,0-2-1-2-2.6V4.3h-1.4V10c0,1.9,1,3.5,3.2,3.5
	c1.8,0,2.6-1.1,2.9-1.8h-0.2v1.6h1.3c-0.1-0.8-0.1-1.5-0.1-2.2V4.3H139.7z M139.7,4.3"/>
<path class="st0" d="M146.4,4.3h-1.9V1.8l-1.4,0.5v2.1h-1.7v1.1h1.7v5c0,1.6,0.2,3,2.2,3c0.5,0,1.1-0.1,1.5-0.3l-0.1-1.1
	c-0.4,0.2-0.7,0.3-1.1,0.3c-0.9,0-1-0.6-1-1.3V5.5h2V4.3H146.4z M146.4,4.3"/>
<path class="st0" d="M148.2,13.1c0.8,0.3,1.6,0.4,2.5,0.4c1.3,0,3.2-0.7,3.2-2.6c0-2.9-4.3-2.7-4.3-4.3c0-1.1,0.6-1.4,1.8-1.4
	c0.6,0,1.4,0.2,2.1,0.5l0.1-1.2c-0.9-0.3-1.8-0.5-2.3-0.5c-1.5,0-3,0.8-3,2.5c0,2.5,4.2,2.2,4.2,4.3c0,1-0.8,1.5-1.8,1.5
	c-0.8,0-1.5-0.2-2.4-0.6l-0.1,1.3L148.2,13.1z M148.2,13.1"/>
<path class="st0" d="M161.7,4.5c-0.3-0.1-1.1-0.3-2.1-0.3c-2.6,0-4.5,2-4.5,4.7c0,2.4,1.5,4.7,4.4,4.7c0.8,0,1.5,0,2.4-0.3l-0.1-1.2
	c-0.8,0.3-1.4,0.4-2.1,0.4c-2,0-3-1.6-3-3.6c0-2.1,1-3.6,3.2-3.6c0.6,0,1.3,0.2,2,0.5l0.1-1.3L161.7,4.5z M161.7,4.5"/>
<path class="st0" d="M163.7,13.3h1.2V8.5c0-1.5,0.5-3.3,2.5-3.3c1.8,0,1.9,1.2,1.9,2.7v5.3h1.4V8c0-2.2-0.8-3.8-3.1-3.8
	c-1.3,0-2.4,0.8-2.9,1.7h0.2V0.2h-1.4v13.1H163.7z M163.7,13.3"/>
<path class="st0" d="M179.3,11.8c-0.5,0.3-1.6,0.6-2.4,0.6c-1.9,0-2.7-1.4-2.7-3.2h6V8.6c0-2.4-1.2-4.5-3.6-4.5
	c-2.2,0-3.9,2-3.9,4.7c0,2.6,1.3,4.7,4.2,4.7c0.8,0,1.8-0.2,2.7-0.5v-1.4L179.3,11.8z M174.1,8.2c0-1.4,0.8-3,2.4-3
	c1.6,0,2.1,1.4,2.1,2.8h-4.5V8.2z M174.1,8.2"/>
<path class="st0" d="M195.5,11.9c-0.6,0.3-1.7,0.4-2.4,0.4c-3.2,0-4.7-2-4.7-5.1c0-3,1.6-5.1,4.7-5.1c1,0,2,0.1,3.2,0.8l0.2-1.3
	c-0.9-0.4-2.5-0.6-3.4-0.6c-3.7,0-6.2,2.7-6.2,6.3c0,3.7,2.4,6.3,6.2,6.3c1.3,0,2.5-0.2,3.9-0.8V6.6h-4.3v1.2h2.8L195.5,11.9
	L195.5,11.9z M195.5,11.9"/>
<path class="st0" d="M205.4,11.8c-0.5,0.3-1.6,0.6-2.4,0.6c-1.9,0-2.8-1.4-2.8-3.2h6V8.6c0-2.4-1.2-4.5-3.6-4.5
	c-2.2,0-3.9,2-3.9,4.7c0,2.6,1.3,4.7,4.2,4.7c0.8,0,1.8-0.2,2.7-0.5v-1.4L205.4,11.8z M200.3,8.2c0-1.4,0.8-3,2.4-3
	c1.6,0,2.1,1.4,2.1,2.8h-4.5V8.2z M200.3,8.2"/>
<path class="st0" d="M207.6,13.1c0.8,0.3,1.6,0.4,2.5,0.4c1.3,0,3.2-0.7,3.2-2.6c0-2.9-4.3-2.7-4.3-4.3c0-1.1,0.6-1.4,1.8-1.4
	c0.6,0,1.4,0.2,2.1,0.5l0.1-1.2c-0.9-0.3-1.8-0.5-2.3-0.5c-1.5,0-3,0.8-3,2.5c0,2.5,4.2,2.2,4.2,4.3c0,1-0.8,1.5-1.8,1.5
	c-0.8,0-1.5-0.2-2.4-0.6l-0.1,1.3L207.6,13.1z M207.6,13.1"/>
<path class="st0" d="M221.1,11.8c-0.5,0.3-1.6,0.6-2.4,0.6c-1.9,0-2.8-1.4-2.8-3.2h6V8.6c0-2.4-1.2-4.5-3.6-4.5
	c-2.2,0-3.9,2-3.9,4.7c0,2.6,1.3,4.7,4.2,4.7c0.8,0,1.8-0.2,2.7-0.5v-1.4L221.1,11.8z M215.9,8.2c0-1.4,0.8-3,2.4-3
	c1.6,0,2.1,1.4,2.1,2.8h-4.5V8.2z M215.9,8.2"/>
<path class="st0" d="M224.1,13.3h1.2V0.2h-1.4v13.1H224.1z M224.1,13.3"/>
<path class="st0" d="M228.1,13.3h1.2V0.2h-1.4v13.1H228.1z M228.1,13.3"/>
<path class="st0" d="M231.3,13.1c0.8,0.3,1.6,0.4,2.5,0.4c1.3,0,3.2-0.7,3.2-2.6c0-2.9-4.3-2.7-4.3-4.3c0-1.1,0.6-1.4,1.8-1.4
	c0.6,0,1.4,0.2,2.1,0.5l0.1-1.2c-0.9-0.3-1.8-0.5-2.3-0.5c-1.5,0-3,0.8-3,2.5c0,2.5,4.2,2.2,4.2,4.3c0,1-0.8,1.5-1.8,1.5
	c-0.8,0-1.5-0.2-2.4-0.6l-0.1,1.3L231.3,13.1z M231.3,13.1"/>
<path class="st0" d="M244.8,4.5c-0.3-0.1-1.1-0.3-2.1-0.3c-2.6,0-4.5,2-4.5,4.7c0,2.4,1.5,4.7,4.4,4.7c0.8,0,1.5,0,2.4-0.3l-0.1-1.2
	c-0.8,0.3-1.4,0.4-2.1,0.4c-2,0-3-1.6-3-3.6c0-2.1,1-3.6,3.2-3.6c0.6,0,1.3,0.2,2,0.5l0.1-1.3L244.8,4.5z M244.8,4.5"/>
<path class="st0" d="M246.8,13.3h1.2V8.5c0-1.5,0.5-3.3,2.5-3.3c1.8,0,1.9,1.2,1.9,2.7v5.3h1.4V8c0-2.2-0.8-3.8-3.1-3.8
	c-1.3,0-2.4,0.8-2.9,1.7h0.2V0.2h-1.4v13.1H246.8z M246.8,13.3"/>
<path class="st0" d="M261.6,13.3h1.2c-0.1-0.7-0.1-1.2-0.1-1.9V7.5c0-2.3-1-3.4-3.2-3.4c-0.8,0-1.9,0.3-2.7,0.7v1.3
	c1-0.7,1.8-0.9,2.7-0.9c1.5,0,1.8,0.7,1.8,2.2v0.3h0c-2.3,0-5.6,0.3-5.6,3.2c0,0.8,0.5,2.6,3,2.6c1.1,0,2.4-0.7,2.9-1.6h-0.2v1.4
	H261.6z M261.3,9.3c0,0.9,0.1,3.1-2.4,3.1c-1,0-1.7-0.3-1.7-1.5c0-1.9,2.1-2,4-2h0.2V9.3z M261.3,9.3"/>
<path class="st0" d="M266.1,13.3h1.2V5.5h2V4.3h-2V3.7c0-1.1-0.3-2.6,1.2-2.6c0.3,0,0.5,0.1,1,0.3l0.1-1.2c-0.3-0.1-0.8-0.2-1.2-0.2
	c-2.3,0-2.5,2-2.5,3.8v0.5h-1.8v1.1h1.8v7.8H266.1z M266.1,13.3"/>
<path class="st0" d="M275,4.3h-1.9V1.8l-1.4,0.5v2.1h-1.7v1.1h1.7v5c0,1.6,0.2,3,2.2,3c0.5,0,1.1-0.1,1.5-0.3l-0.1-1.1
	c-0.4,0.2-0.7,0.3-1.1,0.3c-0.9,0-1-0.6-1-1.3V5.5h2V4.3H275z M275,4.3"/>
<path class="st1" d="M65.4,15.4H61l0-4.3h4.5v-3c0-4.3,2.6-7.4,7.4-7.4c1.5,0,3.2,0.2,4.4,0.5l-0.5,4.7c-0.5-0.3-1.3-0.8-2.6-0.8
	c-2,0-2.8,1.6-2.8,3.3v2.7h5.3v4.3h-5.3l0,17.4l-5.9,0L65.4,15.4"/>
<path class="st2" d="M56.5,2c-2.7-0.8-5.6-1.3-9.2-1.3c-10.7,0-17.2,6-17.2,16.8c0,10.6,7.1,15.7,17.2,15.7c3.4,0,6.8-0.7,10.2-1.6
	V14.7H44.8v5h6.7v8.2c-1.1,0.3-2.4,0.5-4.1,0.5c-6.7,0-10.7-4.8-10.7-11.2c0-6.4,4-11.4,11.4-11.4c2.5,0,5.7,0.5,8.1,1.7L56.5,2z
	 M56.5,2"/>
<path class="st3" d="M0,32.7h8.6c9.6,0,18.1-3.2,18.1-15.7c0-12.5-8.5-15.7-18.1-15.7H0V32.7z M6.3,6.2h3.5
	c5.3,0,10.4,3.9,10.4,10.8c0,6.8-5.1,10.8-10.4,10.8H6.3V6.2z M6.3,6.2"/>
<path class="st4" d="M82.2,32.7h18.6v-5H88.5v-8.8h11.2v-5H88.5V6.2h12.3v-5H82.2V32.7z M82.2,32.7"/>
<path class="st5" d="M112.5,63.2c0.6,0.3,1.5,0.5,2.7,0.5c1.9,0,4.1-1,4.1-3.5c0-3.5-5.5-3.5-5.5-5.9c0-1.5,1.2-2,2.5-2
	c0.8,0,1.5,0.1,2.3,0.5l0.2-1.3c-1-0.4-1.9-0.5-2.5-0.5c-2.1,0-4,1.3-4,3.2c0,3.2,5.5,3.4,5.5,5.8c0,1.7-1.1,2.4-2.5,2.4
	c-1.1,0-1.9-0.2-2.8-0.8l-0.1,1.5L112.5,63.2z M112.5,63.2"/>
<path class="st5" d="M127.4,61.9c-0.5,0.3-1.6,0.6-2.4,0.6c-1.9,0-2.8-1.4-2.8-3.2h6v-0.6c0-2.4-1.2-4.5-3.6-4.5
	c-2.2,0-3.9,2-3.9,4.7c0,2.6,1.2,4.7,4.2,4.7c0.8,0,1.8-0.2,2.7-0.5v-1.4L127.4,61.9z M122.3,58.4c0-1.4,0.8-3,2.4-3
	c1.6,0,2.1,1.4,2.1,2.8h-4.5V58.4z M122.3,58.4"/>
<path class="st5" d="M130.4,63.5h1.2v-4.6l-0.2,0.1l4.3,4.5h1.8l-4.9-5l4.4-4h-1.7l-3.7,3.4v-7.5h-1.4v13.1H130.4z M130.4,63.5"/>
<path class="st5" d="M143,54.5h-1.9v-2.5l-1.4,0.5v2.1H138v1.1h1.7v5c0,1.6,0.2,3,2.2,3c0.5,0,1.1-0.1,1.5-0.3l-0.1-1.1
	c-0.4,0.2-0.7,0.3-1.1,0.3c-0.9,0-1-0.6-1-1.3v-5.6h2v-1.1H143z M143,54.5"/>
<path class="st5" d="M145.1,63.5h1.2v-9h-1.4v9H145.1z M146.2,50.7h-1.2v1.6h1.4v-1.6H146.2z M146.2,50.7"/>
<path class="st5" d="M148.2,59c0,2.4,1.4,4.7,4.3,4.7c2.8,0,4.2-2.3,4.2-4.7s-1.4-4.7-4.2-4.7C149.6,54.3,148.2,56.6,148.2,59
	L148.2,59z M149.7,59c0-2,0.9-3.6,2.8-3.6c1.9,0,2.7,1.5,2.7,3.6c0,2-0.9,3.6-2.7,3.6C150.6,62.6,149.7,61,149.7,59L149.7,59z
	 M149.7,59"/>
<path class="st5" d="M158.8,63.5h1.2v-4.9c0-1.5,0.5-3.1,2.5-3.1c1.5,0,1.9,1,1.9,2.6v5.4h1.4v-5.7c0-1.9-1-3.5-3.1-3.5
	c-1.8,0-2.6,1-3,1.8h0.2v-1.6h-1.3c0.1,0.8,0.1,1.5,0.1,2.2v6.8H158.8z M158.8,63.5"/>
<path class="st5" d="M173.6,63.5h1.3V52.6h-0.2l4.5,10.8h1.2l4.4-10.8h-0.2v10.8h1.5V51.3h-2l-4.4,10.6l0.3,0l-4.4-10.7h-2.1v12.2
	H173.6z M173.6,63.5"/>
<path class="st5" d="M194.7,61.9c-0.5,0.3-1.6,0.6-2.4,0.6c-1.9,0-2.7-1.4-2.7-3.2h6v-0.6c0-2.4-1.2-4.5-3.6-4.5
	c-2.2,0-3.9,2-3.9,4.7c0,2.6,1.3,4.7,4.2,4.7c0.8,0,1.8-0.2,2.7-0.5v-1.4L194.7,61.9z M189.6,58.4c0-1.4,0.8-3,2.4-3
	c1.6,0,2.1,1.4,2.1,2.8h-4.5V58.4z M189.6,58.4"/>
<path class="st5" d="M204.7,50.4h-1.2V56h0.2c-0.1-0.3-1.1-1.7-2.8-1.7c-2.6,0-3.8,2-3.8,4.7c0,2.6,1.4,4.7,3.8,4.7
	c1.3,0,2.2-0.5,2.8-1.6h-0.2v1.4h1.4V50.4H204.7z M198.5,59c0-1.7,0.4-3.6,2.5-3.6c1.9,0,2.5,2,2.5,3.6c0,1.6-0.5,3.6-2.5,3.6
	C198.9,62.6,198.5,60.7,198.5,59L198.5,59z M198.5,59"/>
<path class="st5" d="M207.5,63.5h1.2v-9h-1.4v9H207.5z M208.5,50.7h-1.2v1.6h1.4v-1.6H208.5z M208.5,50.7"/>
<path class="st5" d="M217.2,61.9c-0.5,0.3-1.6,0.6-2.4,0.6c-1.9,0-2.8-1.4-2.8-3.2h6v-0.6c0-2.4-1.2-4.5-3.6-4.5
	c-2.2,0-3.9,2-3.9,4.7c0,2.6,1.2,4.7,4.2,4.7c0.8,0,1.8-0.2,2.7-0.5v-1.4L217.2,61.9z M212.1,58.4c0-1.4,0.8-3,2.4-3
	c1.6,0,2.1,1.4,2.1,2.8h-4.5V58.4z M212.1,58.4"/>
<path class="st5" d="M220.2,63.5h1.2v-4.9c0-1.5,0.5-3.1,2.5-3.1c1.5,0,1.9,1,1.9,2.6v5.4h1.4v-5.7c0-1.9-1-3.5-3.1-3.5
	c-1.8,0-2.6,1-3,1.8h0.2v-1.6H220c0.1,0.8,0.1,1.5,0.1,2.2v6.8H220.2z M220.2,63.5"/>
<path class="st5" d="M229.8,67.1h1.2V62h-0.2c0.5,1,1.5,1.7,2.8,1.7c2.4,0,3.8-2.1,3.8-4.7c0-2.7-1.2-4.7-3.8-4.7
	c-1.9,0-2.6,1.4-2.9,1.8h0.2l0.1-1.6h-1.4v12.6H229.8z M236,59c0,1.7-0.4,3.6-2.4,3.6c-1.9,0-2.5-2-2.5-3.6c0-1.6,0.5-3.6,2.5-3.6
	C235.6,55.4,236,57.3,236,59L236,59z M236,59"/>
<path class="st5" d="M243.5,53.2h1.4v-1.6h-1.6v1.6H243.5z M240.5,53.2h1.4v-1.6h-1.6v1.6H240.5z M244.7,63.5h1.2
	c-0.1-0.7-0.1-1.2-0.1-1.9v-3.9c0-2.3-1-3.4-3.2-3.4c-0.8,0-1.9,0.3-2.7,0.7v1.3c1-0.7,1.8-0.9,2.7-0.9c1.5,0,1.8,0.7,1.8,2.2v0.3h0
	c-2.3,0-5.6,0.3-5.6,3.2c0,0.8,0.5,2.6,3,2.6c1.1,0,2.4-0.7,2.9-1.6h-0.2v1.4H244.7z M244.5,59.5c0,0.9,0.1,3.1-2.4,3.1
	c-1,0-1.7-0.3-1.7-1.5c0-1.9,2.1-2,4-2h0.2V59.5z M244.5,59.5"/>
<path class="st5" d="M255.4,50.4h-1.2V56h0.2c-0.1-0.3-1.1-1.7-2.8-1.7c-2.6,0-3.8,2-3.8,4.7c0,2.6,1.4,4.7,3.8,4.7
	c1.3,0,2.2-0.5,2.8-1.6h-0.2v1.4h1.4V50.4H255.4z M249.3,59c0-1.7,0.4-3.6,2.5-3.6c1.9,0,2.5,2,2.5,3.6c0,1.6-0.5,3.6-2.5,3.6
	C249.7,62.6,249.3,60.7,249.3,59L249.3,59z M249.3,59"/>
<path class="st5" d="M263.2,63.5h1.2c-0.1-0.7-0.1-1.2-0.1-1.9v-3.9c0-2.3-1-3.4-3.2-3.4c-0.8,0-1.9,0.3-2.7,0.7v1.3
	c1-0.7,1.8-0.9,2.7-0.9c1.5,0,1.8,0.7,1.8,2.2v0.3h0c-2.3,0-5.6,0.3-5.6,3.2c0,0.8,0.5,2.6,3,2.6c1.1,0,2.4-0.7,2.9-1.6h-0.2v1.4
	H263.2z M263,59.5c0,0.9,0.1,3.1-2.4,3.1c-1,0-1.7-0.3-1.7-1.5c0-1.9,2.1-2,4-2h0.2V59.5z M263,59.5"/>
<g>
	<path class="st5" d="M267.8,59c0-1.7,0.4-3.6,2.5-3.6c2,0,2.5,1.5,2.5,3.6c0,1.6-0.6,3.3-2.5,3.3C268.3,62.3,267.8,60.7,267.8,59
		L267.8,59z M273.9,54.5h-1.2v1h0.2c-0.8-1-1.6-1.2-2.8-1.2c-2.6,0-3.8,2-3.8,4.7c0,1.9,1,4.5,3.9,4.5c1.1,0,2.2-0.5,2.7-1.7h-0.2
		c0,2.4-0.1,4.3-2.9,4.3c-1,0-1.8-0.2-2.7-0.7l-0.1,1.3c0.6,0.2,1.7,0.5,2.8,0.5c3,0,4.3-2.1,4.3-4.5v-8.2H273.9z M273.9,54.5"/>
</g>
<path class="st5" d="M275.9,59c0,2.4,1.4,4.7,4.3,4.7s4.2-2.3,4.2-4.7c0-2.4-1.4-4.7-4.2-4.7S275.9,56.6,275.9,59L275.9,59z
	 M277.4,59c0-2,0.9-3.6,2.8-3.6c1.9,0,2.7,1.5,2.7,3.6c0,2-0.9,3.6-2.7,3.6C278.2,62.6,277.4,61,277.4,59L277.4,59z M277.4,59"/>
<g>
	<path class="st5" d="M287.3,59c0-1.7,0.4-3.6,2.5-3.6c2,0,2.5,1.5,2.5,3.6c0,1.6-0.6,3.3-2.5,3.3C287.8,62.3,287.3,60.7,287.3,59
		L287.3,59z M293.4,54.5h-1.2v1h0.2c-0.8-1-1.6-1.2-2.8-1.2c-2.6,0-3.8,2-3.8,4.7c0,1.9,1,4.5,3.9,4.5c1.1,0,2.2-0.5,2.7-1.7h-0.2
		c0,2.4-0.1,4.3-2.9,4.3c-1,0-1.8-0.2-2.7-0.7l-0.1,1.3c0.6,0.2,1.7,0.5,2.8,0.5c3,0,4.3-2.1,4.3-4.5v-8.2H293.4z M293.4,54.5"/>
</g>
<path class="st5" d="M296.2,63.5h1.2v-9H296v9H296.2z M297.3,50.7H296v1.6h1.4v-1.6H297.3z M297.3,50.7"/>
<path class="st5" d="M300.2,63.5h1.2v-4.6l-0.2,0.1l4.3,4.5h1.8l-4.9-5l4.4-4h-1.7l-3.7,3.4v-7.5H300v13.1H300.2z M300.2,63.5"/>
</svg>
