<?xml version="1.0" encoding="UTF-8" standalone="no"?>
<svg
   xmlns:dc="http://purl.org/dc/elements/1.1/"
   xmlns:cc="http://creativecommons.org/ns#"
   xmlns:rdf="http://www.w3.org/1999/02/22-rdf-syntax-ns#"
   xmlns:svg="http://www.w3.org/2000/svg"
   xmlns="http://www.w3.org/2000/svg"
   xmlns:sodipodi="http://sodipodi.sourceforge.net/DTD/sodipodi-0.dtd"
   xmlns:inkscape="http://www.inkscape.org/namespaces/inkscape"
   id="Ebene_1"
   data-name="Ebene 1"
   viewBox="0 0 65.693948 45.000001"
   version="1.1"
   sodipodi:docname="logo_medienpaedagogik_weiss.svg"
   width="65.693947"
   height="45"
   inkscape:version="0.92.5 (2060ec1f9f, 2020-04-08)">
  <metadata
     id="metadata131">
    <rdf:RDF>
      <cc:Work
         rdf:about="">
        <dc:format>image/svg+xml</dc:format>
        <dc:type
           rdf:resource="http://purl.org/dc/dcmitype/StillImage" />
        <dc:title>logo_medienpaedagogik_weiss</dc:title>
      </cc:Work>
    </rdf:RDF>
  </metadata>
  <defs
     id="defs129" />
  <sodipodi:namedview
     pagecolor="#ffffff"
     bordercolor="#666666"
     borderopacity="1"
     objecttolerance="10"
     gridtolerance="10"
     guidetolerance="10"
     inkscape:pageopacity="0"
     inkscape:pageshadow="2"
     inkscape:window-width="2560"
     inkscape:window-height="1263"
     id="namedview127"
     showgrid="false"
     fit-margin-top="0"
     fit-margin-left="0"
     fit-margin-right="0"
     fit-margin-bottom="0"
     inkscape:pagecheckerboard="true"
     inkscape:zoom="4.0150905"
     inkscape:cx="226.81085"
     inkscape:cy="66.340644"
     inkscape:window-x="0"
     inkscape:window-y="25"
     inkscape:window-maximized="1"
     inkscape:current-layer="Ebene_1" />
  <title
     id="title2">logo_medienpaedagogik_weiss</title>
  <path
     d="m 3.4047291,0 2.5332483,7.44006 h 0.029771 L 8.3629672,0 H 11.710861 V 10.82584 H 9.4834425 V 3.15032 H 9.4536715 L 6.8013389,10.82043 H 4.9663576 L 2.3140249,3.2261 h -0.029771 v 7.59433 H 0.0568357 V 0 Z"
     style="fill:#757575;fill-opacity:1;stroke-width:0.27064618"
     id="path4"
     inkscape:connector-curvature="0" />
  <path
     d="m 15.81927,8.94215 a 1.9297073,1.9297073 0 0 0 1.393828,0.46821 1.9188815,1.9188815 0 0 0 1.120475,-0.32477 1.353231,1.353231 0 0 0 0.576476,-0.69015 h 1.894524 q -0.454686,1.41007 -1.401948,2.01631 a 4.119235,4.119235 0 0 1 -2.273428,0.60625 4.5170849,4.5170849 0 0 1 -1.66718,-0.295 3.4913359,3.4913359 0 0 1 -1.258505,-0.84171 3.7890467,3.7890467 0 0 1 -0.7957,-1.30452 4.7796117,4.7796117 0 0 1 -0.270646,-1.66718 4.5766271,4.5766271 0 0 1 0.286885,-1.63741 3.7890467,3.7890467 0 0 1 2.083976,-2.1814 4.0326282,4.0326282 0 0 1 1.623877,-0.31937 3.7349174,3.7349174 0 0 1 1.742961,0.38703 3.4723906,3.4723906 0 0 1 1.220615,1.03928 4.3086874,4.3086874 0 0 1 0.690147,1.48585 5.6267343,5.6267343 0 0 1 0.151562,1.74296 h -5.648386 q 0.05413,1.03928 0.530467,1.51562 z M 18.255086,4.8175 a 1.5183251,1.5183251 0 0 0 -1.177311,-0.41138 1.8782846,1.8782846 0 0 0 -0.857949,0.17321 1.599519,1.599519 0 0 0 -0.541292,0.43303 1.5616285,1.5616285 0 0 0 -0.289592,0.5413 2.4358157,2.4358157 0 0 0 -0.09743,0.51693 h 3.496749 A 2.4926514,2.4926514 0 0 0 18.252381,4.8175 Z"
     style="fill:#757575;fill-opacity:1;stroke-width:0.27064618"
     id="path6"
     inkscape:connector-curvature="0" />
  <path
     d="M 27.716876,9.81904 A 2.2301246,2.2301246 0 0 1 26.723605,10.73653 3.30459,3.30459 0 0 1 25.33519,11.00718 3.3505998,3.3505998 0 0 1 23.7898,10.66616 3.1178441,3.1178441 0 0 1 22.690977,9.74055 4.2870357,4.2870357 0 0 1 22.038719,8.40085 5.6537989,5.6537989 0 0 1 21.819496,6.84193 5.3046653,5.3046653 0 0 1 22.038719,5.31819 4.013683,4.013683 0 0 1 22.690977,4.0245 a 3.163854,3.163854 0 0 1 2.60091,-1.24226 3.0826601,3.0826601 0 0 1 1.326166,0.29771 2.2788409,2.2788409 0 0 1 0.990565,0.87148 h 0.03248 V 0 h 2.16517 V 10.82584 H 27.76018 V 9.81904 Z M 27.624856,5.9488 a 2.2571892,2.2571892 0 0 0 -0.311243,-0.79029 1.7321356,1.7321356 0 0 0 -0.568357,-0.54129 1.6725935,1.6725935 0 0 0 -0.879601,-0.2111 1.7592002,1.7592002 0 0 0 -0.893132,0.2111 1.6807128,1.6807128 0 0 0 -0.584596,0.56024 2.4737062,2.4737062 0 0 0 -0.316656,0.7957 4.3682295,4.3682295 0 0 0 -0.100139,0.93373 4.013683,4.013683 0 0 0 0.108259,0.90937 2.4655868,2.4655868 0 0 0 0.341014,0.81194 1.8728716,1.8728716 0 0 0 0.590008,0.57647 1.6022254,1.6022254 0 0 0 0.855242,0.21923 1.7186033,1.7186033 0 0 0 0.88772,-0.21111 1.6238771,1.6238771 0 0 0 0.568357,-0.56835 2.5521936,2.5521936 0 0 0 0.303124,-0.81194 4.8716314,4.8716314 0 0 0 0.09202,-0.93915 4.722776,4.722776 0 0 0 -0.09202,-0.94455 z"
     style="fill:#757575;fill-opacity:1;stroke-width:0.27064618"
     id="path8"
     inkscape:connector-curvature="0" />
  <path
     d="M 31.413903,1.77273 V 0 h 2.16517 v 1.77273 z m 2.16517,1.21249 v 7.84874 h -2.16517 V 2.98522 Z"
     style="fill:#757575;fill-opacity:1;stroke-width:0.27064618"
     id="path10"
     inkscape:connector-curvature="0" />
  <path
     d="m 37.506149,8.94215 a 2.2138858,2.2138858 0 0 0 2.51701,0.14344 1.3802956,1.3802956 0 0 0 0.576476,-0.69015 h 1.894523 q -0.454685,1.41007 -1.396534,2.01631 A 4.1057027,4.1057027 0 0 1 38.824196,11.018 4.5279108,4.5279108 0 0 1 37.157016,10.723 3.4561519,3.4561519 0 0 1 35.912043,9.88129 3.7890467,3.7890467 0 0 1 35.100104,8.57677 4.7173631,4.7173631 0 0 1 34.829458,6.90959 a 4.5766271,4.5766271 0 0 1 0.270646,-1.63741 3.802579,3.802579 0 0 1 2.083976,-2.1814 4.0326282,4.0326282 0 0 1 1.623877,-0.31937 3.7295045,3.7295045 0 0 1 1.742962,0.38703 3.4480325,3.4480325 0 0 1 1.220614,1.03928 4.2112547,4.2112547 0 0 1 0.690148,1.48585 5.5455404,5.5455404 0 0 1 0.151562,1.74296 h -5.63756 c 0.01895,0.69556 0.208397,1.20167 0.530466,1.51562 z M 39.941965,4.8175 A 1.5156187,1.5156187 0 0 0 38.764654,4.40612 1.8647523,1.8647523 0 0 0 37.909412,4.57933 1.6238771,1.6238771 0 0 0 37.36812,5.01236 1.5535091,1.5535091 0 0 0 37.081235,5.55366 2.4628803,2.4628803 0 0 0 36.981096,6.07059 h 3.502161 A 2.5170096,2.5170096 0 0 0 39.939258,4.8175 Z"
     style="fill:#757575;fill-opacity:1;stroke-width:0.27064618"
     id="path12"
     inkscape:connector-curvature="0" />
  <path
     d="m 45.888062,2.98522 v 1.08259 h 0.03789 a 2.4737062,2.4737062 0 0 1 1.082585,-0.98515 3.088073,3.088073 0 0 1 1.320753,-0.30042 3.6428977,3.6428977 0 0 1 1.41548,0.23546 2.0948015,2.0948015 0 0 1 0.871481,0.65226 2.484532,2.484532 0 0 1 0.451979,1.0068 6.2789916,6.2789916 0 0 1 0.12991,1.32617 v 4.8175 H 49.03297 V 6.39537 A 2.7687105,2.7687105 0 0 0 48.737966,4.94741 C 48.534981,4.62805 48.177728,4.47107 47.655381,4.47107 q -0.876893,0 -1.272037,0.52235 c -0.270646,0.34913 -0.395143,0.9202 -0.395143,1.7186 v 4.10841 H 43.841976 V 2.98522 Z"
     style="fill:#757575;fill-opacity:1;stroke-width:0.27064618"
     id="path14"
     inkscape:connector-curvature="0" />
  <path
     d="m 2.5873776,24.43393 c 0,1.08259 0.2544074,1.23686 1.5047928,1.28016 V 26.0118 C 3.5752362,25.982 2.7118748,25.9685 1.9053492,25.9685 c -0.8065257,0 -1.49126053,0.0135 -1.89452335,0.0433 V 25.71409 C 0.99868444,25.68159 1.207082,25.51652 1.207082,24.43393 v -7.3724 C 1.207082,15.97895 1.0095103,15.82468 0,15.78138 v -0.29772 c 0.41408867,0.0298 1.1637786,0.0433 1.8160359,0.0433 0.9391423,0 1.8945234,-0.0298 2.2463634,-0.0298 2.3979253,0 3.591475,1.20708 3.591475,2.93651 0,1.43984 -0.8362968,3.32895 -3.9189569,3.32895 H 2.5873776 Z m 0,-7.38322 v 4.40612 H 3.591475 c 2.1056273,0 2.5711388,-1.35324 2.5711388,-2.87156 0,-1.86475 -0.6684961,-2.81201 -2.4574674,-2.81201 -0.9201971,0 -1.1177688,0.27064 -1.1177688,1.28827 z"
     style="fill:#757575;fill-opacity:1;stroke-width:0.27064618"
     id="path16"
     inkscape:connector-curvature="0" />
  <path
     d="m 13.267076,18.70977 c 0.470925,0.48175 0.595422,1.03387 0.595422,2.08668 v 4.13547 c 0,0.48175 0.116378,0.70639 0.457392,0.70639 a 1.0013909,1.0013909 0 0 0 0.668496,-0.31395 l 0.167801,0.25441 c -0.414089,0.31395 -0.725332,0.54129 -1.353231,0.54129 -1.039282,0 -1.280157,-0.62519 -1.280157,-1.32346 a 2.6009099,2.6009099 0 0 1 -2.289667,1.32346 c -0.9959775,0 -1.8945229,-0.5034 -1.8945229,-1.66447 0,-1.16108 0.9093712,-1.70237 2.3979249,-2.32756 0.995978,-0.40056 1.780852,-0.6712 1.780852,-1.25851 v -0.9229 c 0,-1.25039 -0.608954,-1.49667 -1.380295,-1.49667 -0.508815,0 -1.134008,0.10014 -1.475022,0.54129 a 0.92019705,0.92019705 0 0 1 0.698267,0.90937 c 0,0.50611 -0.34372,0.81194 -0.874187,0.81194 -0.5304665,0 -0.8119386,-0.38703 -0.8119386,-0.9229 0,-0.43845 0.2706462,-0.77947 0.6982672,-1.06364 A 3.8404694,3.8404694 0 0 1 11.45916,18.16847 c 0.841709,-0.0162 1.466902,0.20028 1.807916,0.5413 z m -2.544074,-2.88509 a 0.86606781,0.86606781 0 1 1 -0.8660677,-0.86336 0.88501304,0.88501304 0 0 1 0.8660677,0.86336 z m 1.794384,5.6565 c -0.159681,0.23817 -0.487163,0.39244 -1.423599,0.84983 -0.654963,0.31125 -1.4344244,0.74969 -1.4344244,1.88911 0,0.89314 0.5088144,1.30722 1.1935494,1.30722 0.595422,0 1.177311,-0.31124 1.678007,-1.12588 z m 1.353231,-5.6565 a 0.86877427,0.86877427 0 0 1 -0.863361,0.86607 0.86065489,0.86065489 0 0 1 -0.857948,-0.86607 0.8741872,0.8741872 0 0 1 0.863361,-0.86336 0.88501304,0.88501304 0 0 1 0.863361,0.86336 z"
     style="fill:#757575;fill-opacity:1;stroke-width:0.27064618"
     id="path18"
     inkscape:connector-curvature="0" />
  <path
     d="m 22.149684,24.40146 c 0,0.89584 0.270646,1.30992 1.134008,1.30992 v 0.31125 c -0.311243,-0.0298 -0.625193,-0.0433 -0.922904,-0.0433 a 4.7092437,4.7092437 0 0 0 -1.548096,0.21111 v -1.32346 a 2.1110403,2.1110403 0 0 1 -2.113747,1.36676 c -1.862045,0 -3.052889,-1.32887 -3.039356,-4.03263 0.01353,-2.70375 1.577867,-4.05969 3.366838,-4.05969 a 1.9973689,1.9973689 0 0 1 1.786265,0.8796 v -2.88238 c 0,-0.89584 -0.270646,-1.30993 -1.134007,-1.30993 v -0.31124 c 0.313949,0.0298 0.625192,0.0433 0.922903,0.0433 a 4.6984179,4.6984179 0 0 0 1.548096,-0.2111 z m -1.336992,-0.3329 v -4.42777 a 1.6238771,1.6238771 0 0 0 -1.664474,-1.14754 c -1.177311,0 -2.056911,1.19084 -2.040672,3.70785 -0.01624,2.40334 0.69556,3.58606 2.024433,3.58606 0.744277,0 1.447957,-0.59271 1.680713,-1.7186 z"
     style="fill:#757575;fill-opacity:1;stroke-width:0.27064618"
     id="path20"
     inkscape:connector-curvature="0" />
  <path
     d="m 28.875242,18.70977 c 0.470924,0.48175 0.595422,1.03387 0.595422,2.08668 v 4.13547 c 0,0.48175 0.116378,0.70639 0.457392,0.70639 a 1.0013909,1.0013909 0 0 0 0.668496,-0.31395 l 0.167801,0.25441 c -0.414089,0.31395 -0.725332,0.54129 -1.353231,0.54129 -1.039282,0 -1.280157,-0.62519 -1.280157,-1.32346 a 2.5982034,2.5982034 0 0 1 -2.289667,1.32346 c -0.995978,0 -1.894523,-0.5034 -1.894523,-1.66447 0,-1.16108 0.909371,-1.70237 2.397925,-2.32756 0.995978,-0.41409 1.780852,-0.6685 1.780852,-1.26392 v -0.91749 c 0,-1.25039 -0.608954,-1.49667 -1.380295,-1.49667 -0.508815,0 -1.134008,0.10014 -1.475022,0.54129 a 0.92019705,0.92019705 0 0 1 0.698267,0.90937 c 0,0.50611 -0.343721,0.81194 -0.874187,0.81194 -0.530467,0 -0.811939,-0.38703 -0.811939,-0.9229 0,-0.43845 0.270646,-0.77947 0.698267,-1.06364 a 3.8404694,3.8404694 0 0 1 2.086683,-0.55754 c 0.849829,-0.0162 1.475021,0.20028 1.807916,0.5413 z m -0.74969,2.77141 c -0.159681,0.23817 -0.487163,0.39244 -1.423599,0.84983 -0.654964,0.31125 -1.447957,0.74157 -1.447957,1.89453 0,0.89313 0.508815,1.30722 1.19355,1.30722 0.595421,0 1.177311,-0.31125 1.678006,-1.12589 z"
     style="fill:#757575;fill-opacity:1;stroke-width:0.27064618"
     id="path22"
     inkscape:connector-curvature="0" />
  <path
     d="m 36.261177,24.38792 c 0.939142,0 1.745668,0.34102 1.745668,1.3803 0,1.32346 -1.280157,3.05289 -4.165245,3.05289 -1.504793,0 -2.993347,-0.45739 -2.993347,-1.35323 0,-0.72533 0.922903,-1.38842 1.867459,-1.81604 h -0.05142 c -0.522347,0 -1.488554,-0.13803 -1.488554,-1.13401 0,-0.63872 0.441153,-1.24226 1.859339,-1.89452 -0.836297,-0.32748 -1.380296,-1.00951 -1.380296,-2.12187 0,-1.62387 1.185431,-2.3465 2.747059,-2.3465 a 4.0353347,4.0353347 0 0 1 1.052814,0.12991 3.2233961,3.2233961 0 0 1 0.525054,-1.32346 1.2693306,1.2693306 0 0 1 1.014923,-0.49528 0.73074472,0.73074472 0 0 1 0.784874,0.77675 0.69556071,0.69556071 0 0 1 -0.7118,0.7118 c -0.541292,0 -0.698267,-0.35454 -0.792993,-0.93643 a 1.7673196,1.7673196 0 0 0 -0.400556,0.72533 3.8458824,3.8458824 0 0 0 -0.151562,0.61978 c 0.863361,0.31936 1.431718,1.00951 1.431718,2.1354 0,1.62388 -1.19355,2.35462 -2.755178,2.35462 A 3.978499,3.978499 0 0 1 33.30031,22.71533 c -0.668496,0.35725 -1.247679,0.71992 -1.247679,1.17731 0,0.32748 0.202985,0.49528 0.7118,0.49528 z m 0.733451,2.07857 c 0,-0.5413 -0.224637,-0.82818 -1.134008,-0.82818 h -2.782243 a 1.7646132,1.7646132 0 0 0 -1.00951,1.50209 c 0,1.00951 1.177311,1.42359 2.16517,1.42359 1.258504,0.003 2.760591,-0.66578 2.760591,-2.0975 z m -3.946022,-5.96775 c 0,1.5914 0.525054,2.08668 1.353231,2.08668 0.828178,0 1.353231,-0.49528 1.353231,-2.08668 0,-1.5914 -0.522347,-2.08668 -1.353231,-2.08668 -0.830883,0 -1.353231,0.49528 -1.353231,2.08668 z"
     style="fill:#757575;fill-opacity:1;stroke-width:0.27064618"
     id="path24"
     inkscape:connector-curvature="0" />
  <path
     d="m 45.509157,22.2011 c 0,2.85532 -1.488554,4.03263 -3.380371,4.03263 -1.891817,0 -3.377664,-1.17731 -3.377664,-4.03263 0,-2.85531 1.488554,-4.05969 3.377664,-4.05969 1.88911,0 3.380371,1.19355 3.380371,4.05969 z m -5.312785,0 c 0,2.65775 0.811939,3.73492 1.932414,3.73492 1.120475,0 1.93512,-1.08258 1.93512,-3.73492 0,-2.65233 -0.811938,-3.75115 -1.93512,-3.75115 -1.123182,0 -1.932414,1.08258 -1.932414,3.75115 z"
     style="fill:#757575;fill-opacity:1;stroke-width:0.27064618"
     id="path26"
     inkscape:connector-curvature="0" />
  <path
     d="m 51.682597,24.38792 c 0.936435,0 1.745668,0.34102 1.745668,1.3803 0,1.32346 -1.280157,3.05289 -4.165245,3.05289 -1.504793,0 -2.996054,-0.45739 -2.996054,-1.35323 0,-0.72533 0.922904,-1.38842 1.867459,-1.81604 h -0.0433 c -0.525054,0 -1.491261,-0.13803 -1.491261,-1.13401 0,-0.63872 0.44386,-1.24226 1.862046,-1.89452 -0.836297,-0.32748 -1.383002,-1.00951 -1.383002,-2.12187 0,-1.62387 1.18543,-2.3465 2.749765,-2.3465 a 4.0596929,4.0596929 0 0 1 1.052814,0.12991 3.2233961,3.2233961 0 0 1 0.522347,-1.32346 1.2720371,1.2720371 0 0 1 1.01763,-0.49528 0.72803825,0.72803825 0 0 1 0.784874,0.77675 0.69556071,0.69556071 0 0 1 -0.7118,0.7118 c -0.541292,0 -0.698267,-0.35454 -0.792993,-0.93643 a 1.7700261,1.7700261 0 0 0 -0.39785,0.72533 4.1273544,4.1273544 0 0 0 -0.154268,0.61978 c 0.866067,0.31936 1.431718,1.00951 1.431718,2.1354 0,1.62388 -1.190843,2.35462 -2.752472,2.35462 A 3.978499,3.978499 0 0 1 48.72985,22.71533 c -0.668496,0.35725 -1.250386,0.71992 -1.250386,1.17731 0,0.32748 0.202985,0.49528 0.7118,0.49528 z m 0.719918,2.07857 c 0,-0.5413 -0.224636,-0.82818 -1.134007,-0.82818 h -2.768711 a 1.7646132,1.7646132 0 0 0 -1.012216,1.50479 c 0,1.00951 1.180017,1.4236 2.165169,1.4236 1.258505,0 2.749765,-0.66849 2.749765,-2.10021 z m -3.932489,-5.96775 c 0,1.5914 0.522347,2.08668 1.353231,2.08668 0.830884,0 1.353231,-0.49528 1.353231,-2.08668 0,-1.5914 -0.525053,-2.08668 -1.353231,-2.08668 -0.828177,0 -1.353231,0.49528 -1.353231,2.08668 z"
     style="fill:#757575;fill-opacity:1;stroke-width:0.27064618"
     id="path28"
     inkscape:connector-curvature="0" />
  <path
     d="m 56.372895,24.64233 c 0,0.82818 0.311243,1.08259 1.134008,1.08259 v 0.31124 c -0.341015,-0.0135 -1.120476,-0.0568 -1.802504,-0.0568 -0.682028,0 -1.461489,0.0433 -1.802504,0.0568 v -0.32478 c 0.811939,0 1.134008,-0.24087 1.134008,-1.08258 v -4.647 c 0,-0.89313 -0.270646,-1.31534 -1.134008,-1.31534 v -0.31124 c 0.311243,0.0298 0.625193,0.0433 0.922904,0.0433 a 5.0177804,5.0177804 0 0 0 1.548096,-0.18945 z m 0.181333,-9.05582 a 0.95267459,0.95267459 0 1 1 -0.952675,-0.95267 0.95808752,0.95808752 0 0 1 0.952675,0.95267 z"
     style="fill:#757575;fill-opacity:1;stroke-width:0.27064618"
     id="path30"
     inkscape:connector-curvature="0" />
  <path
     d="m 64.654669,24.93192 c 0.341014,0.46551 0.595421,0.71992 1.039281,0.77946 v 0.31125 c -0.227343,-0.0135 -0.757809,-0.0568 -1.207082,-0.0568 -0.625193,0 -1.336992,0.0433 -1.650942,0.0568 v -0.31125 c 0.284179,0 0.457392,-0.11637 0.457392,-0.27064 a 0.38702405,0.38702405 0 0 0 -0.08661,-0.22464 l -1.707777,-2.50077 c -0.362666,-0.50881 -0.595422,-0.63331 -1.120475,-0.65496 v 2.59549 c 0,0.82818 0.270646,1.08259 0.982445,1.08259 v 0.31124 c -0.311243,-0.0135 -1.025749,-0.0568 -1.650941,-0.0568 -0.682029,0 -1.458783,0.0433 -1.802504,0.0568 v -0.33831 c 0.811939,0 1.134008,-0.24087 1.134008,-1.08258 v -8.49017 c 0,-0.89584 -0.270647,-1.30993 -1.134008,-1.30993 v -0.31124 c 0.31395,0.0298 0.625193,0.0433 0.922903,0.0433 a 4.6984179,4.6984179 0 0 0 1.548097,-0.2111 V 21.741 a 1.9351203,1.9351203 0 0 0 1.280156,-0.61707 l 1.104237,-1.14213 c 0.335601,-0.34642 0.47363,-0.61707 0.47363,-0.81193 0,-0.36267 -0.47363,-0.50882 -1.098823,-0.50882 v -0.29771 c 0.516934,0.0298 1.250385,0.0568 1.680713,0.0568 0.492576,0 0.995978,-0.0271 1.293689,-0.0568 v 0.29771 a 2.0758563,2.0758563 0 0 0 -1.32346,0.69015 l -1.810623,1.89452 z"
     style="fill:#757575;fill-opacity:1;stroke-width:0.27064618"
     id="path32"
     inkscape:connector-curvature="0" />
  <path
     d="M 2.665865,32.82397 H 0.23004926 V 32.34763 H 3.3316546 v 0.47634 L 0.69285425,36.12856 H 3.3993162 v 0.48445 H 0.0216517 v -0.47633 z"
     style="fill:#757575;fill-opacity:1;stroke-width:0.27064618"
     id="path34"
     inkscape:connector-curvature="0" />
  <path
     d="M 6.0002261,36.40732 A 1.4019473,1.4019473 0 0 1 5.1287453,36.67797 1.5913996,1.5913996 0 0 1 4.4900203,36.55888 1.2260272,1.2260272 0 0 1 4.0353347,36.22599 1.418186,1.418186 0 0 1 3.7646885,35.71447 2.4709997,2.4709997 0 0 1 3.661843,35.06492 a 1.8945233,1.8945233 0 0 1 0.105552,-0.64414 1.599519,1.599519 0 0 1 0.2922979,-0.51423 1.353231,1.353231 0 0 1 0.4600985,-0.33289 1.4127731,1.4127731 0 0 1 0.5791828,-0.11909 1.2557983,1.2557983 0 0 1 0.6820284,0.17051 1.3775891,1.3775891 0 0 1 0.4357404,0.43033 1.7131904,1.7131904 0 0 1 0.2246363,0.57106 2.3762736,2.3762736 0 0 1 0.051423,0.59001 H 4.189603 a 1.1989626,1.1989626 0 0 0 0.04601,0.38432 0.92560997,0.92560997 0 0 0 0.1732135,0.32206 0.84712258,0.84712258 0 0 0 0.3031238,0.22193 1.0338684,1.0338684 0 0 0 0.4357403,0.0839 0.87689366,0.87689366 0 0 0 0.5412924,-0.14885 0.71721241,0.71721241 0 0 0 0.2706462,-0.45198 H 6.4603247 A 1.2233208,1.2233208 0 0 1 6.0002261,36.40732 Z M 5.8757288,34.4316 a 0.81193857,0.81193857 0 0 0 -0.1840394,-0.27064 0.88230658,0.88230658 0 0 0 -0.2706462,-0.18404 0.86336135,0.86336135 0 0 0 -0.3626659,-0.0704 0.88230658,0.88230658 0 0 0 -0.3545465,0.0677 0.82817734,0.82817734 0 0 0 -0.2706462,0.18945 0.86606781,0.86606781 0 0 0 -0.1786265,0.27065 1.0636395,1.0636395 0 0 0 -0.075781,0.3356 h 1.7673196 a 1.0149232,1.0149232 0 0 0 -0.075781,-0.33831 z"
     style="fill:#757575;fill-opacity:1;stroke-width:0.27064618"
     id="path36"
     inkscape:connector-curvature="0" />
  <path
     d="M 6.9529006,32.97282 V 32.35304 H 7.459009 v 0.61978 z m 0.5061084,0.54129 v 3.0989 H 6.9529006 v -3.08807 z"
     style="fill:#757575;fill-opacity:1;stroke-width:0.27064618"
     id="path38"
     inkscape:connector-curvature="0" />
  <path
     d="m 9.4753231,33.52494 v 0.44657 H 8.8636627 v 1.91346 a 0.63331209,0.63331209 0 0 0 0,0.14074 0.14614894,0.14614894 0 0 0 0.056836,0.0839 0.2273428,0.2273428 0 0 0 0.1163779,0.0379 1.2476789,1.2476789 0 0 0 0.1921588,0 h 0.2327557 v 0.46551 H 9.0882991 A 1.956772,1.956772 0 0 1 8.7526978,36.58592 0.54129238,0.54129238 0 0 1 8.525355,36.48852 0.43032744,0.43032744 0 0 1 8.3981513,36.28553 1.2016691,1.2016691 0 0 1 8.3575543,35.9391 V 33.97963 H 7.8325008 v -0.44657 h 0.5250536 v -0.9229 h 0.5061083 v 0.9229 z"
     style="fill:#757575;fill-opacity:1;stroke-width:0.27064618"
     id="path40"
     inkscape:connector-curvature="0" />
  <path
     d="m 10.333272,35.91745 a 0.57647639,0.57647639 0 0 0 0.186745,0.18404 0.81193857,0.81193857 0 0 0 0.270647,0.0974 1.3802956,1.3802956 0 0 0 0.300417,0.0298 2.062324,2.062324 0 0 0 0.251701,-0.0162 0.95538105,0.95538105 0 0 0 0.240875,-0.0677 0.45739206,0.45739206 0 0 0 0.181333,-0.13802 0.38702405,0.38702405 0 0 0 0.07037,-0.23547 0.33289481,0.33289481 0 0 0 -0.148855,-0.29771 1.2747436,1.2747436 0 0 0 -0.370786,-0.16509 Q 11.091083,35.2463 10.828556,35.19483 A 2.5927905,2.5927905 0 0 1 10.344099,35.05409 0.99597798,0.99597798 0 0 1 9.9733141,34.78344 0.66849609,0.66849609 0 0 1 9.8244587,34.31793 0.72533179,0.72533179 0 0 1 9.9273043,33.92008 0.88230658,0.88230658 0 0 1 10.19795,33.64944 a 1.1664851,1.1664851 0 0 1 0.370786,-0.15427 1.6049319,1.6049319 0 0 1 0.405969,-0.0514 2.414164,2.414164 0 0 1 0.48175,0.0433 1.1258882,1.1258882 0 0 1 0.392437,0.15697 0.81193857,0.81193857 0 0 1 0.270646,0.29771 1.1394205,1.1394205 0 0 1 0.119085,0.46552 h -0.516934 a 0.51964069,0.51964069 0 0 0 -0.07849,-0.24629 0.48986961,0.48986961 0 0 0 -0.167801,-0.15698 0.69014779,0.69014779 0 0 0 -0.221929,-0.0866 1.0825848,1.0825848 0 0 0 -0.240875,-0.0108 1.353231,1.353231 0 0 0 -0.23005,0.019 0.71179948,0.71179948 0 0 0 -0.211104,0.0622 0.38161113,0.38161113 0 0 0 -0.154268,0.11909 0.29229789,0.29229789 0 0 0 -0.05954,0.19216 0.27064619,0.27064619 0 0 0 0.09202,0.21651 0.66849609,0.66849609 0 0 0 0.235463,0.14345 1.8593393,1.8593393 0 0 0 0.319362,0.0947 l 0.357253,0.0812 a 3.4561519,3.4561519 0 0 1 0.373492,0.10284 1.1881368,1.1881368 0 0 1 0.322069,0.15698 0.78216749,0.78216749 0 0 1 0.224636,0.24629 0.70909302,0.70909302 0 0 1 0.08661,0.37078 0.83900319,0.83900319 0 0 1 -0.116378,0.46281 0.88501304,0.88501304 0 0 1 -0.303124,0.29771 1.2530919,1.2530919 0 0 1 -0.422208,0.15697 2.5170096,2.5170096 0 0 1 -0.468218,0.046 2.1841148,2.1841148 0 0 1 -0.487163,-0.0541 A 1.1989626,1.1989626 0 0 1 10.160064,36.44527 0.89313243,0.89313243 0 0 1 9.873179,36.1232 1.1204752,1.1204752 0 0 1 9.7540947,35.63875 H 10.25479 a 0.58188931,0.58188931 0 0 0 0.07849,0.27876 z"
     style="fill:#757575;fill-opacity:1;stroke-width:0.27064618"
     id="path42"
     inkscape:connector-curvature="0" />
  <path
     d="m 14.674436,34.06082 a 0.77675457,0.77675457 0 0 0 -0.511521,-0.15968 0.94726167,0.94726167 0 0 0 -0.460098,0.10014 0.82817734,0.82817734 0 0 0 -0.295005,0.27064 1.1610722,1.1610722 0 0 0 -0.156974,0.38432 2.0596175,2.0596175 0 0 0 -0.04872,0.44927 1.7564938,1.7564938 0 0 0 0.05142,0.4168 1.1448334,1.1448334 0 0 0 0.156975,0.35996 0.7956998,0.7956998 0 0 0 0.270646,0.25441 0.84712258,0.84712258 0 0 0 0.411382,0.0947 0.82817734,0.82817734 0 0 0 0.584596,-0.19486 0.89854535,0.89854535 0 0 0 0.270646,-0.55483 h 0.516934 a 1.4208925,1.4208925 0 0 1 -0.424914,0.88231 1.3369922,1.3369922 0 0 1 -0.931023,0.30853 1.5968125,1.5968125 0 0 1 -0.622486,-0.11367 1.1691915,1.1691915 0 0 1 -0.451979,-0.32207 1.3369922,1.3369922 0 0 1 -0.270647,-0.49528 2.062324,2.062324 0 0 1 -0.09473,-0.63602 2.2463634,2.2463634 0 0 1 0.08931,-0.64413 1.493967,1.493967 0 0 1 0.270647,-0.52506 1.2557983,1.2557983 0 0 1 0.454685,-0.35184 1.5074993,1.5074993 0 0 1 0.636019,-0.1272 1.9188815,1.9188815 0 0 1 0.492576,0.0623 1.1394205,1.1394205 0 0 1 0.403263,0.19486 1.0338684,1.0338684 0 0 1 0.289591,0.33019 1.2341466,1.2341466 0 0 1 0.143443,0.47363 h -0.525054 a 0.76863518,0.76863518 0 0 0 -0.248995,-0.45739 z"
     style="fill:#757575;fill-opacity:1;stroke-width:0.27064618"
     id="path44"
     inkscape:connector-curvature="0" />
  <path
     d="m 16.447169,32.35304 v 1.62388 h 0.01353 a 0.63872501,0.63872501 0 0 1 0.165095,-0.24088 0.91207766,0.91207766 0 0 1 0.243581,-0.16238 1.2476789,1.2476789 0 0 1 0.270646,-0.092 1.4858476,1.4858476 0 0 1 0.270646,-0.0298 1.3018082,1.3018082 0 0 1 0.506109,0.0839 0.79299334,0.79299334 0 0 1 0.327482,0.23275 0.83088381,0.83088381 0 0 1 0.17592,0.35184 1.8485135,1.8485135 0 0 1 0.05142,0.45739 V 36.613 h -0.487164 v -2.08397 a 0.60895393,0.60895393 0 0 0 -0.1678,-0.45198 0.61707332,0.61707332 0 0 0 -0.457392,-0.1678 1.0501072,1.0501072 0 0 0 -0.400557,0.0704 0.77946103,0.77946103 0 0 0 -0.270646,0.20298 0.85524196,0.85524196 0 0 0 -0.170507,0.30854 1.2260272,1.2260272 0 0 0 -0.05684,0.38161 v 1.74025 h -0.51964 v -4.25997 z"
     style="fill:#757575;fill-opacity:1;stroke-width:0.27064618"
     id="path46"
     inkscape:connector-curvature="0" />
  <path
     d="m 19.621849,33.52494 v 0.65226 0 a 1.388415,1.388415 0 0 1 0.454685,-0.5413 1.1313011,1.1313011 0 0 1 0.676616,-0.1678 v 0.5413 a 1.4073602,1.4073602 0 0 0 -0.516934,0.0839 0.81193857,0.81193857 0 0 0 -0.346427,0.24358 1.0474008,1.0474008 0 0 0 -0.189453,0.38973 2.0677369,2.0677369 0 0 0 -0.05954,0.52776 v 1.35864 h -0.495282 v -3.08807 z"
     style="fill:#757575;fill-opacity:1;stroke-width:0.27064618"
     id="path48"
     inkscape:connector-curvature="0" />
  <path
     d="m 21.086045,32.97282 v -0.61978 h 0.506108 v 0.61978 z m 0.506108,0.54129 v 3.0989 h -0.506108 v -3.08807 z"
     style="fill:#757575;fill-opacity:1;stroke-width:0.27064618"
     id="path50"
     inkscape:connector-curvature="0" />
  <path
     d="m 21.979177,33.97151 v -0.44657 h 0.519641 v -0.45739 a 0.71991887,0.71991887 0 0 1 0.216517,-0.56836 0.91478412,0.91478412 0 0 1 0.633312,-0.19486 1.3045146,1.3045146 0 0 1 0.165094,0 0.8525355,0.8525355 0 0 1 0.162388,0.0352 v 0.44115 a 0.58459577,0.58459577 0 0 0 -0.143443,-0.0325 0.88771951,0.88771951 0 0 0 -0.140736,0 0.48445668,0.48445668 0 0 0 -0.286885,0.0731 0.31124312,0.31124312 0 0 0 -0.100139,0.27065 v 0.42762 h 0.595422 v 0.44656 h -0.595422 v 2.64692 h -0.506108 v -2.63338 z"
     style="fill:#757575;fill-opacity:1;stroke-width:0.27064618"
     id="path52"
     inkscape:connector-curvature="0" />
  <path
     d="m 25.278354,33.52494 v 0.44657 h -0.614367 v 1.91346 a 0.48986961,0.48986961 0 0 0 0.01624,0.14074 0.12449725,0.12449725 0 0 0 0.05684,0.0839 0.21922341,0.21922341 0 0 0 0.116378,0.0379 1.2476789,1.2476789 0 0 0 0.192158,0 h 0.232756 v 0.46551 H 24.89133 a 1.956772,1.956772 0 0 1 -0.335601,-0.0271 0.51693422,0.51693422 0 0 1 -0.227343,-0.0974 0.43032744,0.43032744 0 0 1 -0.127204,-0.20299 1.1042365,1.1042365 0 0 1 -0.0433,-0.34643 v -1.95947 h -0.522347 v -0.44657 h 0.522347 v -0.9229 h 0.506108 v 0.9229 z"
     style="fill:#757575;fill-opacity:1;stroke-width:0.27064618"
     id="path54"
     inkscape:connector-curvature="0" />
  <path
     d="m 27.005077,33.97151 v -0.44657 h 0.516934 v -0.45739 a 0.71991887,0.71991887 0 0 1 0.219224,-0.56836 0.91478412,0.91478412 0 0 1 0.633312,-0.19486 1.2287337,1.2287337 0 0 1 0.162387,0 0.88230658,0.88230658 0 0 1 0.165095,0.0352 v 0.44115 a 0.58459577,0.58459577 0 0 0 -0.143443,-0.0325 0.92019705,0.92019705 0 0 0 -0.143442,0 0.47904376,0.47904376 0 0 0 -0.270647,0.0731 0.31124312,0.31124312 0 0 0 -0.102845,0.27065 v 0.42762 h 0.595421 v 0.44656 h -0.595421 v 2.64692 h -0.519641 v -2.63338 z"
     style="fill:#757575;fill-opacity:1;stroke-width:0.27064618"
     id="path56"
     inkscape:connector-curvature="0" />
  <path
     d="m 31.059357,36.61301 v -0.48987 0 a 1.0257491,1.0257491 0 0 1 -0.411382,0.4195 1.2341466,1.2341466 0 0 1 -0.590009,0.13533 1.3667633,1.3667633 0 0 1 -0.506108,-0.0812 0.82817734,0.82817734 0 0 1 -0.327482,-0.22734 0.89042597,0.89042597 0 0 1 -0.17592,-0.35455 1.991956,1.991956 0 0 1 -0.04872,-0.45739 v -2.02443 h 0.503402 v 2.08397 a 0.57647639,0.57647639 0 0 0 0.625193,0.61978 1.0636395,1.0636395 0 0 0 0.403263,-0.0704 0.77946103,0.77946103 0 0 0 0.270646,-0.20299 0.90666474,0.90666474 0 0 0 0.167801,-0.30583 1.2557983,1.2557983 0 0 0 0.07037,-0.39785 v -1.74025 h 0.506108 v 3.09348 z m -1.082585,-4.14359 v 0.61707 H 29.43548 v -0.61707 z m 1.120475,0 v 0.61707 h -0.541292 v -0.61707 z"
     style="fill:#757575;fill-opacity:1;stroke-width:0.27064618"
     id="path58"
     inkscape:connector-curvature="0" />
  <path
     d="m 32.664289,33.52494 v 0.65226 0 a 1.388415,1.388415 0 0 1 0.454685,-0.5413 1.1313011,1.1313011 0 0 1 0.676616,-0.1678 v 0.5413 a 1.4073602,1.4073602 0 0 0 -0.516934,0.0839 0.81193857,0.81193857 0 0 0 -0.346428,0.24358 1.0474008,1.0474008 0 0 0 -0.189452,0.38973 2.0677369,2.0677369 0 0 0 -0.05954,0.52776 v 1.35864 h -0.506108 v -3.08807 z"
     style="fill:#757575;fill-opacity:1;stroke-width:0.27064618"
     id="path60"
     inkscape:connector-curvature="0" />
  <path
     d="m 35.297676,32.82397 v -0.47634 h 3.402023 v 0.47634 h -1.418186 v 3.78904 h -0.557531 v -3.78904 z"
     style="fill:#757575;fill-opacity:1;stroke-width:0.27064618"
     id="path62"
     inkscape:connector-curvature="0" />
  <path
     d="m 39.503518,32.35304 v 1.62388 0 a 0.64413793,0.64413793 0 0 1 0.167801,-0.24088 0.85794842,0.85794842 0 0 1 0.240875,-0.16238 1.2476789,1.2476789 0 0 1 0.270646,-0.092 1.4912605,1.4912605 0 0 1 0.284178,-0.0298 1.3207534,1.3207534 0 0 1 0.506109,0.0839 0.83088381,0.83088381 0 0 1 0.327482,0.23275 0.89854535,0.89854535 0 0 1 0.17592,0.35184 1.991956,1.991956 0 0 1 0.04872,0.45739 V 36.613 h -0.506108 v -2.08397 a 0.60624747,0.60624747 0 0 0 -0.165094,-0.45198 0.6251927,0.6251927 0 0 0 -0.460099,-0.1678 1.0582266,1.0582266 0 0 0 -0.400556,0.0704 0.77946103,0.77946103 0 0 0 -0.284179,0.20298 0.81193857,0.81193857 0 0 0 -0.167801,0.30854 1.2260272,1.2260272 0 0 0 -0.05683,0.38161 v 1.74025 H 38.99741 v -4.25997 z"
     style="fill:#757575;fill-opacity:1;stroke-width:0.27064618"
     id="path64"
     inkscape:connector-curvature="0" />
  <path
     d="m 44.396801,36.40732 a 1.388415,1.388415 0 0 1 -0.868774,0.27065 1.6049319,1.6049319 0 0 1 -0.641432,-0.11909 1.2476789,1.2476789 0 0 1 -0.454685,-0.33289 1.4127731,1.4127731 0 0 1 -0.270646,-0.51152 2.4709997,2.4709997 0 0 1 -0.105552,-0.64955 1.8187424,1.8187424 0 0 1 0.108258,-0.64414 1.5047928,1.5047928 0 0 1 0.300417,-0.50611 1.353231,1.353231 0 0 1 0.457392,-0.33289 1.4263054,1.4263054 0 0 1 0.58189,-0.11909 1.2612112,1.2612112 0 0 1 0.682028,0.17051 1.3694697,1.3694697 0 0 1 0.433034,0.43033 1.7186033,1.7186033 0 0 1 0.227343,0.57106 2.5115967,2.5115967 0 0 1 0.05142,0.59001 h -2.305906 a 1.2801565,1.2801565 0 0 0 0.04872,0.38432 0.84441612,0.84441612 0 0 0 0.173214,0.32206 0.81193857,0.81193857 0 0 0 0.303124,0.22193 1.0230426,1.0230426 0 0 0 0.433034,0.0839 0.86336135,0.86336135 0 0 0 0.541292,-0.14885 0.70638656,0.70638656 0 0 0 0.270646,-0.45198 h 0.48175 a 1.2233208,1.2233208 0 0 1 -0.446567,0.77134 z M 44.27501,34.4316 a 0.9093712,0.9093712 0 0 0 -0.184039,-0.27064 0.95267459,0.95267459 0 0 0 -0.270646,-0.18404 0.94726167,0.94726167 0 0 0 -0.70368,0 0.81193857,0.81193857 0 0 0 -0.270647,0.18945 0.86606781,0.86606781 0 0 0 -0.178626,0.27065 1.066346,1.066346 0 0 0 -0.07849,0.3356 h 1.770026 a 1.0149232,1.0149232 0 0 0 -0.0839,-0.34102 z"
     style="fill:#757575;fill-opacity:1;stroke-width:0.27064618"
     id="path66"
     inkscape:connector-curvature="0" />
  <path
     d="m 45.25475,34.44784 a 1.388415,1.388415 0 0 1 0.270646,-0.51152 1.353231,1.353231 0 0 1 0.470924,-0.34372 1.7348421,1.7348421 0 0 1 1.290982,0 1.353231,1.353231 0 0 1 0.465512,0.34372 1.4344248,1.4344248 0 0 1 0.286885,0.51152 2.0839757,2.0839757 0 0 1 0.09473,0.63332 2.0406723,2.0406723 0 0 1 -0.09473,0.6306 1.4452507,1.4452507 0 0 1 -0.286885,0.50882 1.3072211,1.3072211 0 0 1 -0.465512,0.34101 1.7727325,1.7727325 0 0 1 -1.290982,0 1.3045146,1.3045146 0 0 1 -0.470924,-0.34101 1.3992408,1.3992408 0 0 1 -0.270646,-0.50882 1.9621849,1.9621849 0 0 1 -0.09473,-0.6306 2.0027818,2.0027818 0 0 1 0.09473,-0.63332 z m 0.514227,1.1313 a 1.0501072,1.0501072 0 0 0 0.205691,0.36267 0.88771951,0.88771951 0 0 0 0.305831,0.22464 0.92290351,0.92290351 0 0 0 0.373491,0.0758 0.9093712,0.9093712 0 0 0 0.370786,-0.0758 0.89854535,0.89854535 0 0 0 0.308536,-0.22464 1.0825848,1.0825848 0 0 0 0.205691,-0.36267 1.7321356,1.7321356 0 0 0 0,-0.99597 1.136714,1.136714 0 0 0 -0.205691,-0.36538 0.89854535,0.89854535 0 0 0 -0.308536,-0.22463 0.91207766,0.91207766 0 0 0 -0.370786,-0.0785 0.92290351,0.92290351 0 0 0 -0.373491,0.0785 0.88771951,0.88771951 0 0 0 -0.305831,0.22463 1.0825848,1.0825848 0 0 0 -0.205691,0.36538 1.7321356,1.7321356 0 0 0 0,0.99597 z"
     style="fill:#757575;fill-opacity:1;stroke-width:0.27064618"
     id="path68"
     inkscape:connector-curvature="0" />
  <path
     d="m 49.111458,33.52494 v 0.65226 0 a 1.353231,1.353231 0 0 1 0.451979,-0.5413 1.1394205,1.1394205 0 0 1 0.679322,-0.1678 v 0.5413 a 1.4127731,1.4127731 0 0 0 -0.519641,0.0839 0.81193857,0.81193857 0 0 0 -0.34372,0.24358 1.0122168,1.0122168 0 0 0 -0.192159,0.38973 2.1976471,2.1976471 0 0 0 -0.05954,0.52776 v 1.35864 h -0.495283 v -3.08807 z"
     style="fill:#757575;fill-opacity:1;stroke-width:0.27064618"
     id="path70"
     inkscape:connector-curvature="0" />
  <path
     d="m 50.57836,32.97282 v -0.61978 h 0.506109 v 0.61978 z m 0.506109,0.54129 v 3.0989 H 50.57836 v -3.08807 z"
     style="fill:#757575;fill-opacity:1;stroke-width:0.27064618"
     id="path72"
     inkscape:connector-curvature="0" />
  <path
     d="m 53.958731,36.40732 a 1.388415,1.388415 0 0 1 -0.868774,0.27065 1.6049319,1.6049319 0 0 1 -0.641432,-0.11909 1.2693306,1.2693306 0 0 1 -0.454685,-0.33289 1.4560765,1.4560765 0 0 1 -0.270646,-0.51152 2.4709997,2.4709997 0 0 1 -0.105552,-0.64955 1.8945233,1.8945233 0 0 1 0.108258,-0.64414 1.5047928,1.5047928 0 0 1 0.300417,-0.50611 1.353231,1.353231 0 0 1 0.457392,-0.33289 1.4263054,1.4263054 0 0 1 0.58189,-0.11909 1.2612112,1.2612112 0 0 1 0.682028,0.17051 1.353231,1.353231 0 0 1 0.433034,0.43033 1.6617676,1.6617676 0 0 1 0.227343,0.57106 2.5115967,2.5115967 0 0 1 0.05142,0.59001 h -2.308612 a 1.2801565,1.2801565 0 0 0 0.04872,0.38432 0.84441612,0.84441612 0 0 0 0.173213,0.32206 0.81193857,0.81193857 0 0 0 0.303124,0.22193 1.0257491,1.0257491 0 0 0 0.43574,0.0839 0.86065489,0.86065489 0 0 0 0.525054,-0.14885 0.70638656,0.70638656 0 0 0 0.270646,-0.45198 h 0.500696 a 1.2233208,1.2233208 0 0 1 -0.449274,0.77134 z M 53.83694,34.4316 a 0.9093712,0.9093712 0 0 0 -0.184039,-0.27064 0.95267459,0.95267459 0 0 0 -0.270646,-0.18404 0.86336135,0.86336135 0 0 0 -0.349134,-0.0677 0.88230658,0.88230658 0 0 0 -0.354546,0.0677 0.81193857,0.81193857 0 0 0 -0.270647,0.18945 0.86606781,0.86606781 0 0 0 -0.178626,0.27065 1.066346,1.066346 0 0 0 -0.07849,0.3356 h 1.770026 a 1.0149232,1.0149232 0 0 0 -0.0839,-0.34102 z"
     style="fill:#757575;fill-opacity:1;stroke-width:0.27064618"
     id="path74"
     inkscape:connector-curvature="0" />
  <path
     d="m 58.527239,36.61301 v -0.48987 h -0.01353 a 1.0095103,1.0095103 0 0 1 -0.411382,0.4195 1.2233208,1.2233208 0 0 1 -0.587302,0.13533 1.353231,1.353231 0 0 1 -0.506108,-0.0812 0.81193857,0.81193857 0 0 1 -0.327482,-0.22734 0.85794842,0.85794842 0 0 1 -0.17592,-0.35455 1.8485135,1.8485135 0 0 1 -0.05142,-0.45739 v -2.02443 h 0.506108 v 2.08397 a 0.60354101,0.60354101 0 0 0 0.167801,0.45469 0.61707332,0.61707332 0 0 0 0.457392,0.16509 1.0501072,1.0501072 0 0 0 0.400556,-0.0704 0.77946103,0.77946103 0 0 0 0.284179,-0.20299 0.86877427,0.86877427 0 0 0 0.170507,-0.30583 1.2557983,1.2557983 0 0 0 0.05684,-0.38432 v -1.74025 h 0.506108 v 3.07995 z"
     style="fill:#757575;fill-opacity:1;stroke-width:0.27064618"
     id="path76"
     inkscape:connector-curvature="0" />
  <path
     d="m 60.151116,33.52494 v 0.48987 0 a 1.066346,1.066346 0 0 1 1.001391,-0.56024 1.3099276,1.3099276 0 0 1 0.506108,0.0839 0.81193857,0.81193857 0 0 1 0.327482,0.23276 0.83088381,0.83088381 0 0 1 0.17592,0.35184 1.986543,1.986543 0 0 1 0.05142,0.45739 v 2.03255 h -0.506108 v -2.08397 a 0.60895393,0.60895393 0 0 0 -0.167801,-0.45198 0.61707332,0.61707332 0 0 0 -0.457392,-0.17051 1.0636395,1.0636395 0 0 0 -0.403263,0.0704 0.76863518,0.76863518 0 0 0 -0.270646,0.20298 0.85524196,0.85524196 0 0 0 -0.170507,0.30854 1.2260272,1.2260272 0 0 0 -0.05684,0.38161 v 1.74296 h -0.506108 v -3.08807 z"
     style="fill:#757575;fill-opacity:1;stroke-width:0.27064618"
     id="path78"
     inkscape:connector-curvature="0" />
  <path
     d="m 65.141832,36.61301 v -0.41679 0 a 0.73615764,0.73615764 0 0 1 -0.392437,0.36808 1.4993799,1.4993799 0 0 1 -0.590009,0.11367 1.4046537,1.4046537 0 0 1 -0.622486,-0.12991 1.3072211,1.3072211 0 0 1 -0.438447,-0.35184 1.5074993,1.5074993 0 0 1 -0.270646,-0.51152 2.2274182,2.2274182 0 0 1 0,-1.23956 1.4371313,1.4371313 0 0 1 0.270646,-0.50882 1.2963953,1.2963953 0 0 1 0.419502,-0.35454 1.418186,1.418186 0 0 1 0.617073,-0.12721 1.493967,1.493967 0 0 1 0.257114,0.0244 1.5453897,1.5453897 0 0 1 0.270646,0.0785 1.2936888,1.2936888 0 0 1 0.257114,0.14885 0.81193857,0.81193857 0 0 1 0.205691,0.23005 h 0.01624 v -1.58328 h 0.506108 v 4.25997 z m -1.818743,-1.08258 a 1.136714,1.136714 0 0 0 0.170507,0.36537 0.8525355,0.8525355 0 0 0 0.297711,0.25711 0.9310229,0.9310229 0 0 0 0.427621,0.0947 0.86065489,0.86065489 0 0 0 0.433034,-0.10014 0.88771951,0.88771951 0 0 0 0.292298,-0.27065 1.1150623,1.1150623 0 0 0 0.165094,-0.37349 1.8376876,1.8376876 0 0 0 0.04872,-0.4222 1.6915387,1.6915387 0 0 0 -0.05413,-0.43845 1.1042365,1.1042365 0 0 0 -0.1678,-0.37079 0.87148073,0.87148073 0 0 0 -0.300418,-0.27064 0.95538105,0.95538105 0 0 0 -0.446566,-0.0974 0.87148073,0.87148073 0 0 0 -0.43574,0.10014 0.82547088,0.82547088 0 0 0 -0.286885,0.27065 1.2016691,1.2016691 0 0 0 -0.154269,0.38161 2.1651695,2.1651695 0 0 0 -0.04601,0.44115 1.5670414,1.5670414 0 0 0 0.05683,0.41409 z"
     style="fill:#757575;fill-opacity:1;stroke-width:0.27064618"
     id="path80"
     inkscape:connector-curvature="0" />
  <path
     d="m 2.2192988,39.4981 a 1.3207534,1.3207534 0 0 1 0.9716198,0.33019 1.4669024,1.4669024 0 0 1 0,1.85393 1.2747436,1.2747436 0 0 1 -0.9716198,0.32748 H 0.92019705 v 1.74025 H 0.35454651 V 39.4981 Z M 2.02714,41.53336 A 1.0040974,1.0040974 0 0 0 2.7335265,41.3385 0.74968995,0.74968995 0 0 0 2.9554564,40.7539 0.73345118,0.73345118 0 0 0 2.7335265,40.17472 1.0446943,1.0446943 0 0 0 2.02714,39.97444 H 0.92019705 v 1.55892 z"
     style="fill:#757575;fill-opacity:1;stroke-width:0.27064618"
     id="path82"
     inkscape:connector-curvature="0" />
  <path
     d="m 4.4981397,40.67271 v 0.64955 h 0.018945 a 1.353231,1.353231 0 0 1 0.4519792,-0.5413 1.1340075,1.1340075 0 0 1 0.6793219,-0.1678 v 0.5413 a 1.4127731,1.4127731 0 0 0 -0.5196407,0.0839 0.78216749,0.78216749 0 0 0 -0.3437206,0.24358 1.0122168,1.0122168 0 0 0 -0.1921588,0.38973 2.0677369,2.0677369 0 0 0 -0.059542,0.52776 V 43.7689 H 4.0218024 v -3.09619 z"
     style="fill:#757575;fill-opacity:1;stroke-width:0.27064618"
     id="path84"
     inkscape:connector-curvature="0" />
  <path
     d="M 8.6606781,43.73642 A 0.71450594,0.71450594 0 0 1 8.2980122,43.81492 0.44115329,0.44115329 0 0 1 7.9840626,43.70395 0.48175022,0.48175022 0 0 1 7.8676848,43.34399 1.1908432,1.1908432 0 0 1 7.3832281,43.70395 1.6238771,1.6238771 0 0 1 6.7851,43.81492 1.564335,1.564335 0 0 1 6.3899566,43.76622 0.85524196,0.85524196 0 0 1 6.0651811,43.61737 0.70638656,0.70638656 0 0 1 5.8459577,43.34672 0.91749059,0.91749059 0 0 1 5.7674707,42.95158 0.90395828,0.90395828 0 0 1 5.8567837,42.52396 0.76322226,0.76322226 0 0 1 6.0922459,42.25331 1.1150623,1.1150623 0 0 1 6.4251407,42.09363 c 0.1244972,-0.0352 0.2517009,-0.065 0.3843176,-0.0893 0.1326166,-0.0243 0.2706462,-0.0487 0.3951434,-0.0622 a 2.0136077,2.0136077 0 0 0 0.3301884,-0.0596 0.54129238,0.54129238 0 0 0 0.2273428,-0.11367 0.27064619,0.27064619 0 0 0 0.0839,-0.21651 A 0.48986961,0.48986961 0 0 0 7.7810779,41.2817 0.41408867,0.41408867 0 0 0 7.6213966,41.12743 0.63331209,0.63331209 0 0 0 7.4021732,41.05703 1.4669024,1.4669024 0 0 0 7.1612981,41.03813 1.0609331,1.0609331 0 0 0 6.6200057,41.15992 0.51693422,0.51693422 0 0 0 6.38725,41.62272 H 5.8865547 a 1.0825848,1.0825848 0 0 1 0.1190843,-0.48445 0.89042597,0.89042597 0 0 1 0.2841785,-0.31666 1.207082,1.207082 0 0 1 0.4086757,-0.17592 2.1787018,2.1787018 0 0 1 0.4925761,-0.0541 2.9771081,2.9771081 0 0 1 0.4113822,0.0298 1.0474008,1.0474008 0 0 1 0.3734917,0.12179 0.71721241,0.71721241 0 0 1 0.2706462,0.27065 0.83088381,0.83088381 0 0 1 0.1001391,0.43574 v 1.58057 a 1.1637786,1.1637786 0 0 0 0.021652,0.27065 c 0.013532,0.0568 0.059542,0.0839 0.140736,0.0839 a 0.60083454,0.60083454 0 0 0 0.1542684,-0.0244 z M 7.8487395,42.15855 A 0.60354101,0.60354101 0 0 1 7.599745,42.2641 C 7.4968995,42.2858 7.388641,42.302 7.2749696,42.3155 l -0.3410142,0.0487 a 1.1637786,1.1637786 0 0 0 -0.3112431,0.0866 0.54129238,0.54129238 0 0 0 -0.2219299,0.1678 0.46280499,0.46280499 0 0 0 -0.086607,0.30042 0.41679513,0.41679513 0 0 0 0.048716,0.2084 0.44115329,0.44115329 0 0 0 0.1326167,0.14073 0.57647639,0.57647639 0 0 0 0.1867459,0.0758 1.0284555,1.0284555 0 0 0 0.2273428,0.0244 1.1908432,1.1908432 0 0 0 0.4276209,-0.0677 0.89854535,0.89854535 0 0 0 0.2922979,-0.17321 0.68744132,0.68744132 0 0 0 0.1678007,-0.22464 0.57106346,0.57106346 0 0 0 0.051423,-0.22734 z"
     style="fill:#757575;fill-opacity:1;stroke-width:0.27064618"
     id="path86"
     inkscape:connector-curvature="0" />
  <path
     d="m 8.7960012,40.67271 h 0.6495509 l 0.7388639,1.08258 0.768635,-1.08258 h 0.600835 l -1.058227,1.41818 1.190844,1.66177 H 11.036952 L 10.179003,42.47792 9.3210548,43.75266 H 8.7148073 l 1.1529528,-1.62388 z"
     style="fill:#757575;fill-opacity:1;stroke-width:0.27064618"
     id="path88"
     inkscape:connector-curvature="0" />
  <path
     d="m 12.065407,40.13141 v -0.61978 h 0.506109 v 0.61978 z m 0.506109,0.5413 v 3.07995 h -0.506109 v -3.07995 z"
     style="fill:#757575;fill-opacity:1;stroke-width:0.27064618"
     id="path90"
     inkscape:connector-curvature="0" />
  <path
     d="m 13.656807,43.06251 a 0.54129238,0.54129238 0 0 0 0.186746,0.18404 0.81193857,0.81193857 0 0 0 0.270646,0.0974 1.5697479,1.5697479 0 0 0 0.300417,0.0298 2.021727,2.021727 0 0 0 0.248995,-0.0162 0.95538105,0.95538105 0 0 0 0.240875,-0.0677 0.43844683,0.43844683 0 0 0 0.181333,-0.13803 0.37078528,0.37078528 0 0 0 0.07307,-0.23546 0.33830774,0.33830774 0 0 0 -0.148855,-0.29771 1.3261663,1.3261663 0 0 0 -0.373492,-0.16509 c -0.148855,-0.0406 -0.308537,-0.0785 -0.484457,-0.11367 a 2.5332483,2.5332483 0 0 1 -0.484456,-0.14074 1.031162,1.031162 0 0 1 -0.373492,-0.27065 0.6820284,0.6820284 0 0 1 -0.148856,-0.46551 0.72803825,0.72803825 0 0 1 0.105553,-0.39785 0.82547088,0.82547088 0 0 1 0.270646,-0.27064 1.1773109,1.1773109 0 0 1 0.368079,-0.15427 1.6428224,1.6428224 0 0 1 0.408675,-0.0514 2.2409505,2.2409505 0 0 1 0.48175,0.046 1.0825848,1.0825848 0 0 1 0.389731,0.15427 0.77946103,0.77946103 0 0 1 0.270646,0.29771 1.0988235,1.0988235 0 0 1 0.119085,0.46552 h -0.516935 a 0.47363083,0.47363083 0 0 0 -0.243581,-0.40327 0.69014779,0.69014779 0 0 0 -0.22193,-0.0866 1.1150623,1.1150623 0 0 0 -0.248995,-0.0271 1.2882759,1.2882759 0 0 0 -0.227342,0.0189 0.75510287,0.75510287 0 0 0 -0.213811,0.0623 0.42220806,0.42220806 0 0 0 -0.154268,0.11908 0.3058302,0.3058302 0 0 0 -0.05954,0.19216 0.28959142,0.28959142 0 0 0 0.09202,0.21652 0.72262533,0.72262533 0 0 0 0.235462,0.14344 2.1651695,2.1651695 0 0 0 0.322069,0.0974 l 0.357253,0.0785 a 3.4561519,3.4561519 0 0 1 0.373492,0.10284 1.171898,1.171898 0 0 1 0.319363,0.15698 0.70097363,0.70097363 0 0 1 0.313949,0.61707 0.84441612,0.84441612 0 0 1 -0.116378,0.46281 0.9093712,0.9093712 0 0 1 -0.303123,0.29771 1.2747436,1.2747436 0 0 1 -0.422208,0.15697 2.5170096,2.5170096 0 0 1 -0.468218,0.046 2.2274182,2.2274182 0 0 1 -0.48987,-0.0541 1.1854303,1.1854303 0 0 1 -0.408676,-0.17592 0.87148073,0.87148073 0 0 1 -0.286885,-0.32207 1.1204752,1.1204752 0 0 1 -0.119084,-0.48445 h 0.506108 a 0.55482469,0.55482469 0 0 0 0.07849,0.295 z"
     style="fill:#757575;fill-opacity:1;stroke-width:0.27064618"
     id="path92"
     inkscape:connector-curvature="0" />
  <path
     d="m 19.968276,43.74995 v -0.41679 0 a 0.74698349,0.74698349 0 0 1 -0.392437,0.36808 1.4993799,1.4993799 0 0 1 -0.590009,0.11367 1.4046537,1.4046537 0 0 1 -0.622486,-0.12991 1.3072211,1.3072211 0 0 1 -0.438447,-0.35184 1.5074993,1.5074993 0 0 1 -0.270646,-0.51152 2.2274182,2.2274182 0 0 1 0,-1.23956 1.4371313,1.4371313 0 0 1 0.270646,-0.50882 1.2963953,1.2963953 0 0 1 0.441154,-0.34643 1.418186,1.418186 0 0 1 0.617073,-0.1272 1.4398377,1.4398377 0 0 1 0.254407,0.0244 1.5102057,1.5102057 0 0 1 0.270646,0.0785 1.2936888,1.2936888 0 0 1 0.270647,0.14885 0.81193857,0.81193857 0 0 1 0.205691,0.23005 v 0 -1.58328 H 20.48521 V 43.75 Z m -1.818742,-1.08258 a 1.0825848,1.0825848 0 0 0 0.170507,0.36537 0.8525355,0.8525355 0 0 0 0.29771,0.25711 0.92290351,0.92290351 0 0 0 0.427621,0.0947 0.86065489,0.86065489 0 0 0 0.433034,-0.10014 0.88771951,0.88771951 0 0 0 0.292298,-0.27065 1.1150623,1.1150623 0 0 0 0.165094,-0.37349 1.8376876,1.8376876 0 0 0 0.04872,-0.4222 1.6915387,1.6915387 0 0 0 -0.05413,-0.43845 1.1042365,1.1042365 0 0 0 -0.1678,-0.37079 0.87148073,0.87148073 0 0 0 -0.300417,-0.27064 0.95538105,0.95538105 0 0 0 -0.446567,-0.0974 0.87148073,0.87148073 0 0 0 -0.43574,0.10014 0.82547088,0.82547088 0 0 0 -0.286885,0.27065 1.2016691,1.2016691 0 0 0 -0.154268,0.38161 1.9838366,1.9838366 0 0 0 -0.04601,0.44115 1.5670414,1.5670414 0 0 0 0.05684,0.42221 z"
     style="fill:#757575;fill-opacity:1;stroke-width:0.27064618"
     id="path94"
     inkscape:connector-curvature="0" />
  <path
     d="m 23.343234,43.55238 a 1.388415,1.388415 0 0 1 -0.868774,0.27065 1.6049319,1.6049319 0 0 1 -0.641432,-0.11909 1.2476789,1.2476789 0 0 1 -0.454685,-0.33289 1.4127731,1.4127731 0 0 1 -0.270647,-0.51152 2.4709997,2.4709997 0 0 1 -0.105552,-0.64955 1.8187424,1.8187424 0 0 1 0.108259,-0.64414 1.5047928,1.5047928 0 0 1 0.300417,-0.50611 1.353231,1.353231 0 0 1 0.457392,-0.3329 1.4263054,1.4263054 0 0 1 0.58189,-0.11908 1.2612112,1.2612112 0 0 1 0.682028,0.17051 1.353231,1.353231 0 0 1 0.433034,0.43032 1.7186033,1.7186033 0 0 1 0.227343,0.57107 2.5115967,2.5115967 0 0 1 0.05142,0.59001 h -2.311318 a 1.2801565,1.2801565 0 0 0 0.04872,0.38431 0.84441612,0.84441612 0 0 0 0.173214,0.32207 0.81193857,0.81193857 0 0 0 0.303124,0.22193 1.0230426,1.0230426 0 0 0 0.433033,0.0839 0.87148073,0.87148073 0 0 0 0.541293,-0.14885 0.71179948,0.71179948 0 0 0 0.270646,-0.45198 h 0.500695 a 1.2233208,1.2233208 0 0 1 -0.460098,0.77134 z m -0.121791,-1.97572 a 0.9093712,0.9093712 0 0 0 -0.184039,-0.27064 0.95267459,0.95267459 0 0 0 -0.270646,-0.18404 0.94726167,0.94726167 0 0 0 -0.703681,0 0.81193857,0.81193857 0 0 0 -0.270646,0.18945 0.86606781,0.86606781 0 0 0 -0.178626,0.27065 1.066346,1.066346 0 0 0 -0.07849,0.3356 h 1.770026 a 1.0149232,1.0149232 0 0 0 -0.0839,-0.34102 z"
     style="fill:#757575;fill-opacity:1;stroke-width:0.27064618"
     id="path96"
     inkscape:connector-curvature="0" />
  <path
     d="m 24.731649,40.67271 v 0.64955 0 a 1.353231,1.353231 0 0 1 0.451979,-0.5413 1.1394205,1.1394205 0 0 1 0.679322,-0.1678 v 0.5413 a 1.388415,1.388415 0 0 0 -0.506108,0.0595 0.79028688,0.79028688 0 0 0 -0.346428,0.24358 1.0095103,1.0095103 0 0 0 -0.189452,0.38973 2.0677369,2.0677369 0 0 0 -0.05954,0.52776 v 1.36947 h -0.506108 v -3.07183 z"
     style="fill:#757575;fill-opacity:1;stroke-width:0.27064618"
     id="path98"
     inkscape:connector-curvature="0" />
  <path
     d="m 28.604596,39.4981 1.353231,3.57253 1.353231,-3.57253 h 0.774048 v 4.25185 h -0.541292 v -3.53734 h -0.01353 l -1.326166,3.53734 h -0.48175 l -1.328873,-3.53734 v 0 3.53734 H 27.852202 V 39.4981 Z"
     style="fill:#757575;fill-opacity:1;stroke-width:0.27064618"
     id="path100"
     inkscape:connector-curvature="0" />
  <path
     d="m 35.008085,43.55238 a 1.388415,1.388415 0 0 1 -0.868774,0.27065 1.6049319,1.6049319 0 0 1 -0.641432,-0.11909 1.2260272,1.2260272 0 0 1 -0.454686,-0.33289 1.418186,1.418186 0 0 1 -0.270646,-0.51152 2.590084,2.590084 0 0 1 -0.102845,-0.64955 1.8187424,1.8187424 0 0 1 0.108258,-0.64414 1.5047928,1.5047928 0 0 1 0.300417,-0.50611 1.3288728,1.3288728 0 0 1 0.457393,-0.3329 1.4154796,1.4154796 0 0 1 0.581889,-0.11908 1.2449725,1.2449725 0 0 1 0.679322,0.17051 1.3261663,1.3261663 0 0 1 0.43574,0.43032 1.7781455,1.7781455 0 0 1 0.227343,0.57107 2.5034773,2.5034773 0 0 1 0.04872,0.59001 h -2.303199 a 1.1285946,1.1285946 0 0 0 0.04872,0.38431 0.87960012,0.87960012 0 0 0 0.170508,0.32207 0.85794842,0.85794842 0 0 0 0.30583,0.22193 1.0230426,1.0230426 0 0 0 0.433034,0.0839 0.87689366,0.87689366 0 0 0 0.541292,-0.14885 0.72533179,0.72533179 0 0 0 0.270646,-0.45198 h 0.500696 a 1.2233208,1.2233208 0 0 1 -0.468218,0.77134 z m -0.121791,-1.97572 a 0.86877427,0.86877427 0 0 0 -0.186746,-0.27064 0.88230658,0.88230658 0 0 0 -0.270646,-0.18404 0.94184874,0.94184874 0 0 0 -0.700974,0 0.77675457,0.77675457 0 0 0 -0.270646,0.18945 0.86606781,0.86606781 0 0 0 -0.178626,0.27065 0.99868444,0.99868444 0 0 0 -0.07849,0.3356 h 1.76732 a 1.0825848,1.0825848 0 0 0 -0.08119,-0.34102 z"
     style="fill:#757575;fill-opacity:1;stroke-width:0.27064618"
     id="path102"
     inkscape:connector-curvature="0" />
  <path
     d="m 38.180058,43.74995 v -0.41679 0 a 0.74698349,0.74698349 0 0 1 -0.392437,0.36808 1.4993799,1.4993799 0 0 1 -0.590009,0.11367 1.3965343,1.3965343 0 0 1 -0.622486,-0.12991 1.3153405,1.3153405 0 0 1 -0.441153,-0.35184 1.5589221,1.5589221 0 0 1 -0.270646,-0.51152 2.1191597,2.1191597 0 0 1 -0.08931,-0.61978 2.1976471,2.1976471 0 0 1 0.08661,-0.61978 1.4425442,1.4425442 0 0 1 0.270646,-0.50882 1.2693306,1.2693306 0 0 1 0.441154,-0.34643 1.418186,1.418186 0 0 1 0.617073,-0.1272 1.4641959,1.4641959 0 0 1 0.254407,0.0244 1.4263054,1.4263054 0 0 1 0.270647,0.0785 1.242266,1.242266 0 0 1 0.270646,0.14885 0.84170965,0.84170965 0 0 1 0.205691,0.23005 v 0 -1.58328 h 0.506108 V 43.75 Z m -1.818742,-1.08258 a 1.0825848,1.0825848 0 0 0 0.173213,0.36537 0.82817734,0.82817734 0 0 0 0.297711,0.25711 0.92019705,0.92019705 0 0 0 0.433034,0.0893 0.87148073,0.87148073 0 0 0 0.43574,-0.10014 0.88771951,0.88771951 0 0 0 0.292298,-0.27065 1.0582266,1.0582266 0 0 0 0.162388,-0.37349 1.7023645,1.7023645 0 0 0 0.05142,-0.42221 1.8187424,1.8187424 0 0 0 -0.05413,-0.43844 1.0582266,1.0582266 0 0 0 -0.170508,-0.37079 0.82547088,0.82547088 0 0 0 -0.300417,-0.27065 0.93914228,0.93914228 0 0 0 -0.446566,-0.0974 0.86065489,0.86065489 0 0 0 -0.433034,0.10014 0.82547088,0.82547088 0 0 0 -0.286885,0.27065 1.2016691,1.2016691 0 0 0 -0.154268,0.38161 1.986543,1.986543 0 0 0 -0.04872,0.44115 1.5670414,1.5670414 0 0 0 0.04872,0.42762 z"
     style="fill:#757575;fill-opacity:1;stroke-width:0.27064618"
     id="path104"
     inkscape:connector-curvature="0" />
  <path
     d="m 39.406085,40.13141 v -0.61978 h 0.506109 v 0.61978 z m 0.506109,0.5413 v 3.07995 h -0.506109 v -3.07995 z"
     style="fill:#757575;fill-opacity:1;stroke-width:0.27064618"
     id="path106"
     inkscape:connector-curvature="0" />
  <path
     d="m 42.789163,43.55238 a 1.388415,1.388415 0 0 1 -0.868775,0.27065 1.6049319,1.6049319 0 0 1 -0.641431,-0.11909 1.2476789,1.2476789 0 0 1 -0.454686,-0.33289 1.4127731,1.4127731 0 0 1 -0.270646,-0.51152 2.4709997,2.4709997 0 0 1 -0.105552,-0.64955 1.8187424,1.8187424 0 0 1 0.108259,-0.64414 1.5047928,1.5047928 0 0 1 0.300417,-0.50611 1.353231,1.353231 0 0 1 0.457392,-0.3329 1.4263054,1.4263054 0 0 1 0.581889,-0.11908 1.2612112,1.2612112 0 0 1 0.682029,0.17051 1.353231,1.353231 0 0 1 0.433034,0.43032 1.6617676,1.6617676 0 0 1 0.227342,0.57107 2.5115967,2.5115967 0 0 1 0.05142,0.59001 H 40.98395 a 1.2801565,1.2801565 0 0 0 0.04872,0.38431 0.84441612,0.84441612 0 0 0 0.173214,0.32207 0.81193857,0.81193857 0 0 0 0.303123,0.22193 1.0230426,1.0230426 0 0 0 0.433034,0.0839 0.86336135,0.86336135 0 0 0 0.541293,-0.14885 0.71179948,0.71179948 0 0 0 0.270646,-0.45198 h 0.500695 a 1.2233208,1.2233208 0 0 1 -0.465512,0.77134 z m -0.121791,-1.97572 a 0.9093712,0.9093712 0 0 0 -0.184039,-0.27064 0.95267459,0.95267459 0 0 0 -0.270647,-0.18404 0.94726167,0.94726167 0 0 0 -0.70368,0 0.81193857,0.81193857 0 0 0 -0.270646,0.18945 0.86606781,0.86606781 0 0 0 -0.178626,0.27065 1.066346,1.066346 0 0 0 -0.07849,0.3356 H 42.75127 A 1.0149232,1.0149232 0 0 0 42.6782,41.57666 Z"
     style="fill:#757575;fill-opacity:1;stroke-width:0.27064618"
     id="path108"
     inkscape:connector-curvature="0" />
  <path
     d="m 44.193816,40.67271 v 0.48986 h 0.01353 a 1.0636395,1.0636395 0 0 1 0.998684,-0.56023 1.3099276,1.3099276 0 0 1 0.506109,0.0839 0.81193857,0.81193857 0 0 1 0.327482,0.23275 0.83088381,0.83088381 0 0 1 0.17592,0.35184 1.8485135,1.8485135 0 0 1 0.05142,0.4574 v 2.02443 h -0.506108 v -2.08398 a 0.60895393,0.60895393 0 0 0 -0.167801,-0.45198 0.61707332,0.61707332 0 0 0 -0.457392,-0.1678 1.0825848,1.0825848 0 0 0 -0.403263,0.0704 0.79299334,0.79299334 0 0 0 -0.270646,0.20299 0.86877427,0.86877427 0 0 0 -0.170507,0.30583 1.2557983,1.2557983 0 0 0 -0.05684,0.38431 v 1.74026 h -0.506108 v -3.07995 z"
     style="fill:#757575;fill-opacity:1;stroke-width:0.27064618"
     id="path110"
     inkscape:connector-curvature="0" />
  <path
     d="m 47.463222,39.4981 v 1.58869 0 a 0.75510287,0.75510287 0 0 1 0.395144,-0.37078 1.4398377,1.4398377 0 0 1 0.587302,-0.11638 1.3965343,1.3965343 0 0 1 0.622486,0.12991 1.2666242,1.2666242 0 0 1 0.441154,0.35455 1.5859867,1.5859867 0 0 1 0.270646,0.51693 2.0866821,2.0866821 0 0 1 0.08931,0.61708 2.1976471,2.1976471 0 0 1 -0.08661,0.61977 1.3992408,1.3992408 0 0 1 -0.270646,0.50882 1.2097885,1.2097885 0 0 1 -0.441153,0.34372 1.4154796,1.4154796 0 0 1 -0.614367,0.1245 1.5129122,1.5129122 0 0 1 -0.254407,-0.0244 1.4993799,1.4993799 0 0 1 -0.270647,-0.0758 1.2287337,1.2287337 0 0 1 -0.270646,-0.14615 0.84170965,0.84170965 0 0 1 -0.205691,-0.23005 v 0 0.41138 h -0.506108 v -4.25185 z m 1.818743,2.25719 a 1.0825848,1.0825848 0 0 0 -0.173214,-0.36537 0.83359027,0.83359027 0 0 0 -0.29771,-0.27065 0.91207766,0.91207766 0 0 0 -0.424915,-0.0947 0.87148073,0.87148073 0 0 0 -0.43574,0.10013 0.8525355,0.8525355 0 0 0 -0.289592,0.27065 1.1394205,1.1394205 0 0 0 -0.165094,0.37349 1.8403941,1.8403941 0 0 0 -0.05142,0.42221 1.8025036,1.8025036 0 0 0 0.05413,0.43845 1.0365749,1.0365749 0 0 0 0.170508,0.37078 0.87148073,0.87148073 0 0 0 0.300417,0.27065 0.93914228,0.93914228 0 0 0 0.446566,0.0974 0.86877427,0.86877427 0 0 0 0.438447,-0.10014 0.81193857,0.81193857 0 0 0 0.270646,-0.27064 1.0825848,1.0825848 0 0 0 0.154268,-0.38161 1.986543,1.986543 0 0 0 0.04872,-0.44116 1.5670414,1.5670414 0 0 0 -0.04601,-0.4195 z"
     style="fill:#757575;fill-opacity:1;stroke-width:0.27064618"
     id="path112"
     inkscape:connector-curvature="0" />
  <path
     d="m 50.41056,40.13141 v -0.61978 h 0.506108 v 0.61978 z m 0.506108,0.5413 v 3.07995 H 50.41056 v -3.07995 z"
     style="fill:#757575;fill-opacity:1;stroke-width:0.27064618"
     id="path114"
     inkscape:connector-curvature="0" />
  <path
     d="m 52.150815,39.4981 v 4.25185 H 51.644706 V 39.4981 Z"
     style="fill:#757575;fill-opacity:1;stroke-width:0.27064618"
     id="path116"
     inkscape:connector-curvature="0" />
  <path
     d="m 55.090032,43.74995 v -0.41679 0 a 0.74698349,0.74698349 0 0 1 -0.392437,0.36808 1.4993799,1.4993799 0 0 1 -0.590009,0.11367 1.3965343,1.3965343 0 0 1 -0.622486,-0.12991 1.3153405,1.3153405 0 0 1 -0.441153,-0.35184 1.5589221,1.5589221 0 0 1 -0.270646,-0.51152 2.1191597,2.1191597 0 0 1 -0.08931,-0.61978 2.1976471,2.1976471 0 0 1 0.08661,-0.61978 1.4425442,1.4425442 0 0 1 0.270646,-0.50882 1.2449725,1.2449725 0 0 1 0.441154,-0.34643 1.4154796,1.4154796 0 0 1 0.614367,-0.1272 1.4669024,1.4669024 0 0 1 0.541292,0.10285 1.242266,1.242266 0 0 1 0.270646,0.14885 0.84170965,0.84170965 0 0 1 0.205691,0.23005 v 0 -1.58328 h 0.506109 v 4.25185 z M 53.27129,42.66737 a 1.0825848,1.0825848 0 0 0 0.173213,0.36537 0.81193857,0.81193857 0 0 0 0.297711,0.25711 0.92019705,0.92019705 0 0 0 0.424915,0.0947 0.87148073,0.87148073 0 0 0 0.43574,-0.10014 0.88771951,0.88771951 0 0 0 0.292298,-0.27065 1.1096494,1.1096494 0 0 0 0.162388,-0.37349 1.8403941,1.8403941 0 0 0 0.05142,-0.4222 1.8187424,1.8187424 0 0 0 -0.05413,-0.43845 1.0582266,1.0582266 0 0 0 -0.170507,-0.37079 0.82547088,0.82547088 0 0 0 -0.300417,-0.27064 0.93914228,0.93914228 0 0 0 -0.446566,-0.0974 0.86065489,0.86065489 0 0 0 -0.433034,0.10014 0.81193857,0.81193857 0 0 0 -0.286885,0.27065 1.1421269,1.1421269 0 0 0 -0.154269,0.38161 1.986543,1.986543 0 0 0 -0.04872,0.44115 1.5670414,1.5670414 0 0 0 0.05684,0.42221 z"
     style="fill:#757575;fill-opacity:1;stroke-width:0.27064618"
     id="path118"
     inkscape:connector-curvature="0" />
  <path
     d="m 58.359438,43.74995 v -0.48987 0 a 1.0419878,1.0419878 0 0 1 -0.411382,0.4195 1.2341466,1.2341466 0 0 1 -0.590009,0.13533 1.3667633,1.3667633 0 0 1 -0.506108,-0.0812 0.82817734,0.82817734 0 0 1 -0.327482,-0.22734 0.85794842,0.85794842 0 0 1 -0.17592,-0.35455 1.986543,1.986543 0 0 1 -0.05142,-0.45739 v -2.02172 h 0.506109 v 2.08397 a 0.57647639,0.57647639 0 0 0 0.625192,0.61978 1.0636395,1.0636395 0 0 0 0.403263,-0.0704 0.76863518,0.76863518 0 0 0 0.270646,-0.20298 0.86877427,0.86877427 0 0 0 0.170507,-0.30583 1.2557983,1.2557983 0 0 0 0.05684,-0.38432 v -1.74025 h 0.506108 v 3.07995 z"
     style="fill:#757575;fill-opacity:1;stroke-width:0.27064618"
     id="path120"
     inkscape:connector-curvature="0" />
  <path
     d="m 59.983315,40.67271 v 0.48986 h 0.01624 a 1.066346,1.066346 0 0 1 1.001391,-0.56023 1.2963953,1.2963953 0 0 1 0.503402,0.0839 0.79299334,0.79299334 0 0 1 0.327482,0.23275 0.83088381,0.83088381 0 0 1 0.17592,0.35184 1.8485135,1.8485135 0 0 1 0.05142,0.4574 v 2.02443 h -0.506109 v -2.08398 a 0.59812808,0.59812808 0 0 0 -0.1678,-0.45198 0.61707332,0.61707332 0 0 0 -0.457393,-0.1678 1.0501072,1.0501072 0 0 0 -0.400556,0.0704 0.77946103,0.77946103 0 0 0 -0.284178,0.20299 0.86877427,0.86877427 0 0 0 -0.170507,0.30583 1.2557983,1.2557983 0 0 0 -0.05684,0.38431 v 1.74026 h -0.503402 v -3.07995 z"
     style="fill:#757575;fill-opacity:1;stroke-width:0.27064618"
     id="path122"
     inkscape:connector-curvature="0" />
  <path
     d="m 65.038986,44.61873 a 1.4073602,1.4073602 0 0 1 -1.082585,0.3762 2.0542046,2.0542046 0 0 1 -0.438446,-0.0487 1.353231,1.353231 0 0 1 -0.403263,-0.15427 0.97161983,0.97161983 0 0 1 -0.303124,-0.27065 0.7956998,0.7956998 0 0 1 -0.12991,-0.4222 h 0.506108 a 0.36807882,0.36807882 0 0 0 0.08661,0.23275 0.66037671,0.66037671 0 0 0 0.197572,0.15427 0.92019705,0.92019705 0 0 0 0.251701,0.0866 1.2909823,1.2909823 0 0 0 0.270646,0.0271 0.94726167,0.94726167 0 0 0 0.422208,-0.0866 0.76592872,0.76592872 0 0 0 0.286885,-0.23816 0.94184874,0.94184874 0 0 0 0.162388,-0.36538 1.9784237,1.9784237 0 0 0 0.05142,-0.47092 v -0.20299 0 a 0.84170965,0.84170965 0 0 1 -0.395143,0.41951 1.2260272,1.2260272 0 0 1 -0.562944,0.13532 1.383002,1.383002 0 0 1 -0.600835,-0.1245 1.2557983,1.2557983 0 0 1 -0.427621,-0.33831 1.4073602,1.4073602 0 0 1 -0.270646,-0.49257 2.0758563,2.0758563 0 0 1 -0.08661,-0.59813 2.4114576,2.4114576 0 0 1 0.07037,-0.56294 1.5697479,1.5697479 0 0 1 0.238169,-0.52506 1.3315793,1.3315793 0 0 1 0.441153,-0.38702 1.3938279,1.3938279 0 0 1 0.673909,-0.15156 1.1502463,1.1502463 0 0 1 0.541293,0.1272 0.91749059,0.91749059 0 0 1 0.381611,0.38432 v 0 -0.44927 h 0.476337 v 2.81472 a 1.6238771,1.6238771 0 0 1 -0.357253,1.1313 z m -0.644138,-1.38571 a 0.81193857,0.81193857 0 0 0 0.270646,-0.27065 1.2476789,1.2476789 0 0 0 0.156975,-0.38432 1.7592002,1.7592002 0 0 0 0.05142,-0.42762 1.6238771,1.6238771 0 0 0 -0.04872,-0.39785 1.0419878,1.0419878 0 0 0 -0.151562,-0.35454 0.78758042,0.78758042 0 0 0 -0.270646,-0.25441 0.81193857,0.81193857 0 0 0 -0.403263,-0.0947 0.86336135,0.86336135 0 0 0 -0.416795,0.092 0.81193857,0.81193857 0 0 0 -0.284179,0.24629 1.0825848,1.0825848 0 0 0 -0.159681,0.35725 1.6780064,1.6780064 0 0 0 -0.05142,0.42492 2.1949406,2.1949406 0 0 0 0.0406,0.41679 1.2341466,1.2341466 0 0 0 0.143442,0.3762 0.78487395,0.78487395 0 0 0 0.270647,0.27065 0.76863518,0.76863518 0 0 0 0.416795,0.10555 0.81193857,0.81193857 0 0 0 0.43574,-0.10555 z"
     style="fill:#757575;fill-opacity:1;stroke-width:0.27064618"
     id="path124"
     inkscape:connector-curvature="0" />
</svg>
