<?xml version="1.0" encoding="UTF-8" standalone="no"?>
<!-- Generator: Adobe Illustrator 25.0.1, SVG Export Plug-In . SVG Version: 6.00 Build 0)  -->

<svg
   xmlns:dc="http://purl.org/dc/elements/1.1/"
   xmlns:cc="http://creativecommons.org/ns#"
   xmlns:rdf="http://www.w3.org/1999/02/22-rdf-syntax-ns#"
   xmlns:svg="http://www.w3.org/2000/svg"
   xmlns="http://www.w3.org/2000/svg"
   xmlns:sodipodi="http://sodipodi.sourceforge.net/DTD/sodipodi-0.dtd"
   xmlns:inkscape="http://www.inkscape.org/namespaces/inkscape"
   version="1.0"
   id="Ebene_1"
   x="0px"
   y="0px"
   viewBox="0 0 312.6 67.6"
   xml:space="preserve"
   sodipodi:docname="Logo_Sektion_Medienpaedagogik_light.svg"
   width="312.60001"
   height="67.599998"
   inkscape:version="0.92.5 (2060ec1f9f, 2020-04-08)"><metadata
   id="metadata157"><rdf:RDF><cc:Work
       rdf:about=""><dc:format>image/svg+xml</dc:format><dc:type
         rdf:resource="http://purl.org/dc/dcmitype/StillImage" /><dc:title></dc:title></cc:Work></rdf:RDF></metadata><defs
   id="defs155" /><sodipodi:namedview
   pagecolor="#ffffff"
   bordercolor="#666666"
   borderopacity="1"
   objecttolerance="10"
   gridtolerance="10"
   guidetolerance="10"
   inkscape:pageopacity="0"
   inkscape:pageshadow="2"
   inkscape:window-width="2560"
   inkscape:window-height="1276"
   id="namedview153"
   showgrid="false"
   fit-margin-top="0"
   fit-margin-left="0"
   fit-margin-right="0"
   fit-margin-bottom="0"
   inkscape:zoom="2.16"
   inkscape:cx="162.99493"
   inkscape:cy="7.1257772"
   inkscape:window-x="0"
   inkscape:window-y="25"
   inkscape:window-maximized="1"
   inkscape:current-layer="Ebene_1" />
<style
   type="text/css"
   id="style2">
	.st0{fill:#7D7D7D;}
	.st1{fill:#9E9E9E;}
	.st2{fill:#C5C5C5;}
	.st3{fill:#514F4F;}
	.st4{fill:#66CACC;}
</style>
<g
   id="g12"
   transform="translate(-263,-264)">
	<path
   class="st0"
   d="M 328.4,279.7 H 324 v -4.3 h 4.5 v -3 c 0,-4.3 2.6,-7.4 7.4,-7.4 1.5,0 3.2,0.2 4.4,0.5 l -0.5,4.7 c -0.5,-0.3 -1.3,-0.8 -2.6,-0.8 -2,0 -2.8,1.6 -2.8,3.3 v 2.7 h 5.3 v 4.3 h -5.3 v 17.4 h -5.9 l -0.1,-17.4"
   id="path4"
   inkscape:connector-curvature="0"
   style="fill:#7d7d7d" />
	<path
   class="st1"
   d="m 319.5,266.3 c -2.7,-0.8 -5.6,-1.3 -9.2,-1.3 -10.7,0 -17.2,6 -17.2,16.8 0,10.6 7.1,15.7 17.2,15.7 3.4,0 6.8,-0.7 10.2,-1.6 V 279 h -12.7 v 5 h 6.7 v 8.2 c -1.1,0.3 -2.4,0.5 -4.1,0.5 -6.7,0 -10.7,-4.8 -10.7,-11.2 0,-6.4 4,-11.4 11.4,-11.4 2.5,0 5.7,0.5 8.1,1.7 z m 0,0"
   id="path6"
   inkscape:connector-curvature="0"
   style="fill:#9e9e9e" />
	<path
   class="st2"
   d="m 263,297 h 8.6 c 9.6,0 18.1,-3.2 18.1,-15.7 0,-12.5 -8.5,-15.7 -18.1,-15.7 H 263 Z m 6.3,-26.5 h 3.5 c 5.3,0 10.4,3.9 10.4,10.8 0,6.8 -5.1,10.8 -10.4,10.8 h -3.5 z m 0,0"
   id="path8"
   inkscape:connector-curvature="0"
   style="fill:#c5c5c5" />
	<path
   class="st3"
   d="m 345.2,297 h 18.6 v -5 h -12.3 v -8.8 h 11.2 v -5 h -11.2 v -7.7 h 12.2 v -5 h -18.5 z m 0,0"
   id="path10"
   inkscape:connector-curvature="0"
   style="fill:#514f4f" />
</g>
<g
   id="g104"
   transform="translate(-263,-264)">
	<path
   class="st2"
   d="m 376.3,277.7 v -12.5 h 2.4 c 1.2,0 2.2,0.1 2.8,0.2 0.6,0.1 1.2,0.3 1.6,0.7 0.5,0.3 0.9,0.7 1.3,1.3 0.4,0.6 0.7,1.2 0.9,1.9 0.2,0.7 0.3,1.5 0.3,2.3 0,0.9 -0.2,1.8 -0.5,2.6 -0.2,0.6 -0.6,1.1 -0.9,1.6 -0.4,0.4 -0.8,0.8 -1.2,1.1 -0.5,0.4 -1.2,0.6 -1.9,0.8 -0.7,0.2 -1.7,0.3 -3.1,0.3 h -1.7 z m 1.2,-11.5 v 10.3 h 1.3 c 0.9,0 1.6,-0.1 2.3,-0.3 0.7,-0.2 1.2,-0.5 1.6,-0.8 0.5,-0.4 0.9,-1 1.2,-1.7 0.3,-0.7 0.5,-1.5 0.5,-2.4 0,-0.7 -0.1,-1.4 -0.3,-2 -0.2,-0.6 -0.4,-1.1 -0.7,-1.5 -0.3,-0.4 -0.6,-0.7 -1,-1 -0.4,-0.3 -0.8,-0.4 -1.3,-0.5 -0.5,-0.1 -1.2,-0.2 -2.1,-0.2 h -1.5 z"
   id="path14"
   inkscape:connector-curvature="0"
   style="fill:#c5c5c5" />
	<path
   class="st2"
   d="m 394.8,273.4 h -6.4 c 0,0.7 0.2,1.4 0.4,1.9 0.2,0.5 0.7,0.9 1.2,1.2 0.5,0.3 1,0.4 1.6,0.4 0.4,0 0.8,-0.1 1.3,-0.2 0.5,-0.1 0.9,-0.3 1.2,-0.5 l 0.1,1.1 c -0.4,0.2 -0.9,0.3 -1.4,0.4 -0.5,0.1 -1,0.1 -1.4,0.1 -0.8,0 -1.4,-0.2 -2.1,-0.6 -0.7,-0.4 -1.1,-0.9 -1.5,-1.6 -0.4,-0.7 -0.5,-1.6 -0.5,-2.5 0,-1.5 0.4,-2.6 1.2,-3.4 0.8,-0.8 1.7,-1.2 2.9,-1.2 1.2,0 2,0.4 2.6,1.2 0.6,0.8 0.9,1.9 0.9,3.2 -0.1,0.1 -0.1,0.2 -0.1,0.5 z m -6.4,-0.9 h 5.2 c 0,-1 -0.3,-1.8 -0.7,-2.3 -0.4,-0.5 -1,-0.8 -1.7,-0.8 -0.4,0 -0.9,0.1 -1.3,0.3 -0.4,0.2 -0.8,0.6 -1,1 -0.2,0.4 -0.4,1.1 -0.5,1.8 z"
   id="path16"
   inkscape:connector-curvature="0"
   style="fill:#c5c5c5" />
	<path
   class="st2"
   d="m 396.7,268.6 h 1.1 v 5.7 c 0,0.6 0.1,1.1 0.3,1.4 0.2,0.3 0.4,0.6 0.8,0.8 0.4,0.2 0.7,0.3 1.1,0.3 0.5,0 0.9,-0.2 1.4,-0.5 0.4,-0.3 0.8,-0.7 1,-1.3 0.2,-0.6 0.3,-1 0.3,-1.5 v -5 h 1.2 v 7 c 0,0.6 0,1.3 0.1,2 h -1.1 v -1.8 c -0.3,0.6 -0.8,1.1 -1.3,1.5 -0.5,0.3 -1.1,0.5 -1.8,0.5 -0.5,0 -1,-0.1 -1.5,-0.4 -0.4,-0.2 -0.8,-0.5 -1,-0.9 -0.2,-0.4 -0.4,-0.8 -0.5,-1.3 0,-0.2 -0.1,-0.7 -0.1,-1.4 z"
   id="path18"
   inkscape:connector-curvature="0"
   style="fill:#c5c5c5" />
	<path
   class="st2"
   d="m 407.3,269.5 h -1.8 v -1 h 1.8 v -2.3 l 1.1,-0.4 v 2.7 h 2.1 v 1 h -2.1 v 5.7 c 0,0.6 0.1,1 0.3,1.2 0.2,0.2 0.5,0.3 0.9,0.3 0.3,0 0.6,-0.1 1,-0.2 l 0.1,1 c -0.4,0.2 -0.9,0.3 -1.4,0.3 -0.6,0 -1.1,-0.2 -1.5,-0.6 -0.4,-0.4 -0.5,-1 -0.5,-1.7 z"
   id="path20"
   inkscape:connector-curvature="0"
   style="fill:#c5c5c5" />
	<path
   class="st2"
   d="m 411.5,277.3 0.1,-1.1 c 0.8,0.4 1.6,0.6 2.3,0.6 0.6,0 1.1,-0.2 1.5,-0.5 0.4,-0.3 0.6,-0.7 0.6,-1.1 0,-0.2 0,-0.4 -0.1,-0.6 -0.1,-0.2 -0.3,-0.4 -0.5,-0.5 -0.1,-0.1 -0.4,-0.2 -0.9,-0.5 -1.3,-0.6 -2.2,-1.1 -2.5,-1.5 -0.3,-0.4 -0.5,-0.8 -0.5,-1.3 0,-0.8 0.3,-1.3 0.9,-1.7 0.6,-0.4 1.3,-0.6 2.1,-0.6 0.4,0 0.8,0 1.2,0.1 0.4,0.1 0.8,0.2 1.1,0.3 l -0.1,1 c -0.7,-0.3 -1.4,-0.5 -2.2,-0.5 -0.6,0 -1,0.1 -1.3,0.4 -0.3,0.3 -0.5,0.6 -0.5,0.9 0,0.2 0.1,0.4 0.2,0.6 0.1,0.2 0.4,0.4 0.7,0.6 0.2,0.1 0.7,0.3 1.5,0.7 0.8,0.4 1.4,0.8 1.7,1.1 0.3,0.4 0.4,0.8 0.4,1.4 0,0.8 -0.3,1.4 -0.8,1.8 -0.7,0.6 -1.5,0.8 -2.7,0.8 -0.5,0.1 -1.3,0 -2.2,-0.4 z"
   id="path22"
   inkscape:connector-curvature="0"
   style="fill:#c5c5c5" />
	<path
   class="st2"
   d="m 425.3,268.8 -0.1,1.2 c -0.7,-0.3 -1.3,-0.4 -2,-0.4 -1,0 -1.8,0.3 -2.5,1 -0.6,0.6 -1,1.5 -1,2.6 0,0.7 0.1,1.3 0.4,1.9 0.3,0.6 0.7,1 1.2,1.3 0.5,0.3 1.1,0.5 1.8,0.5 0.7,0 1.4,-0.1 2,-0.4 l 0.1,1.1 c -0.7,0.2 -1.4,0.4 -2.3,0.4 -1.3,0 -2.4,-0.4 -3.2,-1.3 -0.8,-0.9 -1.2,-2 -1.2,-3.4 0,-0.9 0.2,-1.7 0.6,-2.5 0.4,-0.7 0.9,-1.3 1.6,-1.6 0.7,-0.3 1.5,-0.6 2.3,-0.6 0.8,-0.2 1.5,-0.1 2.3,0.2 z"
   id="path24"
   inkscape:connector-curvature="0"
   style="fill:#c5c5c5" />
	<path
   class="st2"
   d="m 433.8,277.7 h -1.2 v -5.5 c 0,-0.7 -0.1,-1.2 -0.2,-1.6 -0.1,-0.4 -0.4,-0.6 -0.7,-0.9 -0.3,-0.3 -0.7,-0.3 -1.2,-0.3 -0.4,0 -0.8,0.1 -1.2,0.3 -0.4,0.2 -0.7,0.5 -0.9,0.8 -0.2,0.2 -0.3,0.5 -0.5,0.9 -0.1,0.4 -0.2,0.8 -0.2,1.2 v 5 h -1.1 v -13.5 h 1.1 v 6.2 c 0.3,-0.6 0.7,-1.1 1.1,-1.3 0.6,-0.4 1.2,-0.6 1.9,-0.6 0.5,0 0.9,0.1 1.2,0.2 0.3,0.1 0.7,0.3 0.9,0.5 0.2,0.2 0.4,0.5 0.5,0.7 0.1,0.3 0.2,0.6 0.3,1.1 0,0.3 0.1,0.7 0.1,1.4 v 5.4 z"
   id="path26"
   inkscape:connector-curvature="0"
   style="fill:#c5c5c5" />
	<path
   class="st2"
   d="m 443.3,273.4 h -6.4 c 0,0.7 0.2,1.4 0.4,1.9 0.2,0.5 0.7,0.9 1.2,1.2 0.5,0.3 1,0.4 1.6,0.4 0.4,0 0.8,-0.1 1.3,-0.2 0.5,-0.1 0.9,-0.3 1.2,-0.5 l 0.1,1.1 c -0.4,0.2 -0.9,0.3 -1.4,0.4 -0.5,0.1 -1,0.1 -1.4,0.1 -0.8,0 -1.4,-0.2 -2.1,-0.6 -0.7,-0.4 -1.1,-0.9 -1.5,-1.6 -0.4,-0.7 -0.5,-1.6 -0.5,-2.5 0,-1.5 0.4,-2.6 1.2,-3.4 0.8,-0.8 1.7,-1.2 2.9,-1.2 1.2,0 2,0.4 2.7,1.2 0.7,0.8 0.9,1.9 0.9,3.2 -0.2,0.1 -0.2,0.2 -0.2,0.5 z m -6.4,-0.9 h 5.2 c 0,-1 -0.3,-1.8 -0.7,-2.3 -0.4,-0.5 -1,-0.8 -1.7,-0.8 -0.4,0 -0.9,0.1 -1.3,0.3 -0.4,0.2 -0.8,0.6 -1,1 -0.2,0.4 -0.4,1.1 -0.5,1.8 z"
   id="path28"
   inkscape:connector-curvature="0"
   style="fill:#c5c5c5" />
	<path
   class="st2"
   d="m 459.5,265.6 -0.1,1.1 c -0.8,-0.4 -1.8,-0.7 -3,-0.7 -1.6,0 -2.8,0.5 -3.8,1.4 -0.9,0.9 -1.4,2.2 -1.4,3.8 0,1.1 0.2,2 0.6,2.8 0.4,0.8 1,1.5 1.9,1.9 0.9,0.4 1.7,0.7 2.7,0.7 0.9,0 1.7,-0.1 2.5,-0.4 V 272 H 456 v -1.1 h 4.1 v 6.1 c -0.6,0.2 -1.2,0.4 -2,0.6 -0.8,0.2 -1.5,0.2 -2.1,0.2 -1.5,0 -2.8,-0.5 -3.9,-1.4 -1.4,-1.2 -2.2,-2.9 -2.2,-5.1 0,-1.9 0.6,-3.4 1.8,-4.5 1.2,-1.1 2.8,-1.7 4.8,-1.7 1,-0.1 2,0.1 3,0.5 z"
   id="path30"
   inkscape:connector-curvature="0"
   style="fill:#c5c5c5" />
	<path
   class="st2"
   d="m 469.8,273.4 h -6.4 c 0,0.7 0.2,1.4 0.4,1.9 0.2,0.5 0.7,0.9 1.2,1.2 0.5,0.3 1,0.4 1.6,0.4 0.4,0 0.8,-0.1 1.3,-0.2 0.5,-0.1 0.9,-0.3 1.2,-0.5 l 0.1,1.1 c -0.4,0.2 -0.9,0.3 -1.4,0.4 -0.5,0.1 -1,0.1 -1.4,0.1 -0.8,0 -1.4,-0.2 -2.1,-0.6 -0.7,-0.4 -1.1,-0.9 -1.5,-1.6 -0.4,-0.7 -0.5,-1.6 -0.5,-2.5 0,-1.5 0.4,-2.6 1.2,-3.4 0.8,-0.8 1.7,-1.2 2.9,-1.2 1.2,0 2,0.4 2.7,1.2 0.7,0.8 0.9,1.9 0.9,3.2 -0.2,0.1 -0.2,0.2 -0.2,0.5 z m -6.4,-0.9 h 5.2 c 0,-1 -0.3,-1.8 -0.7,-2.3 -0.4,-0.5 -1,-0.8 -1.7,-0.8 -0.4,0 -0.9,0.1 -1.3,0.3 -0.4,0.2 -0.8,0.6 -1,1 -0.2,0.4 -0.5,1.1 -0.5,1.8 z"
   id="path32"
   inkscape:connector-curvature="0"
   style="fill:#c5c5c5" />
	<path
   class="st2"
   d="m 470.8,277.3 0.1,-1.1 c 0.8,0.4 1.6,0.6 2.3,0.6 0.6,0 1.1,-0.2 1.5,-0.5 0.4,-0.3 0.6,-0.7 0.6,-1.1 0,-0.2 0,-0.4 -0.1,-0.6 -0.1,-0.2 -0.3,-0.4 -0.5,-0.5 -0.1,-0.1 -0.4,-0.2 -0.9,-0.5 -1.3,-0.6 -2.2,-1.1 -2.5,-1.5 -0.3,-0.4 -0.5,-0.8 -0.5,-1.3 0,-0.8 0.3,-1.3 0.9,-1.7 0.6,-0.4 1.3,-0.6 2.1,-0.6 0.4,0 0.8,0 1.2,0.1 0.4,0.1 0.8,0.2 1.1,0.3 l -0.1,1 c -0.7,-0.3 -1.4,-0.5 -2.2,-0.5 -0.6,0 -1,0.1 -1.3,0.4 -0.3,0.3 -0.5,0.6 -0.5,0.9 0,0.2 0.1,0.4 0.2,0.6 0.1,0.2 0.4,0.4 0.7,0.6 0.2,0.1 0.7,0.3 1.5,0.7 0.8,0.4 1.4,0.8 1.7,1.1 0.3,0.4 0.4,0.8 0.4,1.4 0,0.8 -0.3,1.4 -0.8,1.8 -0.7,0.6 -1.6,0.8 -2.7,0.8 -0.5,0.1 -1.3,0 -2.2,-0.4 z"
   id="path34"
   inkscape:connector-curvature="0"
   style="fill:#c5c5c5" />
	<path
   class="st2"
   d="M 485.4,273.4 H 479 c 0,0.7 0.2,1.4 0.4,1.9 0.2,0.5 0.7,0.9 1.2,1.2 0.5,0.3 1,0.4 1.6,0.4 0.4,0 0.8,-0.1 1.3,-0.2 0.5,-0.1 0.9,-0.3 1.2,-0.5 l 0.1,1.1 c -0.4,0.2 -0.9,0.3 -1.4,0.4 -0.5,0.1 -1,0.1 -1.4,0.1 -0.8,0 -1.4,-0.2 -2.1,-0.6 -0.6,-0.4 -1.1,-0.9 -1.5,-1.6 -0.4,-0.7 -0.5,-1.6 -0.5,-2.5 0,-1.5 0.4,-2.6 1.2,-3.4 0.8,-0.8 1.7,-1.2 2.9,-1.2 1.2,0 2,0.4 2.6,1.2 0.6,0.8 0.9,1.9 0.9,3.2 -0.1,0.1 -0.1,0.2 -0.1,0.5 z m -6.4,-0.9 h 5.2 c 0,-1 -0.3,-1.8 -0.7,-2.3 -0.4,-0.5 -1,-0.8 -1.7,-0.8 -0.4,0 -0.9,0.1 -1.3,0.3 -0.4,0.2 -0.8,0.6 -1,1 -0.2,0.4 -0.4,1.1 -0.5,1.8 z"
   id="path36"
   inkscape:connector-curvature="0"
   style="fill:#c5c5c5" />
	<path
   class="st2"
   d="m 487.3,277.7 v -13.5 h 1.1 v 13.5 z"
   id="path38"
   inkscape:connector-curvature="0"
   style="fill:#c5c5c5" />
	<path
   class="st2"
   d="m 491.1,277.7 v -13.5 h 1.1 v 13.5 z"
   id="path40"
   inkscape:connector-curvature="0"
   style="fill:#c5c5c5" />
	<path
   class="st2"
   d="m 494.1,277.3 0.1,-1.1 c 0.8,0.4 1.6,0.6 2.3,0.6 0.6,0 1.1,-0.2 1.5,-0.5 0.4,-0.3 0.6,-0.7 0.6,-1.1 0,-0.2 0,-0.4 -0.1,-0.6 -0.1,-0.2 -0.3,-0.4 -0.5,-0.5 -0.1,-0.1 -0.4,-0.2 -0.9,-0.5 -1.3,-0.6 -2.2,-1.1 -2.5,-1.5 -0.3,-0.4 -0.5,-0.8 -0.5,-1.3 0,-0.8 0.3,-1.3 0.9,-1.7 0.6,-0.4 1.3,-0.6 2.1,-0.6 0.4,0 0.8,0 1.2,0.1 0.4,0.1 0.8,0.2 1.1,0.3 l -0.1,1 c -0.7,-0.3 -1.4,-0.5 -2.2,-0.5 -0.6,0 -1,0.1 -1.3,0.4 -0.3,0.3 -0.5,0.6 -0.5,0.9 0,0.2 0.1,0.4 0.2,0.6 0.1,0.2 0.4,0.4 0.7,0.6 0.2,0.1 0.7,0.3 1.5,0.7 0.8,0.4 1.4,0.8 1.7,1.1 0.3,0.4 0.4,0.8 0.4,1.4 0,0.8 -0.3,1.4 -0.8,1.8 -0.7,0.6 -1.5,0.8 -2.7,0.8 -0.5,0.1 -1.3,0 -2.2,-0.4 z"
   id="path42"
   inkscape:connector-curvature="0"
   style="fill:#c5c5c5" />
	<path
   class="st2"
   d="m 507.9,268.8 -0.1,1.2 c -0.7,-0.3 -1.3,-0.4 -2,-0.4 -1,0 -1.8,0.3 -2.5,1 -0.6,0.6 -1,1.5 -1,2.6 0,0.7 0.1,1.3 0.4,1.9 0.3,0.6 0.7,1 1.2,1.3 0.5,0.3 1.1,0.5 1.8,0.5 0.7,0 1.4,-0.1 2,-0.4 l 0.1,1.1 c -0.7,0.2 -1.4,0.4 -2.3,0.4 -1.3,0 -2.4,-0.4 -3.2,-1.3 -0.8,-0.9 -1.2,-2 -1.2,-3.4 0,-0.9 0.2,-1.7 0.6,-2.5 0.4,-0.7 0.9,-1.3 1.6,-1.6 0.7,-0.3 1.5,-0.6 2.3,-0.6 0.8,-0.2 1.5,-0.1 2.3,0.2 z"
   id="path44"
   inkscape:connector-curvature="0"
   style="fill:#c5c5c5" />
	<path
   class="st2"
   d="m 516.3,277.7 h -1.2 v -5.5 c 0,-0.7 -0.1,-1.2 -0.2,-1.6 -0.1,-0.4 -0.4,-0.6 -0.7,-0.9 -0.3,-0.3 -0.7,-0.3 -1.2,-0.3 -0.4,0 -0.8,0.1 -1.2,0.3 -0.4,0.2 -0.7,0.5 -0.9,0.8 -0.2,0.2 -0.3,0.5 -0.5,0.9 -0.1,0.4 -0.2,0.8 -0.2,1.2 v 5 h -1.1 v -13.5 h 1.1 v 6.2 c 0.3,-0.6 0.7,-1.1 1.1,-1.3 0.6,-0.4 1.2,-0.6 1.9,-0.6 0.5,0 0.9,0.1 1.2,0.2 0.3,0.1 0.7,0.3 0.9,0.5 0.2,0.2 0.4,0.5 0.5,0.7 0.1,0.3 0.2,0.6 0.3,1.1 0,0.3 0.1,0.7 0.1,1.4 v 5.4 z"
   id="path46"
   inkscape:connector-curvature="0"
   style="fill:#c5c5c5" />
	<path
   class="st2"
   d="m 525.3,277.7 h -1.1 v -1.6 c -0.3,0.5 -0.7,0.9 -1.2,1.2 -0.6,0.3 -1.2,0.5 -1.9,0.5 -0.9,0 -1.6,-0.2 -2.1,-0.7 -0.5,-0.5 -0.8,-1.1 -0.8,-1.9 0,-0.6 0.2,-1.1 0.5,-1.5 0.3,-0.5 0.8,-0.8 1.5,-1.1 0.7,-0.3 1.6,-0.4 2.8,-0.4 0.2,0 0.5,0 1,0 0,-1.1 -0.2,-1.8 -0.5,-2.1 -0.3,-0.3 -0.9,-0.6 -1.7,-0.6 -0.5,0 -1,0.1 -1.4,0.2 -0.4,0.1 -0.9,0.3 -1.2,0.6 v -1.2 c 0.3,-0.2 0.7,-0.3 1.3,-0.4 0.5,-0.1 1,-0.2 1.5,-0.2 0.7,0 1.2,0.1 1.6,0.3 0.4,0.2 0.7,0.5 1,0.8 0.2,0.3 0.3,0.6 0.4,1.1 0,0.3 0.1,0.9 0.1,1.7 v 3.6 c 0.1,0.4 0.1,1 0.2,1.7 z m -1.2,-4.6 c -0.3,0 -0.5,0 -0.7,0 -0.8,0 -1.4,0 -1.8,0.1 -0.5,0.1 -0.9,0.2 -1.2,0.4 -0.3,0.2 -0.6,0.4 -0.7,0.7 -0.1,0.3 -0.3,0.6 -0.3,0.9 0,0.5 0.2,0.9 0.5,1.2 0.3,0.3 0.8,0.5 1.4,0.5 0.4,0 0.7,-0.1 1.1,-0.2 0.4,-0.1 0.6,-0.3 0.8,-0.5 0.2,-0.2 0.4,-0.4 0.5,-0.6 0.1,-0.2 0.2,-0.5 0.2,-0.7 0.1,-0.4 0.1,-1 0.2,-1.8 z"
   id="path48"
   inkscape:connector-curvature="0"
   style="fill:#c5c5c5" />
	<path
   class="st2"
   d="m 532.1,264.2 -0.1,1.1 c -0.3,-0.1 -0.6,-0.2 -0.9,-0.2 -0.4,0 -0.8,0.2 -1,0.5 -0.2,0.3 -0.4,0.8 -0.4,1.6 v 1.4 h 2.1 v 1 h -2.1 v 8.1 h -1.1 v -8.1 h -1.9 v -1 h 1.9 v -1.3 c 0,-0.9 0.1,-1.5 0.3,-2 0.2,-0.5 0.5,-0.8 0.9,-1 0.4,-0.2 0.8,-0.3 1.2,-0.3 0.3,0 0.7,0.1 1.1,0.2 z"
   id="path50"
   inkscape:connector-curvature="0"
   style="fill:#c5c5c5" />
	<path
   class="st2"
   d="m 533.6,269.5 h -1.8 v -1 h 1.8 v -2.3 l 1.1,-0.4 v 2.7 h 2.1 v 1 h -2.1 v 5.7 c 0,0.6 0.1,1 0.3,1.2 0.2,0.2 0.5,0.3 0.9,0.3 0.3,0 0.6,-0.1 1,-0.2 l 0.1,1 c -0.4,0.2 -0.9,0.3 -1.4,0.3 -0.6,0 -1.1,-0.2 -1.5,-0.6 -0.4,-0.4 -0.5,-1 -0.5,-1.7 z"
   id="path52"
   inkscape:connector-curvature="0"
   style="fill:#c5c5c5" />
	<path
   class="st2"
   d="m 380.4,283.7 -0.1,1.1 c -0.3,-0.1 -0.6,-0.2 -0.9,-0.2 -0.4,0 -0.8,0.2 -1,0.5 -0.2,0.3 -0.4,0.8 -0.4,1.6 v 1.4 h 2.1 v 1 H 378 v 8.1 h -1.1 V 289 H 375 v -1 h 1.9 v -1.3 c 0,-0.9 0.1,-1.5 0.3,-2 0.2,-0.5 0.5,-0.8 0.9,-1 0.4,-0.2 0.8,-0.3 1.2,-0.3 0.3,0.1 0.7,0.2 1.1,0.3 z"
   id="path54"
   inkscape:connector-curvature="0"
   style="fill:#c5c5c5" />
	<path
   class="st2"
   d="m 381.9,288.1 h 1.1 v 5.7 c 0,0.6 0.1,1.1 0.3,1.4 0.2,0.3 0.4,0.6 0.8,0.8 0.4,0.2 0.7,0.3 1.1,0.3 0.5,0 0.9,-0.2 1.4,-0.5 0.4,-0.3 0.8,-0.7 1,-1.3 0.2,-0.6 0.3,-1 0.3,-1.5 v -5 h 1.2 v 7 c 0,0.6 0,1.3 0.1,2 H 388 v -1.8 c -0.3,0.6 -0.8,1.1 -1.3,1.5 -0.5,0.3 -1.1,0.5 -1.8,0.5 -0.5,0 -1,-0.1 -1.5,-0.4 -0.4,-0.2 -0.8,-0.5 -1,-0.9 -0.2,-0.4 -0.4,-0.8 -0.5,-1.3 0,-0.2 -0.1,-0.7 -0.1,-1.4 v -5.1 z m 1.3,-1.7 v -1.6 h 1.3 v 1.6 z m 3.1,0 v -1.6 h 1.3 v 1.6 z"
   id="path56"
   inkscape:connector-curvature="0"
   style="fill:#c5c5c5" />
	<path
   class="st2"
   d="m 392.9,297.2 h -1.1 v -7.5 c 0,-0.4 0,-0.9 -0.1,-1.5 h 1.1 v 2.1 c 0.2,-0.7 0.6,-1.3 1.1,-1.7 0.4,-0.3 0.8,-0.5 1.4,-0.5 0.2,0 0.5,0 0.7,0.1 v 1.2 c -0.2,-0.1 -0.5,-0.1 -0.7,-0.1 -0.3,0 -0.6,0 -0.9,0.1 -0.3,0.1 -0.5,0.2 -0.7,0.5 -0.2,0.2 -0.4,0.5 -0.5,0.7 -0.1,0.2 -0.2,0.4 -0.2,0.7 -0.1,0.5 -0.2,0.9 -0.2,1.4 v 4.5 z"
   id="path58"
   inkscape:connector-curvature="0"
   style="fill:#c5c5c5" />
	<path
   class="st2"
   d="m 402.5,297.2 v -12.5 h 6.1 v 1.1 h -4.9 v 4.4 h 4.7 v 1.1 h -4.7 v 4.8 h 5.1 v 1.1 z"
   id="path60"
   inkscape:connector-curvature="0"
   style="fill:#c5c5c5" />
	<path
   class="st2"
   d="m 412.4,297.2 h -1.1 v -7.5 c 0,-0.4 0,-0.9 -0.1,-1.5 h 1.1 v 2.1 c 0.2,-0.7 0.6,-1.3 1.1,-1.7 0.4,-0.3 0.8,-0.5 1.4,-0.5 0.2,0 0.5,0 0.7,0.1 v 1.2 c -0.2,-0.1 -0.5,-0.1 -0.7,-0.1 -0.3,0 -0.6,0 -0.9,0.1 -0.3,0.1 -0.5,0.2 -0.7,0.5 -0.2,0.2 -0.4,0.5 -0.5,0.7 -0.1,0.2 -0.2,0.4 -0.2,0.7 -0.1,0.5 -0.2,0.9 -0.2,1.4 v 4.5 z"
   id="path62"
   inkscape:connector-curvature="0"
   style="fill:#c5c5c5" />
	<path
   class="st2"
   d="m 423,288.1 v 1 l -5.5,7.2 h 5.5 v 1 h -6.9 v -1 l 5.5,-7.2 h -5.3 v -1 z"
   id="path64"
   inkscape:connector-curvature="0"
   style="fill:#c5c5c5" />
	<path
   class="st2"
   d="M 424.8,285.5 V 284 h 1.3 v 1.5 z m 0.1,11.7 v -9.1 h 1.2 v 9.1 z"
   id="path66"
   inkscape:connector-curvature="0"
   style="fill:#c5c5c5" />
	<path
   class="st2"
   d="m 435.6,292.9 h -6.4 c 0,0.7 0.2,1.4 0.4,1.9 0.2,0.5 0.7,0.9 1.2,1.2 0.5,0.3 1,0.4 1.6,0.4 0.4,0 0.8,-0.1 1.3,-0.2 0.5,-0.1 0.9,-0.3 1.2,-0.5 l 0.1,1.1 c -0.4,0.2 -0.9,0.3 -1.4,0.4 -0.5,0.1 -1,0.1 -1.4,0.1 -0.8,0 -1.4,-0.2 -2.1,-0.6 -0.7,-0.4 -1.1,-0.9 -1.5,-1.6 -0.4,-0.7 -0.5,-1.6 -0.5,-2.5 0,-1.5 0.4,-2.6 1.2,-3.4 0.8,-0.8 1.7,-1.2 2.9,-1.2 1.2,0 2,0.4 2.6,1.2 0.6,0.8 0.9,1.9 0.9,3.2 -0.1,0.1 -0.1,0.2 -0.1,0.5 z m -6.4,-0.9 h 5.2 c 0,-1 -0.3,-1.8 -0.7,-2.3 -0.4,-0.5 -1,-0.8 -1.7,-0.8 -0.4,0 -0.9,0.1 -1.3,0.3 -0.4,0.2 -0.8,0.6 -1,1 -0.2,0.4 -0.5,1.1 -0.5,1.8 z"
   id="path68"
   inkscape:connector-curvature="0"
   style="fill:#c5c5c5" />
	<path
   class="st2"
   d="m 444.7,297.2 h -1.2 v -5.5 c 0,-0.7 -0.1,-1.2 -0.2,-1.6 -0.1,-0.4 -0.4,-0.6 -0.7,-0.9 -0.3,-0.3 -0.7,-0.3 -1.2,-0.3 -0.4,0 -0.8,0.1 -1.2,0.3 -0.4,0.2 -0.7,0.5 -0.9,0.8 -0.2,0.2 -0.3,0.5 -0.5,0.9 -0.1,0.4 -0.2,0.8 -0.2,1.2 v 5 h -1.1 v -13.5 h 1.1 v 6.2 c 0.3,-0.6 0.7,-1.1 1.1,-1.3 0.6,-0.4 1.2,-0.6 1.9,-0.6 0.5,0 0.9,0.1 1.2,0.2 0.3,0.1 0.7,0.3 0.9,0.5 0.2,0.2 0.4,0.5 0.5,0.7 0.1,0.3 0.2,0.6 0.3,1.1 0,0.3 0.1,0.7 0.1,1.4 v 5.4 z"
   id="path70"
   inkscape:connector-curvature="0"
   style="fill:#c5c5c5" />
	<path
   class="st2"
   d="m 447.3,288.1 h 1.1 v 5.7 c 0,0.6 0.1,1.1 0.3,1.4 0.2,0.3 0.4,0.6 0.8,0.8 0.4,0.2 0.7,0.3 1.1,0.3 0.5,0 0.9,-0.2 1.4,-0.5 0.4,-0.3 0.8,-0.7 1,-1.3 0.2,-0.6 0.3,-1 0.3,-1.5 v -5 h 1.2 v 7 c 0,0.6 0,1.3 0.1,2 h -1.1 v -1.8 c -0.3,0.6 -0.8,1.1 -1.3,1.5 -0.5,0.3 -1.1,0.5 -1.8,0.5 -0.5,0 -1,-0.1 -1.5,-0.4 -0.4,-0.2 -0.8,-0.5 -1,-0.9 -0.2,-0.4 -0.4,-0.8 -0.5,-1.3 0,-0.2 -0.1,-0.7 -0.1,-1.4 z"
   id="path72"
   inkscape:connector-curvature="0"
   style="fill:#c5c5c5" />
	<path
   class="st2"
   d="m 464.3,297.2 h -1.1 v -5.4 c 0,-0.7 -0.1,-1.3 -0.2,-1.6 -0.1,-0.4 -0.4,-0.6 -0.7,-0.9 -0.3,-0.2 -0.7,-0.3 -1.2,-0.3 -0.4,0 -0.8,0.1 -1.2,0.3 -0.4,0.2 -0.7,0.5 -0.9,0.8 -0.2,0.2 -0.3,0.5 -0.5,0.9 -0.2,0.4 -0.2,0.8 -0.2,1.2 v 5 h -1.1 v -7 c 0,-0.7 0,-1.3 -0.1,-2 h 1.1 v 1.8 c 0.4,-0.6 0.7,-1 1.2,-1.3 0.6,-0.4 1.2,-0.6 1.9,-0.6 0.4,0 0.9,0.1 1.2,0.2 0.3,0.1 0.7,0.3 0.9,0.5 0.2,0.2 0.4,0.5 0.5,0.7 0.1,0.2 0.2,0.6 0.3,1.1 0,0.3 0.1,0.7 0.1,1.4 z"
   id="path74"
   inkscape:connector-curvature="0"
   style="fill:#c5c5c5" />
	<path
   class="st2"
   d="m 474.1,288.1 v 7.2 c 0,1.4 -0.1,2.4 -0.2,3 -0.2,0.6 -0.4,1.1 -0.8,1.5 -0.4,0.4 -0.8,0.7 -1.4,0.9 -0.6,0.2 -1.2,0.3 -1.8,0.3 -0.4,0 -0.8,0 -1.3,-0.1 -0.5,-0.1 -1,-0.2 -1.5,-0.4 l 0.1,-1.2 c 0.4,0.2 0.9,0.4 1.4,0.5 0.5,0.1 1,0.2 1.4,0.2 0.5,0 1,-0.1 1.4,-0.3 0.4,-0.2 0.7,-0.5 1,-0.8 0.2,-0.3 0.4,-0.8 0.5,-1.3 0.1,-0.4 0.1,-1.2 0.2,-2.4 -0.2,0.6 -0.6,1 -1.1,1.4 -0.5,0.4 -1.1,0.5 -1.8,0.5 -1.1,0 -2.1,-0.4 -2.8,-1.2 -0.7,-0.8 -1.1,-2 -1.1,-3.4 0,-0.7 0.1,-1.3 0.3,-1.9 0.2,-0.6 0.4,-1 0.8,-1.4 0.3,-0.4 0.7,-0.7 1.1,-0.9 0.5,-0.3 1.1,-0.4 1.9,-0.4 1.4,0 2.4,0.5 2.8,1.6 v -1.4 z m -6.6,4.3 c 0,1.1 0.2,1.9 0.6,2.6 0.5,0.8 1.2,1.2 2.1,1.2 0.8,0 1.5,-0.3 2,-0.9 0.5,-0.6 0.8,-1.6 0.8,-2.8 0,-1.2 -0.3,-2.1 -0.8,-2.6 -0.5,-0.5 -1.2,-0.8 -1.9,-0.8 -0.8,0 -1.5,0.3 -2,0.9 -0.5,0.6 -0.8,1.3 -0.8,2.4 z"
   id="path76"
   inkscape:connector-curvature="0"
   style="fill:#c5c5c5" />
	<path
   class="st2"
   d="m 475.9,296.8 0.1,-1.1 c 0.8,0.4 1.6,0.6 2.3,0.6 0.6,0 1.1,-0.2 1.5,-0.5 0.4,-0.3 0.6,-0.7 0.6,-1.1 0,-0.2 0,-0.4 -0.1,-0.6 -0.1,-0.2 -0.3,-0.4 -0.5,-0.5 -0.1,-0.1 -0.4,-0.2 -0.9,-0.5 -1.3,-0.6 -2.2,-1.1 -2.5,-1.5 -0.3,-0.4 -0.5,-0.8 -0.5,-1.3 0,-0.8 0.3,-1.3 0.9,-1.7 0.6,-0.4 1.3,-0.6 2.1,-0.6 0.4,0 0.8,0 1.2,0.1 0.4,0.1 0.8,0.2 1.1,0.3 l -0.1,1 c -0.7,-0.3 -1.4,-0.5 -2.2,-0.5 -0.6,0 -1,0.1 -1.3,0.4 -0.3,0.3 -0.5,0.6 -0.5,0.9 0,0.2 0.1,0.4 0.2,0.6 0.1,0.2 0.4,0.4 0.7,0.6 0.2,0.1 0.7,0.3 1.5,0.7 0.8,0.4 1.4,0.8 1.7,1.1 0.3,0.4 0.4,0.8 0.4,1.4 0,0.8 -0.3,1.4 -0.8,1.8 -0.7,0.6 -1.5,0.8 -2.7,0.8 -0.5,0.1 -1.3,0 -2.2,-0.4 z"
   id="path78"
   inkscape:connector-curvature="0"
   style="fill:#c5c5c5" />
	<path
   class="st2"
   d="m 486.7,297.2 h -1.4 l -2.9,-9.1 h 1.2 l 2.4,7.9 2.5,-7.9 h 1.4 l 2.5,7.9 2.5,-7.9 h 1.2 l -3,9.1 h -1.4 l -2.6,-7.9 z"
   id="path80"
   inkscape:connector-curvature="0"
   style="fill:#c5c5c5" />
	<path
   class="st2"
   d="M 497.4,285.5 V 284 h 1.3 v 1.5 z m 0.1,11.7 v -9.1 h 1.2 v 9.1 z"
   id="path82"
   inkscape:connector-curvature="0"
   style="fill:#c5c5c5" />
	<path
   class="st2"
   d="m 500.4,296.8 0.1,-1.1 c 0.8,0.4 1.6,0.6 2.3,0.6 0.6,0 1.1,-0.2 1.5,-0.5 0.4,-0.3 0.6,-0.7 0.6,-1.1 0,-0.2 0,-0.4 -0.1,-0.6 -0.1,-0.2 -0.3,-0.4 -0.5,-0.5 -0.1,-0.1 -0.4,-0.2 -0.9,-0.5 -1.3,-0.6 -2.2,-1.1 -2.5,-1.5 -0.3,-0.4 -0.5,-0.8 -0.5,-1.3 0,-0.8 0.3,-1.3 0.9,-1.7 0.6,-0.4 1.3,-0.6 2.1,-0.6 0.4,0 0.8,0 1.2,0.1 0.4,0.1 0.8,0.2 1.1,0.3 l -0.1,1 c -0.7,-0.3 -1.4,-0.5 -2.2,-0.5 -0.6,0 -1,0.1 -1.3,0.4 -0.3,0.3 -0.5,0.6 -0.5,0.9 0,0.2 0.1,0.4 0.2,0.6 0.1,0.2 0.4,0.4 0.7,0.6 0.2,0.1 0.7,0.3 1.5,0.7 0.8,0.4 1.4,0.8 1.7,1.1 0.3,0.4 0.4,0.8 0.4,1.4 0,0.8 -0.3,1.4 -0.8,1.8 -0.7,0.6 -1.5,0.8 -2.7,0.8 -0.5,0.1 -1.3,0 -2.2,-0.4 z"
   id="path84"
   inkscape:connector-curvature="0"
   style="fill:#c5c5c5" />
	<path
   class="st2"
   d="m 507.2,296.8 0.1,-1.1 c 0.8,0.4 1.6,0.6 2.3,0.6 0.6,0 1.1,-0.2 1.5,-0.5 0.4,-0.3 0.6,-0.7 0.6,-1.1 0,-0.2 0,-0.4 -0.1,-0.6 -0.1,-0.2 -0.3,-0.4 -0.5,-0.5 -0.1,-0.1 -0.4,-0.2 -0.9,-0.5 -1.3,-0.6 -2.2,-1.1 -2.5,-1.5 -0.3,-0.4 -0.5,-0.8 -0.5,-1.3 0,-0.8 0.3,-1.3 0.9,-1.7 0.6,-0.4 1.3,-0.6 2.1,-0.6 0.4,0 0.8,0 1.2,0.1 0.4,0.1 0.8,0.2 1.1,0.3 l -0.1,1 c -0.7,-0.3 -1.4,-0.5 -2.2,-0.5 -0.6,0 -1,0.1 -1.3,0.4 -0.3,0.3 -0.5,0.6 -0.5,0.9 0,0.2 0.1,0.4 0.2,0.6 0.1,0.2 0.4,0.4 0.7,0.6 0.2,0.1 0.7,0.3 1.5,0.7 0.8,0.4 1.4,0.8 1.7,1.1 0.3,0.4 0.4,0.8 0.4,1.4 0,0.8 -0.3,1.4 -0.8,1.8 -0.7,0.6 -1.5,0.8 -2.7,0.8 -0.5,0.1 -1.3,0 -2.2,-0.4 z"
   id="path86"
   inkscape:connector-curvature="0"
   style="fill:#c5c5c5" />
	<path
   class="st2"
   d="m 521.8,292.9 h -6.4 c 0,0.7 0.2,1.4 0.4,1.9 0.2,0.5 0.7,0.9 1.2,1.2 0.5,0.3 1,0.4 1.6,0.4 0.4,0 0.8,-0.1 1.3,-0.2 0.5,-0.1 0.9,-0.3 1.2,-0.5 l 0.1,1.1 c -0.4,0.2 -0.9,0.3 -1.4,0.4 -0.5,0.1 -1,0.1 -1.4,0.1 -0.8,0 -1.4,-0.2 -2.1,-0.6 -0.6,-0.4 -1.1,-0.9 -1.5,-1.6 -0.4,-0.7 -0.5,-1.6 -0.5,-2.5 0,-1.5 0.4,-2.6 1.2,-3.4 0.8,-0.8 1.7,-1.2 2.9,-1.2 1.2,0 2,0.4 2.6,1.2 0.6,0.8 0.9,1.9 0.9,3.2 -0.1,0.1 -0.1,0.2 -0.1,0.5 z m -6.4,-0.9 h 5.2 c 0,-1 -0.3,-1.8 -0.7,-2.3 -0.4,-0.5 -1,-0.8 -1.7,-0.8 -0.4,0 -0.9,0.1 -1.3,0.3 -0.4,0.2 -0.8,0.6 -1,1 -0.2,0.4 -0.4,1.1 -0.5,1.8 z"
   id="path88"
   inkscape:connector-curvature="0"
   style="fill:#c5c5c5" />
	<path
   class="st2"
   d="m 530.9,297.2 h -1.1 v -5.4 c 0,-0.7 -0.1,-1.3 -0.2,-1.6 -0.1,-0.4 -0.4,-0.6 -0.7,-0.9 -0.3,-0.2 -0.7,-0.3 -1.2,-0.3 -0.4,0 -0.8,0.1 -1.2,0.3 -0.4,0.2 -0.7,0.5 -0.9,0.8 -0.2,0.2 -0.3,0.5 -0.5,0.9 -0.2,0.4 -0.2,0.8 -0.2,1.2 v 5 h -1.1 v -7 c 0,-0.7 0,-1.3 -0.1,-2 h 1.1 v 1.8 c 0.4,-0.6 0.7,-1 1.2,-1.3 0.6,-0.4 1.2,-0.6 1.9,-0.6 0.4,0 0.9,0.1 1.2,0.2 0.3,0.1 0.7,0.3 0.9,0.5 0.2,0.2 0.4,0.5 0.5,0.7 0.1,0.2 0.2,0.6 0.3,1.1 0,0.3 0.1,0.7 0.1,1.4 z"
   id="path90"
   inkscape:connector-curvature="0"
   style="fill:#c5c5c5" />
	<path
   class="st2"
   d="m 532.7,296.8 0.1,-1.1 c 0.8,0.4 1.6,0.6 2.3,0.6 0.6,0 1.1,-0.2 1.5,-0.5 0.4,-0.3 0.6,-0.7 0.6,-1.1 0,-0.2 0,-0.4 -0.1,-0.6 -0.1,-0.2 -0.3,-0.4 -0.5,-0.5 -0.1,-0.1 -0.4,-0.2 -0.9,-0.5 -1.3,-0.6 -2.2,-1.1 -2.5,-1.5 -0.3,-0.4 -0.5,-0.8 -0.5,-1.3 0,-0.8 0.3,-1.3 0.9,-1.7 0.6,-0.4 1.3,-0.6 2.1,-0.6 0.4,0 0.8,0 1.2,0.1 0.4,0.1 0.8,0.2 1.1,0.3 l -0.1,1 c -0.7,-0.3 -1.4,-0.5 -2.2,-0.5 -0.6,0 -1,0.1 -1.3,0.4 -0.3,0.3 -0.5,0.6 -0.5,0.9 0,0.2 0.1,0.4 0.2,0.6 0.1,0.2 0.4,0.4 0.7,0.6 0.2,0.1 0.7,0.3 1.5,0.7 0.8,0.4 1.4,0.8 1.7,1.1 0.3,0.4 0.4,0.8 0.4,1.4 0,0.8 -0.3,1.4 -0.8,1.8 -0.7,0.6 -1.5,0.8 -2.7,0.8 -0.6,0.1 -1.3,0 -2.2,-0.4 z"
   id="path92"
   inkscape:connector-curvature="0"
   style="fill:#c5c5c5" />
	<path
   class="st2"
   d="m 546.5,288.3 -0.1,1.2 c -0.7,-0.3 -1.3,-0.4 -2,-0.4 -1,0 -1.8,0.3 -2.5,1 -0.6,0.6 -1,1.5 -1,2.6 0,0.7 0.1,1.3 0.4,1.9 0.3,0.6 0.7,1 1.2,1.3 0.5,0.3 1.1,0.5 1.8,0.5 0.7,0 1.4,-0.1 2,-0.4 l 0.1,1.1 c -0.7,0.2 -1.4,0.4 -2.3,0.4 -1.3,0 -2.4,-0.4 -3.2,-1.3 -0.8,-0.9 -1.2,-2 -1.2,-3.4 0,-0.9 0.2,-1.7 0.6,-2.5 0.4,-0.7 0.9,-1.3 1.6,-1.6 0.7,-0.3 1.5,-0.6 2.3,-0.6 0.7,-0.2 1.5,-0.1 2.3,0.2 z"
   id="path94"
   inkscape:connector-curvature="0"
   style="fill:#c5c5c5" />
	<path
   class="st2"
   d="m 554.9,297.2 h -1.2 v -5.5 c 0,-0.7 -0.1,-1.2 -0.2,-1.6 -0.1,-0.4 -0.4,-0.6 -0.7,-0.9 -0.3,-0.3 -0.7,-0.3 -1.2,-0.3 -0.4,0 -0.8,0.1 -1.2,0.3 -0.4,0.2 -0.7,0.5 -0.9,0.8 -0.2,0.2 -0.3,0.5 -0.5,0.9 -0.1,0.4 -0.2,0.8 -0.2,1.2 v 5 h -1.1 v -13.5 h 1.1 v 6.2 c 0.3,-0.6 0.7,-1.1 1.1,-1.3 0.6,-0.4 1.2,-0.6 1.9,-0.6 0.5,0 0.9,0.1 1.2,0.2 0.3,0.1 0.7,0.3 0.9,0.5 0.2,0.2 0.4,0.5 0.5,0.7 0.1,0.3 0.2,0.6 0.3,1.1 0,0.3 0.1,0.7 0.1,1.4 v 5.4 z"
   id="path96"
   inkscape:connector-curvature="0"
   style="fill:#c5c5c5" />
	<path
   class="st2"
   d="m 563.9,297.2 h -1.1 v -1.6 c -0.3,0.5 -0.7,0.9 -1.2,1.2 -0.6,0.3 -1.2,0.5 -1.9,0.5 -0.9,0 -1.6,-0.2 -2.1,-0.7 -0.5,-0.5 -0.8,-1.1 -0.8,-1.9 0,-0.6 0.2,-1.1 0.5,-1.5 0.3,-0.5 0.8,-0.8 1.5,-1.1 0.7,-0.3 1.6,-0.4 2.8,-0.4 0.2,0 0.5,0 1,0 0,-1.1 -0.2,-1.8 -0.5,-2.1 -0.3,-0.3 -0.9,-0.6 -1.7,-0.6 -0.5,0 -1,0.1 -1.4,0.2 -0.4,0.1 -0.9,0.3 -1.2,0.6 v -1.2 c 0.3,-0.2 0.7,-0.3 1.3,-0.4 0.5,-0.1 1,-0.2 1.5,-0.2 0.7,0 1.2,0.1 1.6,0.3 0.4,0.2 0.7,0.5 1,0.8 0.2,0.3 0.3,0.6 0.4,1.1 0,0.3 0.1,0.9 0.1,1.7 v 3.6 c 0.1,0.4 0.1,1 0.2,1.7 z m -1.2,-4.6 c -0.3,0 -0.5,0 -0.7,0 -0.8,0 -1.4,0 -1.8,0.1 -0.5,0.1 -0.9,0.2 -1.2,0.4 -0.3,0.2 -0.6,0.4 -0.7,0.7 -0.1,0.3 -0.3,0.6 -0.3,0.9 0,0.5 0.2,0.9 0.5,1.2 0.3,0.3 0.8,0.5 1.4,0.5 0.4,0 0.7,-0.1 1.1,-0.2 0.4,-0.1 0.6,-0.3 0.8,-0.5 0.2,-0.2 0.4,-0.4 0.5,-0.6 0.1,-0.2 0.2,-0.5 0.2,-0.7 0.1,-0.4 0.1,-1 0.2,-1.8 z"
   id="path98"
   inkscape:connector-curvature="0"
   style="fill:#c5c5c5" />
	<path
   class="st2"
   d="m 570.7,283.7 -0.1,1.1 c -0.3,-0.1 -0.6,-0.2 -0.9,-0.2 -0.4,0 -0.8,0.2 -1,0.5 -0.2,0.3 -0.4,0.8 -0.4,1.6 v 1.4 h 2.1 v 1 h -2.1 v 8.1 h -1.1 V 289 h -1.9 v -1 h 1.9 v -1.3 c 0,-0.9 0.1,-1.5 0.3,-2 0.2,-0.5 0.5,-0.8 0.9,-1 0.4,-0.2 0.8,-0.3 1.2,-0.3 0.3,0.1 0.6,0.2 1.1,0.3 z"
   id="path100"
   inkscape:connector-curvature="0"
   style="fill:#c5c5c5" />
	<path
   class="st2"
   d="m 572.2,289 h -1.8 v -1 h 1.8 v -2.3 l 1.1,-0.4 v 2.7 h 2.1 v 1 h -2.1 v 5.7 c 0,0.6 0.1,1 0.3,1.2 0.2,0.2 0.5,0.3 0.9,0.3 0.3,0 0.6,-0.1 1,-0.2 l 0.1,1 c -0.4,0.2 -0.9,0.3 -1.4,0.3 -0.6,0 -1.1,-0.2 -1.5,-0.6 -0.4,-0.4 -0.5,-1 -0.5,-1.7 z"
   id="path102"
   inkscape:connector-curvature="0"
   style="fill:#c5c5c5" />
</g>
<g
   id="g150"
   transform="translate(-263,-264)">
	<path
   class="st4"
   d="m 375.1,327.3 0.1,-1.3 c 0.5,0.3 0.9,0.4 1.4,0.5 0.5,0.1 1,0.2 1.4,0.2 0.5,0 1,-0.1 1.4,-0.3 0.4,-0.2 0.7,-0.5 1,-0.8 0.3,-0.3 0.3,-0.8 0.3,-1.2 0,-0.3 -0.1,-0.6 -0.2,-0.8 -0.1,-0.2 -0.3,-0.4 -0.5,-0.6 -0.1,-0.1 -0.4,-0.3 -0.8,-0.5 l -2.7,-1.6 c -0.5,-0.3 -0.9,-0.7 -1.2,-1.1 -0.3,-0.4 -0.4,-0.9 -0.4,-1.4 0,-0.9 0.3,-1.6 1,-2.2 0.7,-0.6 1.6,-0.9 2.8,-0.9 0.9,0 1.7,0.1 2.6,0.4 l -0.2,1.1 c -0.8,-0.3 -1.6,-0.5 -2.4,-0.5 -0.8,0 -1.4,0.2 -1.9,0.6 -0.5,0.4 -0.7,0.9 -0.7,1.4 0,0.4 0.1,0.7 0.2,0.9 0.1,0.2 0.4,0.5 0.9,0.7 l 3,1.8 c 0.6,0.4 1,0.7 1.3,1.2 0.3,0.4 0.4,0.9 0.4,1.5 0,0.6 -0.2,1.2 -0.5,1.8 -0.3,0.6 -0.8,1 -1.5,1.3 -0.7,0.3 -1.4,0.4 -2.2,0.4 -0.5,0 -1,-0.1 -1.5,-0.2 -0.5,-0.1 -0.7,-0.2 -1.1,-0.4 z"
   id="path106"
   inkscape:connector-curvature="0"
   style="fill:#66cacc" />
	<path
   class="st4"
   d="m 391.1,323.4 h -6.4 c 0,0.7 0.2,1.4 0.4,1.9 0.2,0.5 0.7,0.9 1.2,1.2 0.5,0.3 1,0.4 1.6,0.4 0.4,0 0.8,-0.1 1.3,-0.2 0.5,-0.1 0.9,-0.3 1.2,-0.5 l 0.1,1.1 c -0.4,0.2 -0.9,0.3 -1.4,0.4 -0.5,0.1 -1,0.1 -1.4,0.1 -0.8,0 -1.4,-0.2 -2.1,-0.6 -0.7,-0.4 -1.1,-0.9 -1.5,-1.6 -0.4,-0.7 -0.5,-1.6 -0.5,-2.5 0,-1.5 0.4,-2.6 1.2,-3.4 0.8,-0.8 1.7,-1.2 2.9,-1.2 1.2,0 2,0.4 2.6,1.2 0.6,0.8 0.9,1.9 0.9,3.2 -0.1,0.1 -0.1,0.3 -0.1,0.5 z m -6.3,-0.9 h 5.2 c 0,-1 -0.3,-1.8 -0.7,-2.3 -0.4,-0.5 -1,-0.8 -1.7,-0.8 -0.4,0 -0.9,0.1 -1.3,0.3 -0.4,0.2 -0.8,0.6 -1,1 -0.2,0.4 -0.5,1.2 -0.5,1.8 z"
   id="path108"
   inkscape:connector-curvature="0"
   style="fill:#66cacc" />
	<path
   class="st4"
   d="m 393.1,327.7 v -13.5 h 1.1 v 8.1 l 4.2,-3.7 h 1.5 l -4.5,4 5.1,5.1 h -1.6 l -4.6,-4.7 v 4.7 z"
   id="path110"
   inkscape:connector-curvature="0"
   style="fill:#66cacc" />
	<path
   class="st4"
   d="m 402.6,319.6 h -1.8 v -1 h 1.8 v -2.3 l 1.1,-0.4 v 2.7 h 2.1 v 1 h -2.1 v 5.7 c 0,0.6 0.1,1 0.3,1.2 0.2,0.2 0.5,0.3 0.9,0.3 0.3,0 0.6,-0.1 1,-0.2 l 0.1,1 c -0.4,0.2 -0.9,0.3 -1.4,0.3 -0.6,0 -1.1,-0.2 -1.5,-0.6 -0.4,-0.4 -0.5,-1 -0.5,-1.7 z"
   id="path112"
   inkscape:connector-curvature="0"
   style="fill:#66cacc" />
	<path
   class="st4"
   d="m 407.6,316.1 v -1.5 h 1.3 v 1.5 z m 0.1,11.6 v -9.1 h 1.2 v 9.1 z"
   id="path114"
   inkscape:connector-curvature="0"
   style="fill:#66cacc" />
	<path
   class="st4"
   d="m 419.4,323.2 c 0,0.9 -0.2,1.8 -0.5,2.5 -0.3,0.7 -0.9,1.3 -1.6,1.7 -0.7,0.4 -1.4,0.6 -2.2,0.6 -1.2,0 -2.2,-0.4 -3,-1.3 -0.8,-0.9 -1.2,-2 -1.2,-3.5 0,-0.8 0.1,-1.6 0.4,-2.4 0.3,-0.8 0.8,-1.3 1.4,-1.8 0.6,-0.5 1.5,-0.7 2.4,-0.7 0.7,0 1.3,0.1 1.8,0.3 0.5,0.2 0.9,0.5 1.2,0.9 0.3,0.4 0.6,0.8 0.7,1.2 0.4,0.8 0.6,1.6 0.6,2.5 z m -7.4,0 c 0,0.7 0.1,1.3 0.4,1.9 0.3,0.6 0.6,1 1.1,1.3 0.5,0.3 1,0.5 1.5,0.5 0.8,0 1.4,-0.3 2,-0.8 0.7,-0.7 1.1,-1.7 1.1,-3 0,-1.2 -0.3,-2.2 -0.9,-2.8 -0.6,-0.6 -1.3,-1 -2.2,-1 -0.9,0 -1.6,0.3 -2.2,1 -0.6,0.7 -0.8,1.7 -0.8,2.9 z"
   id="path116"
   inkscape:connector-curvature="0"
   style="fill:#66cacc" />
	<path
   class="st4"
   d="m 428.6,327.7 h -1.1 v -5.4 c 0,-0.7 -0.1,-1.3 -0.2,-1.6 -0.1,-0.4 -0.4,-0.6 -0.7,-0.9 -0.3,-0.2 -0.7,-0.3 -1.2,-0.3 -0.4,0 -0.8,0.1 -1.2,0.3 -0.4,0.2 -0.7,0.5 -0.9,0.8 -0.2,0.2 -0.3,0.5 -0.5,0.9 -0.2,0.4 -0.2,0.8 -0.2,1.2 v 5 h -1.1 v -7 c 0,-0.7 0,-1.3 -0.1,-2 h 1.1 v 1.8 c 0.4,-0.6 0.7,-1 1.2,-1.3 0.6,-0.4 1.2,-0.6 1.9,-0.6 0.4,0 0.9,0.1 1.2,0.2 0.3,0.1 0.7,0.3 0.9,0.5 0.2,0.2 0.4,0.5 0.5,0.7 0.1,0.2 0.2,0.6 0.3,1.1 0,0.3 0.1,0.7 0.1,1.4 z"
   id="path118"
   inkscape:connector-curvature="0"
   style="fill:#66cacc" />
	<path
   class="st4"
   d="m 436.1,315.2 h 1.9 l 4.5,11 4.7,-11 h 1.8 v 12.5 h -1.2 v -11.3 l -4.8,11.3 h -1.1 l -4.7,-11.3 v 11.3 h -1.1 z"
   id="path120"
   inkscape:connector-curvature="0"
   style="fill:#66cacc" />
	<path
   class="st4"
   d="m 458.7,323.4 h -6.4 c 0,0.7 0.2,1.4 0.4,1.9 0.2,0.5 0.7,0.9 1.2,1.2 0.5,0.3 1,0.4 1.6,0.4 0.4,0 0.8,-0.1 1.3,-0.2 0.5,-0.1 0.9,-0.3 1.2,-0.5 l 0.1,1.1 c -0.4,0.2 -0.9,0.3 -1.4,0.4 -0.5,0.1 -1,0.1 -1.4,0.1 -0.8,0 -1.4,-0.2 -2.1,-0.6 -0.6,-0.4 -1.1,-0.9 -1.5,-1.6 -0.4,-0.7 -0.5,-1.6 -0.5,-2.5 0,-1.5 0.4,-2.6 1.2,-3.4 0.8,-0.8 1.7,-1.2 2.9,-1.2 1.2,0 2,0.4 2.6,1.2 0.6,0.8 0.9,1.9 0.9,3.2 -0.1,0.1 -0.1,0.3 -0.1,0.5 z m -6.4,-0.9 h 5.2 c 0,-1 -0.3,-1.8 -0.7,-2.3 -0.4,-0.5 -1,-0.8 -1.7,-0.8 -0.4,0 -0.9,0.1 -1.3,0.3 -0.4,0.2 -0.8,0.6 -1,1 -0.2,0.4 -0.4,1.2 -0.5,1.8 z"
   id="path122"
   inkscape:connector-curvature="0"
   style="fill:#66cacc" />
	<path
   class="st4"
   d="m 467.8,327.7 h -1.1 V 326 c -0.4,0.7 -0.8,1.1 -1.2,1.4 -0.4,0.3 -1,0.4 -1.7,0.4 -0.8,0 -1.5,-0.2 -2.1,-0.6 -0.6,-0.4 -1,-1 -1.3,-1.7 -0.3,-0.8 -0.5,-1.6 -0.5,-2.5 0,-0.8 0.1,-1.6 0.4,-2.3 0.3,-0.7 0.7,-1.3 1.2,-1.7 0.5,-0.4 1.2,-0.6 2,-0.6 0.7,0 1.3,0.2 1.9,0.5 0.6,0.3 0.9,0.8 1.1,1.3 v -6.1 h 1.1 v 13.6 z m -3.9,-8.2 c -0.8,0 -1.4,0.3 -1.9,0.9 -0.5,0.6 -0.7,1.5 -0.7,2.8 0,0.5 0.1,1 0.2,1.5 0.1,0.5 0.3,0.9 0.5,1.2 0.2,0.3 0.5,0.5 0.8,0.7 0.3,0.2 0.7,0.3 1.2,0.3 0.5,0 1,-0.1 1.4,-0.4 0.4,-0.3 0.8,-0.7 1,-1.3 0.2,-0.6 0.4,-1.3 0.4,-2.1 0,-1.2 -0.3,-2.1 -0.8,-2.7 -0.7,-0.6 -1.3,-0.9 -2.1,-0.9 z"
   id="path124"
   inkscape:connector-curvature="0"
   style="fill:#66cacc" />
	<path
   class="st4"
   d="m 470.4,316.1 v -1.5 h 1.3 v 1.5 z m 0.1,11.6 v -9.1 h 1.2 v 9.1 z"
   id="path126"
   inkscape:connector-curvature="0"
   style="fill:#66cacc" />
	<path
   class="st4"
   d="m 481.2,323.4 h -6.4 c 0,0.7 0.2,1.4 0.4,1.9 0.2,0.5 0.7,0.9 1.2,1.2 0.5,0.3 1,0.4 1.6,0.4 0.4,0 0.8,-0.1 1.3,-0.2 0.5,-0.1 0.9,-0.3 1.2,-0.5 l 0.1,1.1 c -0.4,0.2 -0.9,0.3 -1.4,0.4 -0.5,0.1 -1,0.1 -1.4,0.1 -0.8,0 -1.4,-0.2 -2.1,-0.6 -0.6,-0.4 -1.1,-0.9 -1.5,-1.6 -0.4,-0.7 -0.5,-1.6 -0.5,-2.5 0,-1.5 0.4,-2.6 1.2,-3.4 0.8,-0.8 1.7,-1.2 2.9,-1.2 1.2,0 2,0.4 2.6,1.2 0.6,0.8 0.9,1.9 0.9,3.2 -0.1,0.1 -0.1,0.3 -0.1,0.5 z m -6.4,-0.9 h 5.2 c 0,-1 -0.3,-1.8 -0.7,-2.3 -0.4,-0.5 -1,-0.8 -1.7,-0.8 -0.4,0 -0.9,0.1 -1.3,0.3 -0.4,0.2 -0.8,0.6 -1,1 -0.2,0.4 -0.5,1.2 -0.5,1.8 z"
   id="path128"
   inkscape:connector-curvature="0"
   style="fill:#66cacc" />
	<path
   class="st4"
   d="m 490.3,327.7 h -1.1 v -5.4 c 0,-0.7 -0.1,-1.3 -0.2,-1.6 -0.1,-0.4 -0.4,-0.6 -0.7,-0.9 -0.3,-0.3 -0.7,-0.3 -1.2,-0.3 -0.4,0 -0.8,0.1 -1.2,0.3 -0.4,0.2 -0.7,0.5 -0.9,0.8 -0.2,0.2 -0.3,0.5 -0.5,0.9 -0.2,0.4 -0.2,0.8 -0.2,1.2 v 5 h -1.1 v -7 c 0,-0.7 0,-1.3 -0.1,-2 h 1.1 v 1.8 c 0.4,-0.6 0.7,-1 1.2,-1.3 0.6,-0.4 1.2,-0.6 1.9,-0.6 0.4,0 0.9,0.1 1.2,0.2 0.3,0.1 0.7,0.3 0.9,0.5 0.2,0.2 0.4,0.5 0.5,0.7 0.1,0.2 0.2,0.6 0.3,1.1 0,0.3 0.1,0.7 0.1,1.4 z"
   id="path130"
   inkscape:connector-curvature="0"
   style="fill:#66cacc" />
	<path
   class="st4"
   d="m 493.9,331.6 h -1.1 v -12.9 h 1.1 v 1.7 c 0.4,-0.6 0.8,-1.1 1.2,-1.4 0.5,-0.3 1,-0.4 1.7,-0.4 0.9,0 1.6,0.2 2.1,0.6 0.5,0.4 1,1 1.2,1.8 0.3,0.8 0.4,1.6 0.4,2.4 0,0.8 -0.1,1.6 -0.4,2.3 -0.3,0.7 -0.7,1.3 -1.2,1.7 -0.5,0.4 -1.2,0.6 -2,0.6 -0.7,0 -1.3,-0.2 -1.9,-0.5 -0.6,-0.3 -0.9,-0.8 -1.1,-1.3 z m 2.9,-12.1 c -0.9,0 -1.6,0.3 -2.1,1 -0.5,0.7 -0.8,1.6 -0.8,2.7 0,0.8 0.1,1.4 0.4,2 0.3,0.6 0.6,1 1.1,1.2 0.5,0.3 0.9,0.4 1.4,0.4 0.7,0 1.3,-0.3 1.8,-0.9 0.5,-0.6 0.7,-1.5 0.7,-2.8 0,-0.9 -0.1,-1.6 -0.3,-2.1 -0.2,-0.5 -0.5,-1 -0.9,-1.2 -0.4,-0.2 -0.8,-0.3 -1.3,-0.3 z"
   id="path132"
   inkscape:connector-curvature="0"
   style="fill:#66cacc" />
	<path
   class="st4"
   d="m 509,327.7 h -1 v -1.6 c -0.3,0.5 -0.7,0.9 -1.2,1.2 -0.5,0.3 -1.2,0.5 -1.9,0.5 -0.9,0 -1.6,-0.2 -2.1,-0.7 -0.5,-0.5 -0.8,-1.1 -0.8,-1.9 0,-0.6 0.2,-1.1 0.5,-1.5 0.3,-0.5 0.8,-0.8 1.5,-1.1 0.7,-0.3 1.6,-0.4 2.8,-0.4 0.2,0 0.5,0 1,0 0,-1.1 -0.2,-1.8 -0.5,-2.1 -0.3,-0.3 -0.9,-0.6 -1.7,-0.6 -0.5,0 -1,0.1 -1.4,0.2 -0.4,0.1 -0.9,0.3 -1.2,0.6 v -1.2 c 0.3,-0.2 0.7,-0.3 1.3,-0.4 0.5,-0.1 1,-0.2 1.5,-0.2 0.7,0 1.2,0.1 1.6,0.3 0.4,0.2 0.7,0.5 1,0.8 0.2,0.3 0.3,0.6 0.4,1.1 0,0.3 0.1,0.9 0.1,1.7 v 3.6 c 0.1,0.5 0.1,1 0.1,1.7 z m -1.1,-4.5 c -0.3,0 -0.5,0 -0.7,0 -0.8,0 -1.4,0 -1.8,0.1 -0.5,0.1 -0.9,0.2 -1.2,0.4 -0.3,0.2 -0.6,0.4 -0.7,0.7 -0.1,0.3 -0.3,0.6 -0.3,0.9 0,0.5 0.2,0.9 0.5,1.2 0.3,0.3 0.8,0.5 1.4,0.5 0.4,0 0.7,-0.1 1.1,-0.2 0.4,-0.1 0.6,-0.3 0.8,-0.5 0.2,-0.2 0.4,-0.4 0.5,-0.6 0.1,-0.2 0.2,-0.5 0.2,-0.7 0,-0.2 0.1,-1 0.2,-1.8 z m -4.3,-5.9 v -1.6 h 1.3 v 1.6 z m 3.1,0 v -1.6 h 1.3 v 1.6 z"
   id="path134"
   inkscape:connector-curvature="0"
   style="fill:#66cacc" />
	<path
   class="st4"
   d="m 518.7,327.7 h -1.1 V 326 c -0.4,0.7 -0.8,1.1 -1.2,1.4 -0.4,0.3 -1,0.4 -1.7,0.4 -0.8,0 -1.5,-0.2 -2.1,-0.6 -0.6,-0.4 -1,-1 -1.3,-1.7 -0.3,-0.8 -0.5,-1.6 -0.5,-2.5 0,-0.8 0.1,-1.6 0.4,-2.3 0.3,-0.7 0.7,-1.3 1.2,-1.7 0.5,-0.4 1.2,-0.6 2,-0.6 0.7,0 1.3,0.2 1.9,0.5 0.6,0.3 0.9,0.8 1.1,1.3 v -6.1 h 1.1 v 13.6 z m -3.9,-8.2 c -0.8,0 -1.4,0.3 -1.9,0.9 -0.5,0.6 -0.7,1.5 -0.7,2.8 0,0.5 0.1,1 0.2,1.5 0.1,0.5 0.3,0.9 0.5,1.2 0.2,0.3 0.5,0.5 0.8,0.7 0.3,0.2 0.7,0.3 1.2,0.3 0.5,0 1,-0.1 1.4,-0.4 0.4,-0.3 0.8,-0.7 1,-1.3 0.2,-0.6 0.4,-1.3 0.4,-2.1 0,-1.2 -0.3,-2.1 -0.8,-2.7 -0.7,-0.6 -1.3,-0.9 -2.1,-0.9 z"
   id="path136"
   inkscape:connector-curvature="0"
   style="fill:#66cacc" />
	<path
   class="st4"
   d="m 527.7,327.7 h -1.1 v -1.6 c -0.3,0.5 -0.7,0.9 -1.2,1.2 -0.5,0.3 -1.2,0.5 -1.9,0.5 -0.9,0 -1.6,-0.2 -2.1,-0.7 -0.5,-0.5 -0.8,-1.1 -0.8,-1.9 0,-0.6 0.2,-1.1 0.5,-1.5 0.3,-0.5 0.8,-0.8 1.5,-1.1 0.7,-0.3 1.6,-0.4 2.8,-0.4 0.2,0 0.5,0 1,0 0,-1.1 -0.2,-1.8 -0.5,-2.1 -0.3,-0.3 -0.9,-0.6 -1.7,-0.6 -0.5,0 -1,0.1 -1.4,0.2 -0.4,0.1 -0.9,0.3 -1.2,0.6 v -1.2 c 0.3,-0.2 0.7,-0.3 1.3,-0.4 0.5,-0.1 1,-0.2 1.5,-0.2 0.7,0 1.2,0.1 1.6,0.3 0.4,0.2 0.7,0.5 1,0.8 0.2,0.3 0.3,0.6 0.4,1.1 0,0.3 0.1,0.9 0.1,1.7 v 3.6 c 0.1,0.5 0.1,1 0.2,1.7 z m -1.2,-4.5 c -0.3,0 -0.5,0 -0.7,0 -0.8,0 -1.4,0 -1.8,0.1 -0.5,0.1 -0.9,0.2 -1.2,0.4 -0.3,0.2 -0.6,0.4 -0.7,0.7 -0.1,0.3 -0.3,0.6 -0.3,0.9 0,0.5 0.2,0.9 0.5,1.2 0.3,0.3 0.8,0.5 1.4,0.5 0.4,0 0.7,-0.1 1.1,-0.2 0.4,-0.1 0.6,-0.3 0.8,-0.5 0.2,-0.2 0.4,-0.4 0.5,-0.6 0.1,-0.2 0.2,-0.5 0.2,-0.7 0,-0.2 0.2,-1 0.2,-1.8 z"
   id="path138"
   inkscape:connector-curvature="0"
   style="fill:#66cacc" />
	<path
   class="st4"
   d="m 537,318.7 v 7.2 c 0,1.4 -0.1,2.4 -0.2,3 -0.2,0.6 -0.4,1.1 -0.8,1.5 -0.4,0.4 -0.8,0.7 -1.4,0.9 -0.6,0.2 -1.2,0.3 -1.8,0.3 -0.4,0 -0.8,0 -1.3,-0.1 -0.5,-0.1 -1,-0.2 -1.5,-0.4 l 0.1,-1.2 c 0.4,0.2 0.9,0.4 1.4,0.5 0.5,0.1 1,0.2 1.4,0.2 0.5,0 1,-0.1 1.4,-0.3 0.4,-0.2 0.7,-0.5 1,-0.8 0.2,-0.3 0.4,-0.8 0.5,-1.3 0.1,-0.4 0.1,-1.2 0.2,-2.4 -0.2,0.6 -0.6,1 -1.1,1.4 -0.5,0.4 -1.1,0.5 -1.8,0.5 -1.1,0 -2.1,-0.4 -2.8,-1.2 -0.7,-0.8 -1.1,-2 -1.1,-3.4 0,-0.7 0.1,-1.3 0.3,-1.9 0.2,-0.6 0.4,-1 0.8,-1.4 0.4,-0.4 0.7,-0.7 1.1,-0.9 0.5,-0.3 1.1,-0.4 1.9,-0.4 1.4,0 2.4,0.5 2.8,1.6 v -1.4 z m -6.6,4.3 c 0,1.1 0.2,1.9 0.6,2.6 0.5,0.8 1.2,1.2 2.1,1.2 0.8,0 1.5,-0.3 2,-0.9 0.5,-0.6 0.8,-1.6 0.8,-2.8 0,-1.2 -0.3,-2.1 -0.8,-2.6 -0.5,-0.5 -1.1,-0.8 -1.9,-0.8 -0.8,0 -1.5,0.3 -2,0.9 -0.5,0.6 -0.8,1.3 -0.8,2.4 z"
   id="path140"
   inkscape:connector-curvature="0"
   style="fill:#66cacc" />
	<path
   class="st4"
   d="m 547.2,323.2 c 0,0.9 -0.2,1.8 -0.5,2.5 -0.3,0.7 -0.9,1.3 -1.6,1.7 -0.7,0.4 -1.4,0.6 -2.2,0.6 -1.2,0 -2.2,-0.4 -3,-1.3 -0.8,-0.9 -1.2,-2 -1.2,-3.5 0,-0.8 0.1,-1.6 0.4,-2.4 0.3,-0.8 0.8,-1.3 1.4,-1.8 0.6,-0.5 1.5,-0.7 2.4,-0.7 0.7,0 1.3,0.1 1.8,0.3 0.5,0.2 0.9,0.5 1.2,0.9 0.3,0.4 0.6,0.8 0.7,1.2 0.4,0.8 0.6,1.6 0.6,2.5 z m -7.4,0 c 0,0.7 0.1,1.3 0.4,1.9 0.3,0.6 0.6,1 1.1,1.3 0.5,0.3 1,0.5 1.5,0.5 0.8,0 1.4,-0.3 2,-0.8 0.7,-0.7 1.1,-1.7 1.1,-3 0,-1.2 -0.3,-2.2 -0.9,-2.8 -0.6,-0.6 -1.3,-1 -2.2,-1 -0.9,0 -1.6,0.3 -2.2,1 -0.6,0.7 -0.8,1.7 -0.8,2.9 z"
   id="path142"
   inkscape:connector-curvature="0"
   style="fill:#66cacc" />
	<path
   class="st4"
   d="m 556.2,318.7 v 7.2 c 0,1.4 -0.1,2.4 -0.2,3 -0.2,0.6 -0.4,1.1 -0.8,1.5 -0.4,0.4 -0.8,0.7 -1.4,0.9 -0.6,0.2 -1.2,0.3 -1.8,0.3 -0.4,0 -0.8,0 -1.3,-0.1 -0.5,-0.1 -1,-0.2 -1.5,-0.4 l 0.1,-1.2 c 0.4,0.2 0.9,0.4 1.4,0.5 0.5,0.1 1,0.2 1.4,0.2 0.5,0 1,-0.1 1.4,-0.3 0.4,-0.2 0.7,-0.5 1,-0.8 0.2,-0.3 0.4,-0.8 0.5,-1.3 0.1,-0.4 0.1,-1.2 0.2,-2.4 -0.2,0.6 -0.6,1 -1.1,1.4 -0.5,0.4 -1.1,0.5 -1.8,0.5 -1.1,0 -2.1,-0.4 -2.8,-1.2 -0.7,-0.8 -1.1,-2 -1.1,-3.4 0,-0.7 0.1,-1.3 0.3,-1.9 0.2,-0.6 0.4,-1 0.8,-1.4 0.4,-0.4 0.7,-0.7 1.1,-0.9 0.5,-0.3 1.1,-0.4 1.9,-0.4 1.4,0 2.4,0.5 2.8,1.6 v -1.4 z m -6.6,4.3 c 0,1.1 0.2,1.9 0.6,2.6 0.5,0.8 1.2,1.2 2.1,1.2 0.8,0 1.5,-0.3 2,-0.9 0.5,-0.6 0.8,-1.6 0.8,-2.8 0,-1.2 -0.3,-2.1 -0.8,-2.6 -0.5,-0.5 -1.1,-0.8 -1.9,-0.8 -0.8,0 -1.5,0.3 -2,0.9 -0.5,0.6 -0.8,1.3 -0.8,2.4 z"
   id="path144"
   inkscape:connector-curvature="0"
   style="fill:#66cacc" />
	<path
   class="st4"
   d="m 558.9,316.1 v -1.5 h 1.3 v 1.5 z m 0.1,11.6 v -9.1 h 1.2 v 9.1 z"
   id="path146"
   inkscape:connector-curvature="0"
   style="fill:#66cacc" />
	<path
   class="st4"
   d="m 562.8,327.7 v -13.5 h 1.1 v 8.1 l 4.2,-3.7 h 1.5 l -4.5,4 5.1,5.1 h -1.6 L 564,323 v 4.7 z"
   id="path148"
   inkscape:connector-curvature="0"
   style="fill:#66cacc" />
</g>
</svg>