<?xml version="1.0" encoding="UTF-8" standalone="no"?>
<svg
   xmlns:dc="http://purl.org/dc/elements/1.1/"
   xmlns:cc="http://creativecommons.org/ns#"
   xmlns:rdf="http://www.w3.org/1999/02/22-rdf-syntax-ns#"
   xmlns:svg="http://www.w3.org/2000/svg"
   xmlns="http://www.w3.org/2000/svg"
   xmlns:sodipodi="http://sodipodi.sourceforge.net/DTD/sodipodi-0.dtd"
   xmlns:inkscape="http://www.inkscape.org/namespaces/inkscape"
   id="Ebene_1"
   data-name="Ebene 1"
   viewBox="0 0 319.45232 40"
   version="1.1"
   sodipodi:docname="pageHeaderLogoImage_de_DE.svg"
   width="319.45233"
   height="40"
   inkscape:version="0.92.5 (2060ec1f9f, 2020-04-08)">
  <metadata
     id="metadata131">
    <rdf:RDF>
      <cc:Work
         rdf:about="">
        <dc:format>image/svg+xml</dc:format>
        <dc:type
           rdf:resource="http://purl.org/dc/dcmitype/StillImage" />
        <dc:title>medienpaed_2014_Printversion_weiss</dc:title>
      </cc:Work>
    </rdf:RDF>
  </metadata>
  <defs
     id="defs129" />
  <sodipodi:namedview
     pagecolor="#ffffff"
     bordercolor="#666666"
     borderopacity="1"
     objecttolerance="10"
     gridtolerance="10"
     guidetolerance="10"
     inkscape:pageopacity="0"
     inkscape:pageshadow="2"
     inkscape:window-width="2560"
     inkscape:window-height="1263"
     id="namedview127"
     showgrid="false"
     fit-margin-top="0"
     fit-margin-left="0"
     fit-margin-right="0"
     fit-margin-bottom="0"
     inkscape:pagecheckerboard="true"
     inkscape:zoom="2.354509"
     inkscape:cx="3.1820116"
     inkscape:cy="-0.37451694"
     inkscape:window-x="0"
     inkscape:window-y="25"
     inkscape:window-maximized="1"
     inkscape:current-layer="Ebene_1" />
  <title
     id="title2">medienpaed_2014_Printversion_weiss</title>
  <path
     d="m 8.9655181,3.164301 6.7748469,19.918863 v 0 l 6.40973,-19.918863 h 8.965521 v 28.965523 h -5.882348 v -20.52739 0 l -7.18053,20.52739 H 13.144015 L 6.0446241,11.845842 v 0 20.283982 H 0 V 3.164301 Z"
     style="fill:#757575;fill-opacity:1;stroke-width:2.02839708"
     id="path96"
     inkscape:connector-curvature="0" />
  <path
     d="m 41.095334,27.099385 a 5.9026369,5.9026369 0 0 0 6.734283,0.385399 3.5496962,3.5496962 0 0 0 1.541576,-1.845832 h 5.070996 a 9.6348892,9.6348892 0 0 1 -3.732249,5.395531 10.97363,10.97363 0 0 1 -6.085201,1.622715 11.987829,11.987829 0 0 1 -4.462463,-0.791071 9.4523319,9.4523319 0 0 1 -3.36714,-2.251526 10.486815,10.486815 0 0 1 -2.028397,-3.488832 13.123732,13.123732 0 0 1 -0.75051,-4.46248 12.271805,12.271805 0 0 1 0.770782,-4.381342 10.141988,10.141988 0 0 1 5.578103,-5.841784 10.87221,10.87221 0 0 1 4.361053,-0.851927 9.9594315,9.9594315 0 0 1 4.665316,1.034483 9.2292089,9.2292089 0 0 1 3.265719,2.778904 11.37931,11.37931 0 0 1 1.84585,4.056795 14.198782,14.198782 0 0 1 0.405669,4.665311 H 39.695744 a 5.9229206,5.9229206 0 0 0 1.39959,3.975656 z m 6.511157,-11.034476 a 4.0567949,4.0567949 0 0 0 -3.144017,-1.135903 4.8681543,4.8681543 0 0 0 -2.292086,0.466532 4.2596351,4.2596351 0 0 0 -2.231243,2.616633 8.11359,8.11359 0 0 0 -0.263686,1.379311 h 9.371196 a 6.5720079,6.5720079 0 0 0 -1.440164,-3.326573 z"
     style="fill:#757575;fill-opacity:1;stroke-width:2.02839708"
     id="path98"
     inkscape:connector-curvature="0" />
  <path
     d="m 73.144024,29.452336 a 5.9432041,5.9432041 0 0 1 -2.657214,2.454355 9.69574,9.69574 0 0 1 -7.849903,-0.162332 8.4989856,8.4989856 0 0 1 -2.941168,-2.474649 11.825558,11.825558 0 0 1 -1.744431,-3.590267 15.354969,15.354969 0 0 1 -0.588233,-4.219065 14.198782,14.198782 0 0 1 0.588233,-4.056794 10.730223,10.730223 0 0 1 1.744431,-3.46856 8.4584183,8.4584183 0 0 1 6.957413,-3.326572 8.11359,8.11359 0 0 1 3.549678,0.791075 6.0851916,6.0851916 0 0 1 2.657214,2.332657 v 0 -10.547667 h 5.760649 V 32.129824 H 73.144024 Z M 72.900616,19.087223 a 5.7403659,5.7403659 0 0 0 -0.831641,-2.028399 4.4219063,4.4219063 0 0 0 -1.521316,-1.48073 4.3407708,4.3407708 0 0 0 -2.35294,-0.567951 4.6450297,4.6450297 0 0 0 -2.393508,0.567951 4.4219063,4.4219063 0 0 0 -1.561865,1.501013 6.6937116,6.6937116 0 0 0 -0.851917,2.028399 12.373224,12.373224 0 0 0 -0.263706,2.494928 11.075051,11.075051 0 0 0 0.283982,2.434079 7.4442195,7.4442195 0 0 0 0.912785,2.170382 5.4563892,5.4563892 0 0 0 1.58214,1.541589 4.3813382,4.3813382 0 0 0 2.292089,0.588232 4.6653141,4.6653141 0 0 0 2.373234,-0.567953 4.1987833,4.1987833 0 0 0 1.521294,-1.521302 6.7748485,6.7748485 0 0 0 0.811369,-2.170375 12.900607,12.900607 0 0 0 0.243408,-2.515224 12.393509,12.393509 0 0 0 -0.243408,-2.474639 z"
     style="fill:#757575;fill-opacity:1;stroke-width:2.02839708"
     id="path100"
     inkscape:connector-curvature="0" />
  <path
     d="M 82.393504,7.9107513 V 3.164301 h 5.760649 v 4.7464503 z m 5.760649,3.2454357 V 32.129824 H 82.393504 V 11.156187 Z"
     style="fill:#757575;fill-opacity:1;stroke-width:2.02839708"
     id="path102"
     inkscape:connector-curvature="0" />
  <path
     d="m 98.701819,27.099385 a 5.9026369,5.9026369 0 0 0 6.734281,0.385399 3.5496962,3.5496962 0 0 0 1.54158,-1.845832 h 5.071 a 9.6348892,9.6348892 0 0 1 -3.73225,5.395531 10.97363,10.97363 0 0 1 -6.08519,1.622715 12.048682,12.048682 0 0 1 -4.462482,-0.791071 9.4523319,9.4523319 0 0 1 -3.306282,-2.251526 10.486815,10.486815 0 0 1 -2.028399,-3.488832 13.123732,13.123732 0 0 1 -0.750508,-4.46248 12.271805,12.271805 0 0 1 0.770786,-4.381342 10.141988,10.141988 0 0 1 5.578097,-5.841784 10.933062,10.933062 0 0 1 4.361048,-0.851927 9.9594315,9.9594315 0 0 1 4.66532,1.034483 9.0669364,9.0669364 0 0 1 3.26572,2.778904 11.014199,11.014199 0 0 1 1.84585,4.056795 14.198782,14.198782 0 0 1 0.40567,4.665311 H 97.281943 a 5.9229206,5.9229206 0 0 0 1.419876,3.975656 z m 6.511171,-11.034476 a 4.0567949,4.0567949 0 0 0 -3.14403,-1.135903 4.7261665,4.7261665 0 0 0 -2.271796,0.466532 4.0567949,4.0567949 0 0 0 -1.480732,1.156187 4.2190672,4.2190672 0 0 0 -0.77079,1.460446 8.11359,8.11359 0 0 0 -0.263699,1.379311 h 9.350917 a 6.5720079,6.5720079 0 0 0 -1.41987,-3.326573 z"
     style="fill:#757575;fill-opacity:1;stroke-width:2.02839708"
     id="path104"
     inkscape:connector-curvature="0" />
  <path
     d="m 120.93306,11.156187 v 2.920893 h 0.12168 a 6.6125751,6.6125751 0 0 1 2.83975,-2.657201 8.11359,8.11359 0 0 1 3.56997,-0.831643 9.6146046,9.6146046 0 0 1 3.79311,0.628803 5.4158211,5.4158211 0 0 1 2.33266,1.744422 6.5314404,6.5314404 0 0 1 1.19675,2.718053 15.963488,15.963488 0 0 1 0.34482,3.549696 v 12.900614 h -5.76064 V 20.365112 a 7.2616623,7.2616623 0 0 0 -0.81133,-3.87424 3.1237322,3.1237322 0 0 0 -2.88033,-1.277891 4.0567949,4.0567949 0 0 0 -3.40769,1.399595 7.8498986,7.8498986 0 0 0 -1.05478,4.60446 v 10.912788 h -5.76065 V 11.156187 Z"
     style="fill:#757575;fill-opacity:1;stroke-width:2.02839708"
     id="path106"
     inkscape:connector-curvature="0" />
  <path
     d="m 147.82961,27.91075 c 0,2.981744 0.70994,3.407706 4.0568,3.529407 v 0.831645 c -1.41989,0 -3.8134,-0.121677 -6.08519,-0.121677 -2.27182,0 -4.05679,0 -5.25356,0.121677 v -0.831645 c 2.7789,-0.121677 3.32657,-0.547663 3.32657,-3.529407 V 7.5050718 c 0,-3.0020289 -0.54767,-3.4279925 -3.32657,-3.5496961 V 3.144017 c 1.13591,0 3.20488,0.121701 5.01015,0.121701 2.59634,0 5.23326,0 6.20688,0 6.63286,0 9.91886,3.3265716 9.91886,8.11359 0,4.056795 -2.31236,9.188643 -10.81133,9.188643 h -3.18459 z m 0,-20.4056782 V 19.675457 h 2.7789 c 5.82151,0 7.09939,-3.752536 7.09939,-7.931035 0,-5.1926976 -1.84585,-7.7890463 -6.81541,-7.7890463 -2.5152,0 -3.06288,0.7099398 -3.06288,3.5496961 z"
     style="fill:#757575;fill-opacity:1;stroke-width:2.02839708"
     id="path108"
     inkscape:connector-curvature="0" />
  <path
     d="m 177.28194,12.048682 c 1.29817,1.338742 1.643,2.860041 1.643,5.780932 V 29.2495 c 0,1.318458 0.32454,2.028384 1.27789,2.028384 a 2.9006091,2.9006091 0 0 0 1.84584,-0.851917 l 0.44625,0.689656 a 5.4361046,5.4361046 0 0 1 -3.75253,1.501017 c -2.86006,0 -3.52941,-1.724146 -3.52941,-3.651121 a 7.1602442,7.1602442 0 0 1 -6.32861,3.651121 c -2.75863,0 -5.21298,-1.379315 -5.21298,-4.584181 0,-3.204872 2.49493,-4.705887 6.61258,-6.430025 2.75861,-1.156187 4.92901,-1.845842 4.92901,-3.509128 v -2.616633 c 0,-3.468558 -1.68359,-4.056795 -3.8134,-4.056795 a 5.1724128,5.1724128 0 0 0 -4.05679,1.460447 2.5354968,2.5354968 0 0 1 2.02841,2.515213 2.1703862,2.1703862 0 0 1 -2.41381,2.231236 2.2718053,2.2718053 0 0 1 -2.23123,-2.55578 3.6916835,3.6916835 0 0 1 1.92698,-2.941176 10.791075,10.791075 0 0 1 5.78092,-1.541582 7.0791072,7.0791072 0 0 1 4.84788,1.460446 z m -7.03853,-7.91075 a 2.393515,2.393515 0 1 1 -4.78703,0 2.3935094,2.3935094 0 1 1 4.76672,0 z m 4.96957,15.638944 c -0.44625,0.649088 -1.33875,1.075051 -3.93509,2.352947 a 5.5578085,5.5578085 0 0 0 -4.0568,5.212971 3.1643006,3.1643006 0 0 0 3.28601,3.610546 5.4563892,5.4563892 0 0 0 4.64502,-3.10344 z m 3.75254,-15.638944 a 2.3935094,2.3935094 0 1 1 -4.76674,0 2.3935094,2.3935094 0 1 1 4.76674,0 z"
     style="fill:#757575;fill-opacity:1;stroke-width:2.02839708"
     id="path110"
     inkscape:connector-curvature="0" />
  <path
     d="m 201.1156,27.789051 c 0,2.47464 0.75052,3.610548 3.14404,3.610548 v 0.872203 q -1.31839,-0.121677 -2.55576,-0.121677 a 13.671398,13.671398 0 0 0 -4.27992,0.567948 v -3.651127 a 5.8215,5.8215 0 0 1 -5.84182,3.77281 c -5.13184,0 -8.43814,-3.671393 -8.39756,-11.135897 0.0407,-7.464502 4.36105,-11.196753 9.31034,-11.196753 a 5.5172413,5.5172413 0 0 1 4.92904,2.434077 V 4.9492909 c 0,-2.4746449 -0.73026,-3.6105479 -3.12378,-3.6105479 V 0.466532 c 0.85192,0 1.72415,0.121703 2.53552,0.121703 A 12.920892,12.920892 0 0 0 201.1156,0 Z m -3.69164,-0.933073 v -12.17038 a 4.4827586,4.4827586 0 0 0 -4.60448,-3.164299 c -3.24545,0 -5.67954,3.286003 -5.63897,10.14199 0.0407,6.855987 1.92698,9.898575 5.5781,9.898575 2.06895,0.04066 4.03648,-1.582143 4.66535,-4.705886 z"
     style="fill:#757575;fill-opacity:1;stroke-width:2.02839708"
     id="path112"
     inkscape:connector-curvature="0" />
  <path
     d="m 219.26977,12.048682 c 1.29819,1.338742 1.64293,2.860041 1.64293,5.780932 V 29.2495 c 0,1.318458 0.32468,2.028384 1.2577,2.028384 a 2.9006091,2.9006091 0 0 0 1.86612,-0.851917 l 0.44627,0.689656 a 5.4361046,5.4361046 0 0 1 -3.75262,1.501017 c -2.8802,0 -3.52931,-1.724146 -3.52931,-3.651121 a 7.1602442,7.1602442 0 0 1 -6.3287,3.651121 c -2.75852,0 -5.23329,-1.379315 -5.23329,-4.584181 0,-3.204872 2.51531,-4.705887 6.63297,-6.430025 2.75852,-1.156187 4.92902,-1.845842 4.92902,-3.509128 v -2.616633 c 0,-3.468558 -1.6836,-4.056795 -3.81346,-4.056795 a 5.1521295,5.1521295 0 0 0 -4.05684,1.460447 2.5354968,2.5354968 0 0 1 1.92712,2.515213 2.1703862,2.1703862 0 0 1 -2.41393,2.231236 2.2718053,2.2718053 0 0 1 -2.23117,-2.55578 3.6511151,3.6511151 0 0 1 1.92696,-2.941176 10.669371,10.669371 0 0 1 5.76065,-1.541582 7.1399585,7.1399585 0 0 1 4.96958,1.460446 z m -2.02838,7.667342 c -0.44628,0.649088 -1.35907,1.075051 -3.93516,2.35294 a 5.5578085,5.5578085 0 0 0 -4.05673,5.212982 3.1643006,3.1643006 0 0 0 3.28594,3.610548 5.4766744,5.4766744 0 0 0 4.64511,-3.103443 z"
     style="fill:#757575;fill-opacity:1;stroke-width:2.02839708"
     id="path114"
     inkscape:connector-curvature="0" />
  <path
     d="m 238.94523,27.748484 c 2.59635,0 4.82752,0.933057 4.82752,3.81338 0,3.65112 -3.52931,8.438136 -11.52128,8.438136 -4.15823,0 -8.2758,-1.277886 -8.2758,-3.772812 0,-2.028409 2.55577,-3.833682 5.17239,-5.03044 h -0.14113 c -1.44019,0 -4.05688,-0.385382 -4.05688,-3.123731 0,-1.784983 1.21709,-3.448271 5.15215,-5.21297 a 5.7809328,5.7809328 0 0 1 -3.79315,-5.862075 c 0,-4.523327 3.28608,-6.490872 7.60648,-6.490872 a 10.912779,10.912779 0 0 1 2.90064,0.365112 8.7423939,8.7423939 0 0 1 1.46053,-3.651117 3.4685595,3.4685595 0 0 1 2.79913,-1.3793091 2.0283973,2.0283973 0 0 1 2.17041,2.1501001 1.9066938,1.9066938 0 0 1 -2.02846,2.028399 c -1.48071,0 -2.02838,-0.9736311 -2.19062,-2.5760654 a 4.7058831,4.7058831 0 0 0 -1.09535,2.0283978 10.365111,10.365111 0 0 0 -0.42591,1.7038536 5.7809328,5.7809328 0 0 1 3.95533,5.902636 c 0,4.523327 -3.28604,6.511163 -7.60653,6.511163 a 10.953347,10.953347 0 0 1 -3.04258,-0.385398 c -1.84583,0.993906 -3.44827,2.02839 -3.44827,3.245432 0,0.912779 0.568,1.379306 2.0284,1.379306 z m 2.02832,5.740355 c 0,-1.501006 -0.60842,-2.292091 -3.12366,-2.292091 h -7.66729 a 4.888438,4.888438 0 0 0 -2.77898,4.056807 c 0,2.799182 3.2454,3.935083 6.08516,3.935083 3.32657,0.101509 7.44431,-1.744413 7.44431,-5.699799 z M 230.12176,16.997972 c 0,4.401625 1.44011,5.760654 3.73215,5.760654 2.29216,0 3.75261,-1.359029 3.75261,-5.760654 0,-4.401623 -1.44024,-5.760649 -3.75261,-5.760649 -2.31241,0 -3.77271,1.359026 -3.77271,5.760649 z"
     style="fill:#757575;fill-opacity:1;stroke-width:2.02839708"
     id="path116"
     inkscape:connector-curvature="0" />
  <path
     d="m 263.71192,21.703853 c 0,7.890472 -4.05676,11.135897 -9.33057,11.135897 -5.27391,0 -9.3509,-3.245425 -9.3509,-11.135897 0,-7.890464 4.05684,-11.196753 9.3509,-11.196753 5.29405,0 9.33057,3.265719 9.33057,11.196753 z m -14.68548,0 c 0,7.342797 2.23109,10.32455 5.35491,10.32455 3.12372,0 5.33474,-2.981753 5.33474,-10.32455 0,-7.342797 -2.21102,-10.365111 -5.33474,-10.365111 -3.12382,0 -5.35491,2.941177 -5.35491,10.365111 z"
     style="fill:#757575;fill-opacity:1;stroke-width:2.02839708"
     id="path118"
     inkscape:connector-curvature="0" />
  <path
     d="m 279.04659,27.748484 c 2.5964,0 4.82763,0.933057 4.82763,3.81338 0,3.65112 -3.52945,8.438136 -11.5213,8.438136 -4.05684,0 -8.27589,-1.277886 -8.27589,-3.772812 0,-2.028409 2.55578,-3.833682 5.17239,-5.03044 h -0.14113 c -1.44014,0 -4.05677,-0.385382 -4.05677,-3.123731 0,-1.784983 1.23732,-3.448271 5.15212,-5.21297 a 5.7809328,5.7809328 0 0 1 -3.83355,-5.862075 c 0,-4.523327 3.28595,-6.490872 7.60647,-6.490872 a 10.912779,10.912779 0 0 1 2.90064,0.365112 8.7423939,8.7423939 0 0 1 1.46039,-3.651117 3.4685595,3.4685595 0 0 1 2.79922,-1.3793091 2.0283973,2.0283973 0 0 1 1.96756,2.1501001 1.9066938,1.9066938 0 0 1 -2.02841,2.028399 c -1.4807,0 -2.02846,-0.9736311 -2.19066,-2.5760654 a 4.9492897,4.9492897 0 0 0 -1.09538,2.0283978 10.365111,10.365111 0 0 0 -0.42596,1.7038536 5.7809328,5.7809328 0 0 1 3.95543,5.902636 c 0,4.523327 -3.2861,6.511163 -7.60651,6.511163 a 10.953347,10.953347 0 0 1 -3.04266,-0.385398 c -1.84582,0.993906 -3.44826,2.02839 -3.44826,3.245432 0,0.912779 0.56802,1.379306 2.0284,1.379306 z m 2.0285,5.740355 c 0,-1.501006 -0.60859,-2.292091 -3.12371,-2.292091 h -7.64716 a 4.8681543,4.8681543 0 0 0 -2.79913,4.056807 c 0,2.799182 3.24539,3.935083 6.08518,3.935083 3.22513,0.101509 7.34276,-1.744413 7.34276,-5.699799 z M 270.22311,16.997972 c 0,4.401625 1.44018,5.760654 3.73226,5.760654 2.29203,0 3.75252,-1.359029 3.75252,-5.760654 0,-4.401623 -1.44013,-5.760649 -3.75252,-5.760649 -2.31239,0 -3.87431,1.359026 -3.87431,5.760649 z"
     style="fill:#757575;fill-opacity:1;stroke-width:2.02839708"
     id="path120"
     inkscape:connector-curvature="0" />
  <path
     d="m 292.75859,28.478702 c 0,2.292091 0.85196,2.961455 3.12383,2.961455 v 0.872217 c -0.93318,0 -3.08319,-0.16237 -4.9697,-0.16237 -1.88642,0 -4.05667,0.121677 -4.98984,0.16237 v -0.872217 c 2.27176,0 3.14403,-0.669364 3.14403,-2.961455 V 15.578094 c 0,-2.474645 -0.75054,-3.651116 -3.14403,-3.651116 v -0.851927 q 1.31844,0.121703 2.55576,0.121703 a 13.671398,13.671398 0 0 0 4.27995,-0.567952 z m 0.48678,-25.05071 a 2.6369163,2.6369163 0 1 1 -2.63686,-2.636916 2.6572009,2.6572009 0 0 1 2.63686,2.636916 z"
     style="fill:#757575;fill-opacity:1;stroke-width:2.02839708"
     id="path122"
     inkscape:connector-curvature="0" />
  <path
     d="m 316.57196,29.2495 c 0.95334,1.277885 1.64309,2.028384 2.88036,2.150099 v 0.872203 c -0.62884,0 -2.02839,-0.162368 -3.34691,-0.162368 -1.72415,0 -3.69165,0.121677 -4.54347,0.162368 v -0.872203 c 0.77079,0 1.25752,-0.32455 1.25752,-0.791083 a 1.0750506,1.0750506 0 0 0 -0.24336,-0.608518 l -4.72628,-6.916834 a 3.326572,3.326572 0 0 0 -3.08308,-1.805273 v 7.200811 c 0,2.292091 0.7302,2.961455 2.71802,2.961455 v 0.872217 c -0.87216,0 -2.8398,-0.16237 -4.56394,-0.16237 -1.72413,0 -4.05674,0.121677 -4.98985,0.16237 v -0.872217 c 2.27186,0 3.14403,-0.669364 3.14403,-2.961455 V 4.9492909 c 0,-2.4746449 -0.75048,-3.6105479 -3.14403,-3.6105479 V 0.466532 q 1.31854,0.121703 2.55576,0.121703 A 13.083165,13.083165 0 0 0 304.76674,0 v 20.365112 a 5.3144015,5.3144015 0 0 0 3.52947,-1.703854 l 3.06287,-3.144016 a 3.8336715,3.8336715 0 0 0 1.29805,-2.271806 c 0,-1.014199 -1.29805,-1.419877 -3.02231,-1.419877 V 11.0142 c 1.41989,0 3.44838,0.162263 4.62475,0.162263 1.17649,0 2.75867,0 3.5903,-0.162263 v 0.811359 a 5.7809328,5.7809328 0 0 0 -3.71198,2.028397 l -4.98985,5.25355 z"
     style="fill:#757575;fill-opacity:1;stroke-width:2.02839708"
     id="path124"
     inkscape:connector-curvature="0" />
</svg>
