<?xml version="1.0" encoding="utf-8"?>
<!-- Generator: Adobe Illustrator 24.0.2, SVG Export Plug-In . SVG Version: 6.00 Build 0)  -->
<svg version="1.1"
	 id="svg2403" inkscape:output_extension="org.inkscape.output.svg.inkscape" inkscape:version="0.46" sodipodi:docname="Open Access PLoS.svg" sodipodi:version="0.32" xmlns:cc="http://creativecommons.org/ns#" xmlns:dc="http://purl.org/dc/elements/1.1/" xmlns:inkscape="http://www.inkscape.org/namespaces/inkscape" xmlns:rdf="http://www.w3.org/1999/02/22-rdf-syntax-ns#" xmlns:sodipodi="http://sodipodi.sourceforge.net/DTD/sodipodi-0.dtd" xmlns:svg="http://www.w3.org/2000/svg"
	 xmlns="http://www.w3.org/2000/svg" xmlns:xlink="http://www.w3.org/1999/xlink" x="0px" y="0px" viewBox="0 0 840.3 332"
	 style="enable-background:new 0 0 840.3 332;" xml:space="preserve">
<style type="text/css">
	.st0{fill:#B9BABB;}
	.st1{fill:#F68212;}
</style>
<g>
	<path class="st0" d="M4.5,113.5V3.8h37.8c11,0,18.7,1.1,23.2,3.4c4.5,2.3,7.8,5.6,10.1,9.8c2.3,4.2,3.4,9.5,3.4,15.9
		c0,12.3-3.9,21.6-11.6,28c-7.7,6.4-18.1,9.6-31.1,9.6h-9.3v43H4.5z M26.9,55.5h4.3c8.4,0,14.6-2,18.5-6c3.9-4,5.9-8.8,5.9-14.2
		c0-3.1-0.6-5.8-1.9-8.3c-1.2-2.5-3.2-4.5-5.8-5.9c-2.6-1.4-6.8-2.2-12.5-2.2h-8.6V55.5z"/>
	<path class="st0" d="M103.8,113.5V3.8h22.8V98h48.9v15.6H103.8z"/>
	<path class="st0" d="M186.2,113.5L228.9,3.8h22.9l42.7,109.8h-23.5l-11.4-29.3h-45.5l-11.4,29.3H186.2z M219.9,69.6H254l-17-43.8
		L219.9,69.6z"/>
	<path class="st0" d="M343.4,113.5V18.9h-39.3V3.8h101.5v15.1h-39.3v94.7H343.4z"/>
	<path class="st0" d="M427,113.5V3.8h22.8v109.8H427z"/>
	<path class="st0" d="M483.5,113.5V3.8h20.1l50.8,75v-75h18.3v109.8h-20.5l-50.4-75v75H483.5z"/>
	<path class="st0" d="M605.4,3.8h22.8v67.3c0,12.2,2.1,20.2,6.2,24.2c4.1,4,9.5,5.9,16.1,5.9c6.5,0,11.6-2,15.5-5.9
		c3.8-3.9,5.7-11.5,5.7-22.6v-69h19.9v67.4c0,12.7-1.6,21.8-4.8,27.3c-3.2,5.5-7.8,9.9-13.8,13c-6,3.2-13.7,4.7-22.9,4.7
		c-9.1,0-16.9-1.5-23.4-4.4c-6.5-2.9-11.7-7.3-15.5-13.1c-3.8-5.8-5.7-15.1-5.7-27.8V3.8z"/>
	<path class="st0" d="M724.2,113.5V3.8h30.2L781,81l27.3-77.2h26.5v109.8h-21.1V30.7l-26.8,75.5h-18.4l-26.3-76.6v84H724.2z"/>
</g>
<path id="path2424" class="st1" d="M295.6,106.4v11H328v-11c0-26.7,21.8-48.5,48.5-48.5c26.7,0,48.5,21.7,48.5,48.5v80h32.4v-80
	c0-44.6-36.4-81-81-81C332,25.4,295.6,61.8,295.6,106.4"/>
<path id="path2426" class="st1" d="M403.5,233c0,14.8-12,26.7-26.8,26.7S350,247.8,350,233s12-26.8,26.8-26.8S403.5,218.3,403.5,233
	"/>
<path id="path2428" class="st1" d="M313.4,232.8c0-34.8,28.3-63,63-63s63,28.3,63,63s-28.3,63-63,63
	C341.8,295.8,313.4,267.5,313.4,232.8 M281,232.8c0,52.6,42.9,95.5,95.5,95.5s95.5-42.9,95.5-95.5s-42.9-95.5-95.5-95.5
	S281,180.1,281,232.8"/>
<path id="path2430" class="st0" d="M31.8,255.9c9.9,0,15.6-9.4,15.6-22.1c0-11.6-5.5-21.7-15.6-21.7s-15.9,9.9-15.9,22
	C15.9,246.4,21.9,255.9,31.8,255.9L31.8,255.9z M31.1,267.6c-19.3,0-30.6-14.6-30.6-33.1c0-19.5,12.5-34,31.6-34
	c20,0,30.9,15,30.9,32.9C63,254.8,50.1,267.6,31.1,267.6L31.1,267.6z"/>
<path id="path2432" class="st0" d="M90.6,231.9c1.3,0.3,2.7,0.4,4.9,0.4c7.9,0,12.6-4,12.6-10.5c0-6-4-9.5-11.5-9.5
	c-3,0-5,0.3-6.1,0.5v19.1H90.6z M76.1,202.4C80.6,201.6,87,201,96,201c9.1,0,15.6,1.8,20,5.3c4.1,3.1,6.9,8.6,6.9,15
	c0,6.5-2,11.9-5.9,15.4c-5,4.6-12.5,6.9-21.3,6.9c-1.9,0-3.6-0.1-5-0.4v23.4H76.1V202.4z"/>
<path id="path2434" class="st0" d="M174.3,239h-23.9v15.4h26.8v12.1h-41.4v-65h40v12h-25.4V227h23.9V239z"/>
<path id="path2436" class="st0" d="M194.3,266.5v-65h17.1l13.5,23.9c3.9,6.9,7.6,15,10.6,22.3h0.3c-0.9-8.6-1.1-17.4-1.1-27.3v-18.9
	h13.5v65h-15.4l-13.9-25.1c-3.9-7-8.3-15.4-11.3-23h-0.4c0.5,8.6,0.6,17.9,0.6,28.5v19.6H194.3z"/>
<path id="path2438" class="st0" d="M530.1,238.9l-4-13.8c-1-3.9-2.3-8.8-3.1-12.5h-0.3c-0.9,3.9-1.9,8.8-2.9,12.5l-4,13.8H530.1z
	 M513.6,249.8l-4.5,16.8h-15.3l19.9-65H533l20.3,65h-15.9l-5-16.8H513.6z"/>
<path id="path2440" class="st0" d="M608.5,264.8c-2.6,1.3-8.8,2.8-16.6,2.8c-22.5,0-34-14.1-34-32.8c0-22.3,15.9-34.5,35.5-34.5
	c7.6,0,13.4,1.5,16,2.9l-3.1,11.6c-2.9-1.3-7-2.4-12.4-2.4c-11.6,0-20.6,7-20.6,21.6c0,13,7.8,21.3,20.8,21.3
	c4.5,0,9.4-0.9,12.4-2.1L608.5,264.8z"/>
<path id="path2442" class="st0" d="M666.4,264.8c-2.6,1.3-8.8,2.8-16.6,2.8c-22.5,0-34-14.1-34-32.8c0-22.3,15.9-34.5,35.5-34.5
	c7.6,0,13.4,1.5,16,2.9l-3,11.8c-2.9-1.3-7-2.4-12.4-2.4c-11.6,0-20.6,7-20.6,21.6c0,13,7.8,21.3,20.7,21.3c4.5,0,9.4-0.9,12.4-2.1
	L666.4,264.8z"/>
<path id="path2444" class="st0" d="M722,239h-23.9v15.4h26.8v12.1h-41.4v-65h40v12h-25.4V227H722L722,239L722,239z"/>
<path id="path2446" class="st0" d="M742.6,251.5c3.9,2,10,4,16.3,4c6.8,0,10.4-2.8,10.4-7.1c0-4-3.1-6.4-10.9-9.1
	c-10.8-3.9-18-9.9-18-19.4c0-11.1,9.4-19.5,24.6-19.5c7.4,0,12.8,1.5,16.6,3.3l-3.2,11.7c-2.5-1.3-7.3-3.1-13.5-3.1
	c-6.4,0-9.5,3-9.5,6.3c0,4.1,3.6,6,12,9.3c11.5,4.2,16.8,10.2,16.8,19.5c0,10.9-8.2,20.1-26.1,20.1c-7.4,0-14.8-2-18.4-4
	L742.6,251.5z"/>
<path id="path2448" class="st0" d="M798.1,251.5c3.9,2,10,4,16.3,4c6.8,0,10.4-2.8,10.4-7.1c0-4-3.1-6.4-10.9-9.1
	c-10.7-3.9-17.9-9.9-17.9-19.4c0-11.1,9.4-19.5,24.6-19.5c7.4,0,12.8,1.5,16.6,3.3l-3.2,11.7c-2.5-1.3-7.3-3.1-13.5-3.1
	c-6.4,0-9.5,3-9.5,6.3c0,4.1,3.6,6,12,9.3c11.5,4.2,16.8,10.2,16.8,19.5c0,10.9-8.2,20.1-26.1,20.1c-7.4,0-14.8-2-18.4-4
	L798.1,251.5z"/>
</svg>
